0
SECTION
2
HEADER
9
$ACADVER
1
AC1027
9
$ACADMAINTVER
70
8
9
$DWGCODEPAGE
3
ANSI_1252
9
$LASTSAVEDBY
1
macc
9
$REQUIREDVERSIONS
160
0
9
$INSBASE
10
0.0
20
0.0
30
0.0
9
$EXTMIN
10
1.000000000000000E+20
20
1.000000000000000E+20
30
1.000000000000000E+20
9
$EXTMAX
10
-1.000000000000000E+20
20
-1.000000000000000E+20
30
-1.000000000000000E+20
9
$LIMMIN
10
0.0
20
0.0
9
$LIMMAX
10
12.0
20
9.0
9
$ORTHOMODE
70
0
9
$REGENMODE
70
1
9
$FILLMODE
70
1
9
$QTEXTMODE
70
0
9
$MIRRTEXT
70
0
9
$LTSCALE
40
1.0
9
$ATTMODE
70
1
9
$TEXTSIZE
40
0.2
9
$TRACEWID
40
0.05
9
$TEXTSTYLE
7
STANDARD
9
$CLAYER
8
0
9
$CELTYPE
6
ByLayer
9
$CECOLOR
62
256
9
$CELTSCALE
40
1.0
9
$DISPSILH
70
0
9
$DIMSCALE
40
1.0
9
$DIMASZ
40
0.18
9
$DIMEXO
40
0.0625
9
$DIMDLI
40
0.38
9
$DIMRND
40
0.0
9
$DIMDLE
40
0.0
9
$DIMEXE
40
0.18
9
$DIMTP
40
0.0
9
$DIMTM
40
0.0
9
$DIMTXT
40
0.18
9
$DIMCEN
40
0.09
9
$DIMTSZ
40
0.0
9
$DIMTOL
70
0
9
$DIMLIM
70
0
9
$DIMTIH
70
1
9
$DIMTOH
70
1
9
$DIMSE1
70
0
9
$DIMSE2
70
0
9
$DIMTAD
70
0
9
$DIMZIN
70
0
9
$DIMBLK
1

9
$DIMASO
70
1
9
$DIMSHO
70
1
9
$DIMPOST
1

9
$DIMAPOST
1

9
$DIMALT
70
0
9
$DIMALTD
70
2
9
$DIMALTF
40
25.4
9
$DIMLFAC
40
1.0
9
$DIMTOFL
70
0
9
$DIMTVP
40
0.0
9
$DIMTIX
70
0
9
$DIMSOXD
70
0
9
$DIMSAH
70
0
9
$DIMBLK1
1

9
$DIMBLK2
1

9
$DIMSTYLE
2
STANDARD
9
$DIMCLRD
70
0
9
$DIMCLRE
70
0
9
$DIMCLRT
70
0
9
$DIMTFAC
40
1.0
9
$DIMGAP
40
0.09
9
$DIMJUST
70
0
9
$DIMSD1
70
0
9
$DIMSD2
70
0
9
$DIMTOLJ
70
1
9
$DIMTZIN
70
0
9
$DIMALTZ
70
0
9
$DIMALTTZ
70
0
9
$DIMUPT
70
0
9
$DIMDEC
70
4
9
$DIMTDEC
70
4
9
$DIMALTU
70
2
9
$DIMALTTD
70
2
9
$DIMTXSTY
7
STANDARD
9
$DIMAUNIT
70
0
9
$DIMADEC
70
0
9
$DIMALTRND
40
0.0
9
$DIMAZIN
70
0
9
$DIMDSEP
70
46
9
$DIMATFIT
70
3
9
$DIMFRAC
70
0
9
$DIMLDRBLK
1

9
$DIMLUNIT
70
2
9
$DIMLWD
70
-2
9
$DIMLWE
70
-2
9
$DIMTMOVE
70
0
9
$DIMFXL
40
1.0
9
$DIMFXLON
70
0
9
$DIMJOGANG
40
0.7853981633974483
9
$DIMTFILL
70
0
9
$DIMTFILLCLR
70
0
9
$DIMARCSYM
70
0
9
$DIMLTYPE
6

9
$DIMLTEX1
6

9
$DIMLTEX2
6

9
$DIMTXTDIRECTION
70
0
9
$LUNITS
70
2
9
$LUPREC
70
4
9
$SKETCHINC
40
0.1
9
$FILLETRAD
40
0.0
9
$AUNITS
70
0
9
$AUPREC
70
0
9
$MENU
1
.
9
$ELEVATION
40
0.0
9
$PELEVATION
40
0.0
9
$THICKNESS
40
0.0
9
$LIMCHECK
70
0
9
$CHAMFERA
40
0.0
9
$CHAMFERB
40
0.0
9
$CHAMFERC
40
0.0
9
$CHAMFERD
40
0.0
9
$SKPOLY
70
0
9
$TDCREATE
40
2458312.067262384
9
$TDUCREATE
40
2458311.983929051
9
$TDUPDATE
40
2458312.961305069
9
$TDUUPDATE
40
2458312.877971736
9
$TDINDWG
40
0.0045230903
9
$TDUSRTIMER
40
0.0045219676
9
$USRTIMER
70
1
9
$ANGBASE
50
0.0
9
$ANGDIR
70
0
9
$PDMODE
70
0
9
$PDSIZE
40
0.0
9
$PLINEWID
40
0.0
9
$SPLFRAME
70
0
9
$SPLINETYPE
70
6
9
$SPLINESEGS
70
8
9
$HANDSEED
5
1058
9
$SURFTAB1
70
6
9
$SURFTAB2
70
6
9
$SURFTYPE
70
6
9
$SURFU
70
6
9
$SURFV
70
6
9
$UCSBASE
2

9
$UCSNAME
2

9
$UCSORG
10
0.0
20
0.0
30
0.0
9
$UCSXDIR
10
1.0
20
0.0
30
0.0
9
$UCSYDIR
10
0.0
20
1.0
30
0.0
9
$UCSORTHOREF
2

9
$UCSORTHOVIEW
70
0
9
$UCSORGTOP
10
0.0
20
0.0
30
0.0
9
$UCSORGBOTTOM
10
0.0
20
0.0
30
0.0
9
$UCSORGLEFT
10
0.0
20
0.0
30
0.0
9
$UCSORGRIGHT
10
0.0
20
0.0
30
0.0
9
$UCSORGFRONT
10
0.0
20
0.0
30
0.0
9
$UCSORGBACK
10
0.0
20
0.0
30
0.0
9
$PUCSBASE
2

9
$PUCSNAME
2

9
$PUCSORG
10
0.0
20
0.0
30
0.0
9
$PUCSXDIR
10
1.0
20
0.0
30
0.0
9
$PUCSYDIR
10
0.0
20
1.0
30
0.0
9
$PUCSORTHOREF
2

9
$PUCSORTHOVIEW
70
0
9
$PUCSORGTOP
10
0.0
20
0.0
30
0.0
9
$PUCSORGBOTTOM
10
0.0
20
0.0
30
0.0
9
$PUCSORGLEFT
10
0.0
20
0.0
30
0.0
9
$PUCSORGRIGHT
10
0.0
20
0.0
30
0.0
9
$PUCSORGFRONT
10
0.0
20
0.0
30
0.0
9
$PUCSORGBACK
10
0.0
20
0.0
30
0.0
9
$USERI1
70
0
9
$USERI2
70
0
9
$USERI3
70
0
9
$USERI4
70
0
9
$USERI5
70
0
9
$USERR1
40
0.0
9
$USERR2
40
0.0
9
$USERR3
40
0.0
9
$USERR4
40
0.0
9
$USERR5
40
0.0
9
$WORLDVIEW
70
1
9
$SHADEDGE
70
3
9
$SHADEDIF
70
70
9
$TILEMODE
70
1
9
$MAXACTVP
70
64
9
$PINSBASE
10
0.0
20
0.0
30
0.0
9
$PLIMCHECK
70
0
9
$PEXTMIN
10
0.0
20
0.0
30
0.0
9
$PEXTMAX
10
0.0
20
0.0
30
0.0
9
$PLIMMIN
10
0.0
20
0.0
9
$PLIMMAX
10
12.0
20
9.0
9
$UNITMODE
70
0
9
$VISRETAIN
70
1
9
$PLINEGEN
70
0
9
$PSLTSCALE
70
1
9
$TREEDEPTH
70
3020
9
$CMLSTYLE
2
Standard
9
$CMLJUST
70
0
9
$CMLSCALE
40
1.0
9
$PROXYGRAPHICS
70
1
9
$MEASUREMENT
70
0
9
$CELWEIGHT
370
-1
9
$ENDCAPS
280
0
9
$JOINSTYLE
280
0
9
$LWDISPLAY
290
0
9
$INSUNITS
70
0
9
$HYPERLINKBASE
1

9
$STYLESHEET
1

9
$XEDIT
290
1
9
$CEPSNTYPE
380
0
9
$PSTYLEMODE
290
1
9
$FINGERPRINTGUID
2
{4B4ED3CC-337F-6143-9B17-EFB0F3F01845}
9
$VERSIONGUID
2
{A4861B96-12DA-254C-ACF2-0C3CF0F63D02}
9
$EXTNAMES
290
1
9
$PSVPSCALE
40
0.0
9
$OLESTARTUP
290
0
9
$SORTENTS
280
127
9
$INDEXCTL
280
0
9
$HIDETEXT
280
0
9
$XCLIPFRAME
280
2
9
$HALOGAP
280
0
9
$OBSCOLOR
70
257
9
$OBSLTYPE
280
0
9
$INTERSECTIONDISPLAY
280
0
9
$INTERSECTIONCOLOR
70
257
9
$DIMASSOC
280
1
9
$PROJECTNAME
1

9
$CAMERADISPLAY
290
0
9
$LENSLENGTH
40
50.0
9
$CAMERAHEIGHT
40
0.0
9
$STEPSPERSEC
40
2.0
9
$STEPSIZE
40
6.0
9
$3DDWFPREC
40
2.0
9
$PSOLWIDTH
40
0.25
9
$PSOLHEIGHT
40
4.0
9
$LOFTANG1
40
1.570796326794896
9
$LOFTANG2
40
1.570796326794896
9
$LOFTMAG1
40
0.0
9
$LOFTMAG2
40
0.0
9
$LOFTPARAM
70
7
9
$LOFTNORMALS
280
1
9
$LATITUDE
40
37.795
9
$LONGITUDE
40
-122.394
9
$NORTHDIRECTION
40
0.0
9
$TIMEZONE
70
-8000
9
$LIGHTGLYPHDISPLAY
280
1
9
$TILEMODELIGHTSYNCH
280
1
9
$CMATERIAL
347
222
9
$SOLIDHIST
280
0
9
$SHOWHIST
280
1
9
$DWFFRAME
280
2
9
$DGNFRAME
280
0
9
$REALWORLDSCALE
290
1
9
$INTERFERECOLOR
62
1
9
$INTERFEREOBJVS
345
244
9
$INTERFEREVPVS
346
241
9
$CSHADOW
280
0
9
$SHADOWPLANELOCATION
40
0.0
0
ENDSEC
0
SECTION
2
CLASSES
0
CLASS
1
ACDBDICTIONARYWDFLT
2
AcDbDictionaryWithDefault
3
ObjectDBX Classes
90
0
91
1
280
0
281
0
0
CLASS
1
MATERIAL
2
AcDbMaterial
3
ObjectDBX Classes
90
1153
91
3
280
0
281
0
0
CLASS
1
VISUALSTYLE
2
AcDbVisualStyle
3
ObjectDBX Classes
90
4095
91
24
280
0
281
0
0
CLASS
1
SCALE
2
AcDbScale
3
ObjectDBX Classes
90
1153
91
17
280
0
281
0
0
CLASS
1
TABLESTYLE
2
AcDbTableStyle
3
ObjectDBX Classes
90
4095
91
1
280
0
281
0
0
CLASS
1
MLEADERSTYLE
2
AcDbMLeaderStyle
3
ACDB_MLEADERSTYLE_CLASS
90
4095
91
1
280
0
281
0
0
CLASS
1
ACDBSECTIONVIEWSTYLE
2
AcDbSectionViewStyle
3
ObjectDBX Classes
90
1025
91
1
280
0
281
0
0
CLASS
1
ACDBDETAILVIEWSTYLE
2
AcDbDetailViewStyle
3
ObjectDBX Classes
90
1025
91
1
280
0
281
0
0
CLASS
1
DICTIONARYVAR
2
AcDbDictionaryVar
3
ObjectDBX Classes
90
0
91
9
280
0
281
0
0
CLASS
1
CELLSTYLEMAP
2
AcDbCellStyleMap
3
ObjectDBX Classes
90
1152
91
2
280
0
281
0
0
ENDSEC
0
SECTION
2
TABLES
0
TABLE
2
VPORT
5
219
330
0
100
AcDbSymbolTable
70
1
0
VPORT
5
285
330
219
100
AcDbSymbolTableRecord
100
AcDbViewportTableRecord
2
*ACTIVE
70
0
10
0.0
20
0.0
11
1.0
21
1.0
12
60.85393284500712
22
1.602311788490737
13
0.0
23
0.0
14
0.5
24
0.5
15
0.5
25
0.5
16
0.0
26
0.0
36
1.0
17
0.0
27
0.0
37
0.0
40
135.7601553851812
41
1.367970660146699
42
50.0
43
0.0
44
0.0
50
0.0
51
0.0
71
0
72
1000
73
1
74
3
75
0
76
1
77
0
78
0
281
0
65
1
110
0.0
120
0.0
130
0.0
111
1.0
121
0.0
131
0.0
112
0.0
122
1.0
132
0.0
79
0
146
0.0
348
240
60
3
61
5
292
1
282
0
141
0.0
142
0.0
63
250
421
3355443
1001
ACAD_NAV_VCDISPLAY
1070
3
0
ENDTAB
0
TABLE
2
LTYPE
5
216
330
0
100
AcDbSymbolTable
70
2
0
LTYPE
5
26B
330
216
100
AcDbSymbolTableRecord
100
AcDbLinetypeTableRecord
2
ByBlock
70
0
3

72
65
73
0
40
0.0
0
LTYPE
5
26C
330
216
100
AcDbSymbolTableRecord
100
AcDbLinetypeTableRecord
2
ByLayer
70
0
3

72
65
73
0
40
0.0
0
LTYPE
5
26D
330
216
100
AcDbSymbolTableRecord
100
AcDbLinetypeTableRecord
2
CONTINUOUS
70
0
3
Solid line
72
65
73
0
40
0.0
0
LTYPE
5
103D
330
216
100
AcDbSymbolTableRecord
100
AcDbLinetypeTableRecord
2
DOTTED
70
0
3
Dotted . . . . . . . . . . . . . . . . . . . .
72
65
73
2
40
3.0
49
0.0
74
0
49
-3.0
74
0
0
ENDTAB
0
TABLE
2
LAYER
5
213
102
{ACAD_XDICTIONARY
360
297
102
}
330
0
100
AcDbSymbolTable
70
4
0
LAYER
5
265
102
{ACAD_XDICTIONARY
360
292
102
}
330
213
100
AcDbSymbolTableRecord
100
AcDbLayerTableRecord
2
0
70
0
62
7
6
CONTINUOUS
370
-3
390
220
347
232
348
0
0
LAYER
5
2FB
330
213
100
AcDbSymbolTableRecord
100
AcDbLayerTableRecord
2
gear
70
0
62
7
6
CONTINUOUS
370
-3
390
220
347
232
348
0
1001
AcAecLayerStandard
1000

1000

1001
AcCmTransparency
1071
0
0
LAYER
5
2FE
330
213
100
AcDbSymbolTableRecord
100
AcDbLayerTableRecord
2
gear_texts
70
0
62
7
6
CONTINUOUS
370
-3
390
220
347
232
348
0
1001
AcAecLayerStandard
1000

1000

1001
AcCmTransparency
1071
0
0
LAYER
5
2FF
330
213
100
AcDbSymbolTableRecord
100
AcDbLayerTableRecord
2
gear_guides
70
0
62
5
6
CONTINUOUS
370
-3
390
220
347
232
348
0
1001
AcAecLayerStandard
1000

1000

1001
AcCmTransparency
1071
0
0
ENDTAB
0
TABLE
2
STYLE
5
214
330
0
100
AcDbSymbolTable
70
3
0
STYLE
5
266
330
214
100
AcDbSymbolTableRecord
100
AcDbTextStyleTableRecord
2
STANDARD
70
0
40
0.0
41
1.0
50
0.0
71
0
42
0.2
3
txt
4

0
STYLE
5
26A
330
214
100
AcDbSymbolTableRecord
100
AcDbTextStyleTableRecord
2
ANNOTATIVE
70
0
40
0.0
41
1.0
50
0.0
71
0
42
0.2
3
txt
4

1001
ACADANNOTATIVE
1000
AnnotativeData
1002
{
1070
1
1070
1
1002
}
0
STYLE
5
301
330
214
100
AcDbSymbolTableRecord
100
AcDbTextStyleTableRecord
2

70
1
40
0.0
41
1.0
50
0.0
71
0
42
0.2
3
ltypeshp.shx
4

0
ENDTAB
0
TABLE
2
VIEW
5
217
330
0
100
AcDbSymbolTable
70
1
0
ENDTAB
0
TABLE
2
UCS
5
218
330
0
100
AcDbSymbolTable
70
0
0
ENDTAB
0
TABLE
2
APPID
5
21A
330
0
100
AcDbSymbolTable
70
10
0
APPID
5
267
330
21A
100
AcDbSymbolTableRecord
100
AcDbRegAppTableRecord
2
ACAD
70
0
0
APPID
5
26E
330
21A
100
AcDbSymbolTableRecord
100
AcDbRegAppTableRecord
2
ACADANNOTATIVE
70
0
0
APPID
5
286
330
21A
100
AcDbSymbolTableRecord
100
AcDbRegAppTableRecord
2
ACADANNOPO
70
0
0
APPID
5
287
330
21A
100
AcDbSymbolTableRecord
100
AcDbRegAppTableRecord
2
ACAD_DSTYLE_DIMJAG
70
0
0
APPID
5
288
330
21A
100
AcDbSymbolTableRecord
100
AcDbRegAppTableRecord
2
ACAD_DSTYLE_DIMTALN
70
0
0
APPID
5
289
330
21A
100
AcDbSymbolTableRecord
100
AcDbRegAppTableRecord
2
ACAD_MLEADERVER
70
0
0
APPID
5
28A
330
21A
100
AcDbSymbolTableRecord
100
AcDbRegAppTableRecord
2
ACAD_NAV_VCDISPLAY
70
0
0
APPID
5
2E7
330
21A
100
AcDbSymbolTableRecord
100
AcDbRegAppTableRecord
2
ACAD_EXEMPT_FROM_CAD_STANDARDS
70
0
0
APPID
5
2FC
330
21A
100
AcDbSymbolTableRecord
100
AcDbRegAppTableRecord
2
AcAecLayerStandard
70
0
0
APPID
5
2FD
330
21A
100
AcDbSymbolTableRecord
100
AcDbRegAppTableRecord
2
AcCmTransparency
70
0
0
ENDTAB
0
TABLE
2
DIMSTYLE
5
21B
330
0
100
AcDbSymbolTable
70
2
100
AcDbDimStyleTable
71
1
340
268
0
DIMSTYLE
105
268
330
21B
100
AcDbSymbolTableRecord
100
AcDbDimStyleTableRecord
2
STANDARD
70
0
279
2
340
266
0
DIMSTYLE
105
269
330
21B
100
AcDbSymbolTableRecord
100
AcDbDimStyleTableRecord
2
ANNOTATIVE
70
0
40
0.0
279
2
340
266
1001
ACADANNOTATIVE
1000
AnnotativeData
1002
{
1070
1
1070
1
1002
}
0
ENDTAB
0
TABLE
2
BLOCK_RECORD
5
212
330
0
100
AcDbSymbolTable
70
2
0
BLOCK_RECORD
5
281
330
212
100
AcDbSymbolTableRecord
100
AcDbBlockTableRecord
2
*Model_Space
340
284
70
0
280
1
281
0
0
BLOCK_RECORD
5
27D
330
212
100
AcDbSymbolTableRecord
100
AcDbBlockTableRecord
2
*Paper_Space
340
280
70
0
280
1
281
0
0
BLOCK_RECORD
5
28C
330
212
100
AcDbSymbolTableRecord
100
AcDbBlockTableRecord
2
$MODEL_SPACE
340
0
70
0
280
1
281
0
0
BLOCK_RECORD
5
28E
330
212
100
AcDbSymbolTableRecord
100
AcDbBlockTableRecord
2
$PAPER_SPACE
340
0
70
0
280
1
281
0
0
ENDTAB
0
ENDSEC
0
SECTION
2
BLOCKS
0
BLOCK
5
282
330
281
100
AcDbEntity
8
0
100
AcDbBlockBegin
2
*Model_Space
70
0
10
0.0
20
0.0
30
0.0
3
*Model_Space
1

0
ENDBLK
5
283
330
281
100
AcDbEntity
8
0
100
AcDbBlockEnd
0
BLOCK
5
27E
330
27D
100
AcDbEntity
67
1
8
0
100
AcDbBlockBegin
2
*Paper_Space
70
0
10
0.0
20
0.0
30
0.0
3
*Paper_Space
1

0
ENDBLK
5
27F
330
27D
100
AcDbEntity
67
1
8
0
100
AcDbBlockEnd
0
BLOCK
5
28D
330
28C
100
AcDbEntity
8
0
100
AcDbBlockBegin
2
$MODEL_SPACE
70
0
10
0.0
20
0.0
30
0.0
3
$MODEL_SPACE
1

0
ENDBLK
5
21
330
28C
100
AcDbEntity
8
0
100
AcDbBlockEnd
0
BLOCK
5
28F
330
28E
100
AcDbEntity
8
0
100
AcDbBlockBegin
2
$PAPER_SPACE
70
0
10
0.0
20
0.0
30
0.0
3
$PAPER_SPACE
1

0
ENDBLK
5
5B
330
28E
100
AcDbEntity
8
0
100
AcDbBlockEnd
0
ENDSEC
0
SECTION
2
ENTITIES
0
LWPOLYLINE
5
1000
100
AcDbEntity
100
AcDbPolyline
90
4176
70
1
43
0
10
8.425
20
0
10
8.458522
20
0.000015
10
8.46035
20
0.000056
10
8.462972
20
0.000141
10
8.466389
20
0.000284
10
8.470597
20
0.000501
10
8.475597
20
0.000808
10
8.481387
20
0.001219
10
8.487965
20
0.00175
10
8.49533
20
0.002417
10
8.503479
20
0.003234
10
8.512409
20
0.004217
10
8.52212
20
0.005381
10
8.532607
20
0.006742
10
8.543868
20
0.008314
10
8.5559
20
0.010113
10
8.568699
20
0.012153
10
8.582262
20
0.014451
10
8.596584
20
0.01702
10
8.611662
20
0.019875
10
8.627491
20
0.023033
10
8.644067
20
0.026506
10
8.661385
20
0.030311
10
8.679441
20
0.034462
10
8.698228
20
0.038973
10
8.717743
20
0.043859
10
8.737978
20
0.049135
10
8.758929
20
0.054815
10
8.780589
20
0.060913
10
8.802952
20
0.067444
10
8.826012
20
0.074421
10
8.849762
20
0.081859
10
8.874195
20
0.089773
10
8.899304
20
0.098175
10
8.925082
20
0.10708
10
8.951522
20
0.116501
10
8.978615
20
0.126452
10
9.006354
20
0.136947
10
9.034732
20
0.147999
10
9.063738
20
0.159621
10
9.093366
20
0.171826
10
9.123607
20
0.184629
10
9.154451
20
0.198041
10
9.185889
20
0.212075
10
9.217913
20
0.226745
10
9.250513
20
0.242063
10
9.283679
20
0.258042
10
9.317402
20
0.274693
10
9.351671
20
0.292029
10
9.386476
20
0.310063
10
9.421807
20
0.328805
10
9.457654
20
0.348269
10
9.475767
20
0.358275
10
9.484871
20
0.363347
10
9.489434
20
0.365901
10
9.491719
20
0.367182
10
9.492862
20
0.367824
10
9.492875
20
0.367861
10
9.47207
20
0.727936
10
9.472052
20
0.727972
10
9.470843
20
0.728478
10
9.468426
20
0.729487
10
9.463599
20
0.731498
10
9.453972
20
0.735488
10
9.434827
20
0.743341
10
9.396977
20
0.758547
10
9.359722
20
0.773096
10
9.323071
20
0.787
10
9.287034
20
0.800274
10
9.251618
20
0.812931
10
9.216832
20
0.824983
10
9.182685
20
0.836444
10
9.149184
20
0.847328
10
9.116339
20
0.857648
10
9.084155
20
0.867418
10
9.052641
20
0.876653
10
9.021805
20
0.885365
10
8.991653
20
0.893569
10
8.962191
20
0.901279
10
8.933428
20
0.908509
10
8.905369
20
0.915273
10
8.87802
20
0.921586
10
8.851388
20
0.927463
10
8.825478
20
0.932917
10
8.800296
20
0.937964
10
8.775847
20
0.942617
10
8.752137
20
0.946892
10
8.729171
20
0.950804
10
8.706953
20
0.954367
10
8.685487
20
0.957596
10
8.664779
20
0.960506
10
8.644832
20
0.963112
10
8.625649
20
0.965429
10
8.607236
20
0.967472
10
8.589595
20
0.969257
10
8.572729
20
0.970799
10
8.556641
20
0.972112
10
8.541335
20
0.973212
10
8.526812
20
0.974114
10
8.513075
20
0.974834
10
8.500126
20
0.975387
10
8.487968
20
0.975788
10
8.4766
20
0.976053
10
8.466026
20
0.976196
10
8.456246
20
0.976235
10
8.447261
20
0.976182
10
8.439073
20
0.976056
10
8.43168
20
0.97587
10
8.425085
20
0.97564
10
8.419286
20
0.975381
10
8.414284
20
0.97511
10
8.410079
20
0.974841
10
8.406669
20
0.974589
10
8.404054
20
0.974371
10
8.402233
20
0.974202
10
8.368933
20
0.970356
10
8.297005
20
1.462986
10
8.330015
20
1.468822
10
8.331808
20
1.46918
10
8.334376
20
1.469719
10
8.337716
20
1.470453
10
8.341823
20
1.471397
10
8.346693
20
1.472567
10
8.352324
20
1.473978
10
8.35871
20
1.475643
10
8.365847
20
1.477578
10
8.37373
20
1.479798
10
8.382355
20
1.482317
10
8.391715
20
1.48515
10
8.401807
20
1.488311
10
8.412624
20
1.491815
10
8.424161
20
1.495676
10
8.436411
20
1.499908
10
8.449368
20
1.504525
10
8.463027
20
1.509542
10
8.47738
20
1.514973
10
8.49242
20
1.520831
10
8.508142
20
1.52713
10
8.524536
20
1.533884
10
8.541596
20
1.541107
10
8.559315
20
1.548812
10
8.577685
20
1.557013
10
8.596696
20
1.565722
10
8.616343
20
1.574954
10
8.636615
20
1.584721
10
8.657504
20
1.595035
10
8.679002
20
1.605911
10
8.701099
20
1.617361
10
8.723787
20
1.629397
10
8.747056
20
1.642031
10
8.770896
20
1.655277
10
8.795298
20
1.669146
10
8.820252
20
1.683651
10
8.845747
20
1.698803
10
8.871774
20
1.714615
10
8.898322
20
1.731097
10
8.92538
20
1.748262
10
8.952938
20
1.766122
10
8.980985
20
1.784686
10
9.009509
20
1.803967
10
9.038499
20
1.823974
10
9.067943
20
1.844721
10
9.097831
20
1.866215
10
9.12815
20
1.888469
10
9.158888
20
1.911493
10
9.190033
20
1.935297
10
9.221573
20
1.95989
10
9.253495
20
1.985283
10
9.269595
20
1.998282
10
9.27768
20
2.004858
10
9.28173
20
2.008165
10
9.283758
20
2.009823
10
9.284772
20
2.010654
10
9.284779
20
2.010693
10
9.201763
20
2.361685
10
9.20174
20
2.361717
10
9.200461
20
2.362005
10
9.197905
20
2.36258
10
9.192802
20
2.363722
10
9.182629
20
2.365979
10
9.162411
20
2.370389
10
9.122495
20
2.378791
10
9.08328
20
2.386649
10
9.044772
20
2.393978
10
9.006977
20
2.400793
10
8.969901
20
2.407107
10
8.933551
20
2.412935
10
8.897932
20
2.418293
10
8.863051
20
2.423194
10
8.828912
20
2.427654
10
8.795521
20
2.431687
10
8.762882
20
2.435309
10
8.731001
20
2.438534
10
8.699883
20
2.441377
10
8.66953
20
2.443854
10
8.639948
20
2.44598
10
8.611141
20
2.447769
10
8.583111
20
2.449237
10
8.555863
20
2.4504
10
8.5294
20
2.451272
10
8.503724
20
2.451869
10
8.478839
20
2.452207
10
8.454747
20
2.452299
10
8.43145
20
2.452164
10
8.40895
20
2.451814
10
8.38725
20
2.451266
10
8.366351
20
2.450536
10
8.346255
20
2.449639
10
8.326961
20
2.44859
10
8.308473
20
2.447405
10
8.29079
20
2.4461
10
8.273912
20
2.444689
10
8.257841
20
2.443188
10
8.242576
20
2.441614
10
8.228117
20
2.439981
10
8.214464
20
2.438304
10
8.201616
20
2.4366
10
8.189572
20
2.434884
10
8.178332
20
2.43317
10
8.167893
20
2.431476
10
8.158255
20
2.429815
10
8.149416
20
2.428204
10
8.141374
20
2.426657
10
8.134126
20
2.42519
10
8.127671
20
2.423818
10
8.122005
20
2.422557
10
8.117126
20
2.421421
10
8.113031
20
2.420425
10
8.109717
20
2.419586
10
8.10718
20
2.418917
10
8.105416
20
2.418434
10
8.073289
20
2.408864
10
7.91691
20
2.88152
10
7.948405
20
2.892999
10
7.950109
20
2.893663
10
7.952545
20
2.89464
10
7.955706
20
2.895942
10
7.959586
20
2.897586
10
7.96418
20
2.899584
10
7.96948
20
2.901951
10
7.97548
20
2.9047
10
7.982172
20
2.907845
10
7.98955
20
2.9114
10
7.997606
20
2.915378
10
8.006333
20
2.919793
10
8.015722
20
2.924659
10
8.025767
20
2.929988
10
8.036457
20
2.935793
10
8.047787
20
2.942088
10
8.059745
20
2.948885
10
8.072325
20
2.956198
10
8.085517
20
2.964039
10
8.099312
20
2.972419
10
8.1137
20
2.981353
10
8.128673
20
2.990851
10
8.14422
20
3.000927
10
8.160332
20
3.011592
10
8.176998
20
3.022858
10
8.194208
20
3.034736
10
8.211953
20
3.047239
10
8.230221
20
3.060378
10
8.249002
20
3.074163
10
8.268285
20
3.088607
10
8.288058
20
3.103719
10
8.308311
20
3.119512
10
8.329033
20
3.135995
10
8.350211
20
3.15318
10
8.371833
20
3.171076
10
8.393889
20
3.189693
10
8.416366
20
3.209042
10
8.439252
20
3.229133
10
8.462535
20
3.249976
10
8.486201
20
3.271578
10
8.510239
20
3.293952
10
8.534636
20
3.317104
10
8.559378
20
3.341045
10
8.584454
20
3.365783
10
8.609848
20
3.391327
10
8.635549
20
3.417685
10
8.661543
20
3.444866
10
8.687816
20
3.472877
10
8.714355
20
3.501727
10
8.741145
20
3.531424
10
8.768173
20
3.561974
10
8.781771
20
3.577572
10
8.788591
20
3.585452
10
8.792006
20
3.589412
10
8.793715
20
3.591397
10
8.794569
20
3.592391
10
8.794569
20
3.592431
10
8.651865
20
3.923675
10
8.651837
20
3.923703
10
8.650527
20
3.923764
10
8.647911
20
3.923886
10
8.642687
20
3.924125
10
8.632276
20
3.924581
10
8.611599
20
3.925413
10
8.570832
20
3.926756
10
8.530847
20
3.927686
10
8.491651
20
3.928217
10
8.453247
20
3.928364
10
8.415638
20
3.928145
10
8.378828
20
3.927572
10
8.34282
20
3.926663
10
8.307618
20
3.925433
10
8.273223
20
3.923897
10
8.239639
20
3.922071
10
8.206867
20
3.91997
10
8.174911
20
3.91761
10
8.143771
20
3.915006
10
8.11345
20
3.912175
10
8.083948
20
3.909131
10
8.055267
20
3.905891
10
8.027409
20
3.90247
10
8.000373
20
3.898883
10
7.97416
20
3.895146
10
7.948771
20
3.891276
10
7.924205
20
3.887287
10
7.900463
20
3.883195
10
7.877543
20
3.879016
10
7.855447
20
3.874764
10
7.834171
20
3.870457
10
7.813716
20
3.866109
10
7.794081
20
3.861735
10
7.775263
20
3.857352
10
7.757261
20
3.852975
10
7.740073
20
3.848618
10
7.723697
20
3.844298
10
7.708131
20
3.84003
10
7.693371
20
3.835829
10
7.679416
20
3.831709
10
7.666261
20
3.827688
10
7.653904
20
3.823778
10
7.642341
20
3.819997
10
7.631569
20
3.816358
10
7.621583
20
3.812876
10
7.61238
20
3.809567
10
7.603955
20
3.806445
10
7.596304
20
3.803525
10
7.589421
20
3.800822
10
7.583302
20
3.79835
10
7.577941
20
3.796124
10
7.573333
20
3.794158
10
7.569474
20
3.792467
10
7.566355
20
3.791065
10
7.563973
20
3.789965
10
7.56232
20
3.789183
10
7.532343
20
3.77418
10
7.296264
20
4.2125
10
7.325287
20
4.229274
10
7.32685
20
4.230224
10
7.329079
20
4.231608
10
7.331965
20
4.23344
10
7.335502
20
4.235733
10
7.339678
20
4.238498
10
7.344487
20
4.241749
10
7.349918
20
4.245498
10
7.355963
20
4.249758
10
7.362611
20
4.25454
10
7.369854
20
4.259857
10
7.377682
20
4.26572
10
7.386084
20
4.272142
10
7.39505
20
4.279134
10
7.40457
20
4.286708
10
7.414634
20
4.294875
10
7.425231
20
4.303645
10
7.43635
20
4.313031
10
7.44798
20
4.323043
10
7.46011
20
4.333692
10
7.472729
20
4.344989
10
7.485824
20
4.356943
10
7.499385
20
4.369565
10
7.5134
20
4.382866
10
7.527857
20
4.396855
10
7.542744
20
4.411541
10
7.558048
20
4.426935
10
7.573757
20
4.443046
10
7.589858
20
4.459884
10
7.60634
20
4.477456
10
7.623189
20
4.495773
10
7.640392
20
4.514843
10
7.657936
20
4.534674
10
7.675808
20
4.555275
10
7.693995
20
4.576653
10
7.712483
20
4.598818
10
7.731258
20
4.621777
10
7.750308
20
4.645536
10
7.769617
20
4.670105
10
7.789173
20
4.695489
10
7.808961
20
4.721697
10
7.828966
20
4.748734
10
7.849176
20
4.776607
10
7.869574
20
4.805324
10
7.890148
20
4.834889
10
7.910881
20
4.86531
10
7.93176
20
4.896592
10
7.95277
20
4.92874
10
7.973896
20
4.96176
10
7.995122
20
4.995658
10
8.016434
20
5.030437
10
8.027118
20
5.048159
10
8.032465
20
5.057104
10
8.035141
20
5.061597
10
8.036479
20
5.063848
10
8.037148
20
5.064975
10
8.03714
20
5.065015
10
7.839085
20
5.366446
10
7.839052
20
5.366469
10
7.837752
20
5.366302
10
7.835154
20
5.365968
10
7.829968
20
5.365295
10
7.819636
20
5.363937
10
7.799129
20
5.361166
10
7.758747
20
5.355409
10
7.719209
20
5.349381
10
7.680516
20
5.343098
10
7.64267
20
5.336575
10
7.605671
20
5.329827
10
7.569519
20
5.322872
10
7.534216
20
5.315724
10
7.499762
20
5.3084
10
7.466157
20
5.300914
10
7.4334
20
5.293284
10
7.401491
20
5.285524
10
7.37043
20
5.277651
10
7.340215
20
5.269679
10
7.310846
20
5.261626
10
7.282321
20
5.253505
10
7.254639
20
5.245334
10
7.227798
20
5.237127
10
7.201795
20
5.2289
10
7.176629
20
5.220669
10
7.152298
20
5.212448
10
7.128798
20
5.204254
10
7.106127
20
5.196101
10
7.084282
20
5.188006
10
7.063259
20
5.179982
10
7.043055
20
5.172046
10
7.023666
20
5.164212
10
7.005088
20
5.156495
10
6.987317
20
5.148911
10
6.970349
20
5.141474
10
6.954179
20
5.134199
10
6.938802
20
5.127101
10
6.924213
20
5.120194
10
6.910407
20
5.113494
10
6.897379
20
5.107014
10
6.885122
20
5.100769
10
6.873632
20
5.094773
10
6.862902
20
5.089041
10
6.852925
20
5.083587
10
6.843696
20
5.078424
10
6.835207
20
5.073567
10
6.827452
20
5.06903
10
6.820423
20
5.064825
10
6.814114
20
5.060968
10
6.808518
20
5.057471
10
6.803625
20
5.054348
10
6.799429
20
5.051612
10
6.795921
20
5.049276
10
6.793094
20
5.047354
10
6.790938
20
5.045857
10
6.789446
20
5.0448
10
6.76253
20
5.024819
10
6.453924
20
5.415486
10
6.479594
20
5.437044
10
6.480968
20
5.438251
10
6.482922
20
5.440002
10
6.485447
20
5.442307
10
6.488532
20
5.445179
10
6.492165
20
5.448627
10
6.496336
20
5.452664
10
6.501034
20
5.457299
10
6.506247
20
5.462544
10
6.511964
20
5.468408
10
6.518173
20
5.474902
10
6.524864
20
5.482035
10
6.532023
20
5.489819
10
6.539639
20
5.498262
10
6.547699
20
5.507373
10
6.556192
20
5.517164
10
6.565105
20
5.527641
10
6.574425
20
5.538815
10
6.58414
20
5.550695
10
6.594236
20
5.563288
10
6.604702
20
5.576604
10
6.615523
20
5.590651
10
6.626686
20
5.605436
10
6.638178
20
5.620968
10
6.649986
20
5.637255
10
6.662096
20
5.654304
10
6.674495
20
5.672121
10
6.687167
20
5.690716
10
6.700101
20
5.710093
10
6.71328
20
5.730261
10
6.726693
20
5.751225
10
6.740323
20
5.772992
10
6.754157
20
5.795569
10
6.76818
20
5.81896
10
6.782378
20
5.843172
10
6.796737
20
5.86821
10
6.81124
20
5.89408
10
6.825874
20
5.920787
10
6.840624
20
5.948335
10
6.855475
20
5.97673
10
6.870411
20
6.005975
10
6.885418
20
6.036076
10
6.90048
20
6.067035
10
6.915582
20
6.098857
10
6.930709
20
6.131546
10
6.945845
20
6.165105
10
6.960975
20
6.199537
10
6.976083
20
6.234845
10
6.991154
20
6.271032
10
7.006171
20
6.308101
10
7.02112
20
6.346053
10
7.028564
20
6.365361
10
7.032277
20
6.375098
10
7.034132
20
6.379987
10
7.035058
20
6.382437
10
7.035522
20
6.383663
10
7.035507
20
6.383701
10
6.788118
20
6.64616
10
6.788082
20
6.646177
10
6.78683
20
6.645787
10
6.78433
20
6.645007
10
6.77934
20
6.643444
10
6.7694
20
6.640312
10
6.749686
20
6.634022
10
6.710917
20
6.621341
10
6.673027
20
6.608539
10
6.636013
20
6.595632
10
6.599874
20
6.582636
10
6.564609
20
6.569566
10
6.530214
20
6.556439
10
6.496689
20
6.543269
10
6.46403
20
6.530073
10
6.432235
20
6.516866
10
6.401301
20
6.503663
10
6.371224
20
6.490481
10
6.342002
20
6.477333
10
6.313631
20
6.464236
10
6.286106
20
6.451205
10
6.259425
20
6.438255
10
6.233582
20
6.4254
10
6.208573
20
6.412657
10
6.184395
20
6.40004
10
6.161041
20
6.387564
10
6.138506
20
6.375243
10
6.116786
20
6.363093
10
6.095876
20
6.351127
10
6.075768
20
6.339361
10
6.056458
20
6.327808
10
6.037939
20
6.316484
10
6.020205
20
6.305402
10
6.003249
20
6.294577
10
5.987065
20
6.284022
10
5.971646
20
6.273752
10
5.956985
20
6.263779
10
5.943074
20
6.254119
10
5.929906
20
6.244784
10
5.917474
20
6.235788
10
5.905768
20
6.227144
10
5.894783
20
6.218866
10
5.884508
20
6.210966
10
5.874936
20
6.203457
10
5.866058
20
6.196353
10
5.857865
20
6.189667
10
5.850349
20
6.183409
10
5.8435
20
6.177594
10
5.837308
20
6.172233
10
5.831765
20
6.167339
10
5.82686
20
6.162923
10
5.822584
20
6.158998
10
5.818927
20
6.155575
10
5.815878
20
6.152666
10
5.813428
20
6.150281
10
5.811565
20
6.148433
10
5.810279
20
6.147133
10
5.787242
20
6.122782
10
5.415486
20
6.453924
10
5.437021
20
6.479613
10
5.438165
20
6.48104
10
5.439786
20
6.483104
10
5.441872
20
6.485813
10
5.444411
20
6.489176
10
5.44739
20
6.493203
10
5.450797
20
6.497903
10
5.454618
20
6.503283
10
5.458841
20
6.509353
10
5.463453
20
6.516121
10
5.468441
20
6.523595
10
5.473791
20
6.531782
10
5.47949
20
6.54069
10
5.485524
20
6.550327
10
5.49188
20
6.5607
10
5.498544
20
6.571816
10
5.505502
20
6.583682
10
5.51274
20
6.596305
10
5.520244
20
6.609691
10
5.528
20
6.623847
10
5.535994
20
6.638777
10
5.544212
20
6.65449
10
5.552638
20
6.670989
10
5.561258
20
6.688281
10
5.570059
20
6.706371
10
5.579025
20
6.725263
10
5.58814
20
6.744963
10
5.597392
20
6.765475
10
5.606764
20
6.786804
10
5.616241
20
6.808954
10
5.625809
20
6.831929
10
5.635453
20
6.855732
10
5.645156
20
6.880368
10
5.654905
20
6.905839
10
5.664683
20
6.932149
10
5.674475
20
6.9593
10
5.684266
20
6.987295
10
5.69404
20
7.016138
10
5.703782
20
7.045829
10
5.713477
20
7.076371
10
5.723108
20
7.107765
10
5.732659
20
7.140014
10
5.742117
20
7.173119
10
5.751463
20
7.20708
10
5.760684
20
7.241899
10
5.769763
20
7.277577
10
5.778684
20
7.314113
10
5.787431
20
7.351508
10
5.795989
20
7.389762
10
5.804342
20
7.428875
10
5.812473
20
7.468847
10
5.816451
20
7.489154
10
5.818417
20
7.499388
10
5.819394
20
7.504525
10
5.819882
20
7.507098
10
5.820125
20
7.508387
10
5.820104
20
7.508421
10
5.530898
20
7.723935
10
5.530859
20
7.723945
10
5.529694
20
7.723343
10
5.527367
20
7.722141
10
5.522724
20
7.719735
10
5.51348
20
7.714925
10
5.495157
20
7.705307
10
5.45918
20
7.686086
10
5.424088
20
7.666899
10
5.389877
20
7.647761
10
5.356544
20
7.628687
10
5.324084
20
7.609692
10
5.292492
20
7.590792
10
5.261763
20
7.572
10
5.231892
20
7.553334
10
5.202873
20
7.534806
10
5.174701
20
7.516432
10
5.147371
20
7.498227
10
5.120876
20
7.480205
10
5.09521
20
7.46238
10
5.070366
20
7.444768
10
5.046339
20
7.427381
10
5.023121
20
7.410234
10
5.000705
20
7.393342
10
4.979085
20
7.376718
10
4.958252
20
7.360376
10
4.938199
20
7.344329
10
4.918919
20
7.328592
10
4.900404
20
7.313177
10
4.882645
20
7.298098
10
4.865634
20
7.283368
10
4.849363
20
7.269
10
4.833822
20
7.255007
10
4.819004
20
7.241401
10
4.804899
20
7.228197
10
4.791498
20
7.215405
10
4.778791
20
7.203038
10
4.766769
20
7.191109
10
4.755422
20
7.179629
10
4.744741
20
7.168611
10
4.734714
20
7.158066
10
4.725333
20
7.148005
10
4.716586
20
7.138441
10
4.708463
20
7.129385
10
4.700954
20
7.120847
10
4.694047
20
7.112839
10
4.687731
20
7.105372
10
4.681996
20
7.098456
10
4.676829
20
7.092101
10
4.67222
20
7.086319
10
4.668157
20
7.081118
10
4.664627
20
7.07651
10
4.66162
20
7.072504
10
4.659123
20
7.069109
10
4.657124
20
7.066336
10
4.65561
20
7.064193
10
4.654569
20
7.062689
10
4.63611
20
7.034707
10
4.2125
20
7.296264
10
4.229248
20
7.325302
10
4.230126
20
7.326906
10
4.231364
20
7.32922
10
4.232948
20
7.33225
10
4.234864
20
7.336003
10
4.237099
20
7.340486
10
4.239638
20
7.345706
10
4.242467
20
7.351668
10
4.245572
20
7.35838
10
4.248939
20
7.365845
10
4.252553
20
7.374071
10
4.2564
20
7.383063
10
4.260465
20
7.392826
10
4.264734
20
7.403364
10
4.269192
20
7.414683
10
4.273824
20
7.426788
10
4.278616
20
7.439682
10
4.283552
20
7.45337
10
4.288618
20
7.467855
10
4.293799
20
7.483143
10
4.299078
20
7.499235
10
4.304442
20
7.516135
10
4.309876
20
7.533847
10
4.315363
20
7.552373
10
4.320888
20
7.571716
10
4.326437
20
7.591879
10
4.331993
20
7.612862
10
4.337542
20
7.634669
10
4.343068
20
7.657302
10
4.348555
20
7.680761
10
4.353989
20
7.705048
10
4.359352
20
7.730164
10
4.36463
20
7.756111
10
4.369807
20
7.782888
10
4.374868
20
7.810496
10
4.379797
20
7.838935
10
4.384578
20
7.868205
10
4.389195
20
7.898306
10
4.393634
20
7.929238
10
4.397877
20
7.960999
10
4.40191
20
7.99359
10
4.405717
20
8.027007
10
4.409282
20
8.061251
10
4.412589
20
8.09632
10
4.415624
20
8.132211
10
4.418369
20
8.168923
10
4.42081
20
8.206453
10
4.422931
20
8.244799
10
4.424716
20
8.283958
10
4.42615
20
8.323927
10
4.427217
20
8.364703
10
4.427608
20
8.385393
10
4.427767
20
8.395813
10
4.427838
20
8.401042
10
4.427871
20
8.403661
10
4.427886
20
8.404971
10
4.42786
20
8.405002
10
4.105624
20
8.567021
10
4.105584
20
8.567024
10
4.104541
20
8.56623
10
4.102459
20
8.564641
10
4.098304
20
8.561466
10
4.090035
20
8.555124
10
4.073661
20
8.54247
10
4.041568
20
8.517294
10
4.010341
20
8.492305
10
3.979973
20
8.467517
10
3.950459
20
8.442944
10
3.92179
20
8.418601
10
3.89396
20
8.394502
10
3.866961
20
8.37066
10
3.840785
20
8.34709
10
3.815424
20
8.323805
10
3.790871
20
8.300818
10
3.767117
20
8.278144
10
3.744154
20
8.255795
10
3.721973
20
8.233784
10
3.700566
20
8.212125
10
3.679922
20
8.19083
10
3.660035
20
8.169912
10
3.640893
20
8.149384
10
3.622487
20
8.129258
10
3.604809
20
8.109547
10
3.587848
20
8.090262
10
3.571593
20
8.071415
10
3.556036
20
8.053019
10
3.541165
20
8.035086
10
3.526971
20
8.017625
10
3.513442
20
8.00065
10
3.500567
20
7.984171
10
3.488337
20
7.9682
10
3.476739
20
7.952746
10
3.465762
20
7.937821
10
3.455396
20
7.923436
10
3.445628
20
7.9096
10
3.436447
20
7.896325
10
3.427841
20
7.883619
10
3.419798
20
7.871493
10
3.412306
20
7.859956
10
3.405353
20
7.849019
10
3.398927
20
7.83869
10
3.393014
20
7.828978
10
3.387602
20
7.819892
10
3.382679
20
7.811441
10
3.378232
20
7.803634
10
3.374247
20
7.796479
10
3.370712
20
7.789984
10
3.367614
20
7.784157
10
3.364938
20
7.779006
10
3.362672
20
7.774539
10
3.360802
20
7.770762
10
3.359315
20
7.767683
10
3.358197
20
7.76531
10
3.357433
20
7.763648
10
3.344113
20
7.732886
10
2.88152
20
7.91691
10
2.892971
20
7.948415
10
2.893557
20
7.950148
10
2.894375
20
7.952641
10
2.895408
20
7.9559
10
2.896644
20
7.959929
10
2.898066
20
7.964732
10
2.89966
20
7.970314
10
2.90141
20
7.976677
10
2.903303
20
7.983825
10
2.905322
20
7.991762
10
2.907453
20
8.000491
10
2.90968
20
8.010014
10
2.911988
20
8.020334
10
2.914362
20
8.031454
10
2.916787
20
8.043375
10
2.919247
20
8.0561
10
2.921727
20
8.06963
10
2.924212
20
8.083967
10
2.926685
20
8.099113
10
2.929132
20
8.115067
10
2.931537
20
8.131832
10
2.933885
20
8.149407
10
2.93616
20
8.167793
10
2.938347
20
8.186991
10
2.940429
20
8.206999
10
2.942393
20
8.227819
10
2.944221
20
8.249449
10
2.945899
20
8.271888
10
2.947411
20
8.295136
10
2.948741
20
8.319192
10
2.949874
20
8.344053
10
2.950795
20
8.369719
10
2.951487
20
8.396188
10
2.951936
20
8.423457
10
2.952126
20
8.451525
10
2.952041
20
8.480388
10
2.951667
20
8.510043
10
2.950987
20
8.540489
10
2.949987
20
8.571722
10
2.94865
20
8.603737
10
2.946963
20
8.636533
10
2.944909
20
8.670104
10
2.942473
20
8.704447
10
2.939641
20
8.739557
10
2.936397
20
8.775429
10
2.932726
20
8.81206
10
2.928612
20
8.849444
10
2.924042
20
8.887576
10
2.919
20
8.92645
10
2.913472
20
8.966061
10
2.907442
20
9.006403
10
2.904235
20
9.026846
10
2.902582
20
9.037135
10
2.901743
20
9.042297
10
2.901321
20
9.044882
10
2.901109
20
9.046175
10
2.901078
20
9.046201
10
2.555603
20
9.149803
10
2.555563
20
9.149799
10
2.554674
20
9.148835
10
2.552899
20
9.14691
10
2.549358
20
9.143061
10
2.542316
20
9.135379
10
2.528389
20
9.120075
10
2.501155
20
9.089708
10
2.474741
20
9.059676
10
2.44914
20
9.029991
10
2.424341
20
9.000667
10
2.400335
20
8.971715
10
2.377112
20
8.94315
10
2.354663
20
8.914982
10
2.332978
20
8.887224
10
2.312046
20
8.859889
10
2.291857
20
8.832988
10
2.272402
20
8.806533
10
2.253668
20
8.780536
10
2.235646
20
8.755008
10
2.218325
20
8.72996
10
2.201693
20
8.705404
10
2.18574
20
8.681351
10
2.170454
20
8.657811
10
2.155823
20
8.634795
10
2.141836
20
8.612313
10
2.128481
20
8.590376
10
2.115746
20
8.568993
10
2.10362
20
8.548175
10
2.092089
20
8.527931
10
2.081142
20
8.508272
10
2.070766
20
8.489205
10
2.060949
20
8.470741
10
2.051678
20
8.452888
10
2.042939
20
8.435655
10
2.034721
20
8.419051
10
2.027011
20
8.403084
10
2.019794
20
8.387763
10
2.013057
20
8.373094
10
2.006789
20
8.359087
10
2.000974
20
8.345749
10
1.995599
20
8.333087
10
1.990651
20
8.321108
10
1.986115
20
8.30982
10
1.981979
20
8.299228
10
1.978227
20
8.289341
10
1.974846
20
8.280164
10
1.971822
20
8.271703
10
1.96914
20
8.263965
10
1.966787
20
8.256955
10
1.964747
20
8.250678
10
1.963007
20
8.245141
10
1.961551
20
8.240348
10
1.960366
20
8.236304
10
1.959436
20
8.233014
10
1.958746
20
8.230482
10
1.958283
20
8.228713
10
1.950507
20
8.196106
10
1.462986
20
8.297005
10
1.468792
20
8.33002
10
1.469069
20
8.331828
10
1.469441
20
8.334425
10
1.469893
20
8.337814
10
1.47041
20
8.341997
10
1.470977
20
8.346974
10
1.471577
20
8.352747
10
1.472196
20
8.359318
10
1.472819
20
8.366686
10
1.473429
20
8.374853
10
1.474012
20
8.383819
10
1.474551
20
8.393584
10
1.475032
20
8.404149
10
1.475439
20
8.415512
10
1.475757
20
8.427673
10
1.47597
20
8.440632
10
1.476063
20
8.454387
10
1.47602
20
8.468938
10
1.475826
20
8.484282
10
1.475465
20
8.50042
10
1.474923
20
8.517347
10
1.474183
20
8.535063
10
1.473231
20
8.553565
10
1.472051
20
8.57285
10
1.470627
20
8.592917
10
1.468945
20
8.613761
10
1.46699
20
8.635379
10
1.464746
20
8.657769
10
1.462198
20
8.680927
10
1.459331
20
8.704848
10
1.456129
20
8.729529
10
1.452579
20
8.754965
10
1.448665
20
8.781151
10
1.444372
20
8.808084
10
1.439685
20
8.835758
10
1.434589
20
8.864168
10
1.429071
20
8.893308
10
1.423115
20
8.923173
10
1.416706
20
8.953758
10
1.409831
20
8.985055
10
1.402474
20
9.017059
10
1.394622
20
9.049764
10
1.386259
20
9.083162
10
1.377373
20
9.117246
10
1.367949
20
9.152011
10
1.357973
20
9.187448
10
1.34743
20
9.223549
10
1.336308
20
9.260308
10
1.324592
20
9.297716
10
1.31227
20
9.335765
10
1.299326
20
9.374447
10
1.292617
20
9.394023
10
1.289203
20
9.403869
10
1.287481
20
9.408806
10
1.286616
20
9.411279
10
1.286183
20
9.412516
10
1.286148
20
9.412535
10
0.927931
20
9.454573
10
0.927892
20
9.454562
10
0.927184
20
9.453459
10
0.92577
20
9.451254
10
0.922952
20
9.446849
10
0.917351
20
9.438061
10
0.906292
20
9.42057
10
0.884745
20
9.385936
10
0.863948
20
9.351773
10
0.84389
20
9.318094
10
0.82456
20
9.284909
10
0.805946
20
9.252229
10
0.788037
20
9.220064
10
0.77082
20
9.188426
10
0.754284
20
9.157325
10
0.738417
20
9.12677
10
0.723207
20
9.096772
10
0.70864
20
9.067341
10
0.694706
20
9.038485
10
0.681391
20
9.010216
10
0.668682
20
8.982541
10
0.656567
20
8.95547
10
0.645033
20
8.929012
10
0.634067
20
8.903175
10
0.623655
20
8.877967
10
0.613784
20
8.853398
10
0.604441
20
8.829475
10
0.595613
20
8.806206
10
0.587286
20
8.783599
10
0.579446
20
8.76166
10
0.572079
20
8.740398
10
0.565172
20
8.71982
10
0.55871
20
8.699931
10
0.552679
20
8.68074
10
0.547066
20
8.662251
10
0.541857
20
8.644473
10
0.537035
20
8.627409
10
0.532589
20
8.611067
10
0.528502
20
8.595452
10
0.524761
20
8.580569
10
0.52135
20
8.566424
10
0.518256
20
8.553021
10
0.515463
20
8.540365
10
0.512957
20
8.52846
10
0.510722
20
8.517312
10
0.508744
20
8.506923
10
0.507008
20
8.497298
10
0.505499
20
8.488441
10
0.504202
20
8.480354
10
0.503102
20
8.473042
10
0.502183
20
8.466507
10
0.501431
20
8.460751
10
0.500829
20
8.455778
10
0.500364
20
8.45159
10
0.500019
20
8.448188
10
0.49978
20
8.445575
10
0.499631
20
8.443753
10
0.497636
20
8.41029
10
0
20
8.425
10
-0.000015
20
8.458522
10
-0.000056
20
8.46035
10
-0.000141
20
8.462972
10
-0.000284
20
8.466389
10
-0.000501
20
8.470597
10
-0.000808
20
8.475597
10
-0.001219
20
8.481387
10
-0.00175
20
8.487965
10
-0.002417
20
8.49533
10
-0.003234
20
8.503479
10
-0.004217
20
8.512409
10
-0.005381
20
8.52212
10
-0.006742
20
8.532607
10
-0.008314
20
8.543868
10
-0.010113
20
8.5559
10
-0.012153
20
8.568699
10
-0.014451
20
8.582262
10
-0.01702
20
8.596584
10
-0.019875
20
8.611662
10
-0.023033
20
8.627491
10
-0.026506
20
8.644067
10
-0.030311
20
8.661385
10
-0.034462
20
8.679441
10
-0.038973
20
8.698228
10
-0.043859
20
8.717743
10
-0.049135
20
8.737978
10
-0.054815
20
8.758929
10
-0.060913
20
8.780589
10
-0.067444
20
8.802952
10
-0.074421
20
8.826012
10
-0.081859
20
8.849762
10
-0.089773
20
8.874195
10
-0.098175
20
8.899304
10
-0.10708
20
8.925082
10
-0.116501
20
8.951522
10
-0.126452
20
8.978615
10
-0.136947
20
9.006354
10
-0.147999
20
9.034732
10
-0.159621
20
9.063738
10
-0.171826
20
9.093366
10
-0.184629
20
9.123607
10
-0.198041
20
9.154451
10
-0.212075
20
9.185889
10
-0.226745
20
9.217913
10
-0.242063
20
9.250513
10
-0.258042
20
9.283679
10
-0.274693
20
9.317402
10
-0.292029
20
9.351671
10
-0.310063
20
9.386476
10
-0.328805
20
9.421807
10
-0.348269
20
9.457654
10
-0.358275
20
9.475767
10
-0.363347
20
9.484871
10
-0.365901
20
9.489434
10
-0.367182
20
9.491719
10
-0.367824
20
9.492862
10
-0.367861
20
9.492875
10
-0.727936
20
9.47207
10
-0.727972
20
9.472052
10
-0.728478
20
9.470843
10
-0.729487
20
9.468426
10
-0.731498
20
9.463599
10
-0.735488
20
9.453972
10
-0.743341
20
9.434827
10
-0.758547
20
9.396977
10
-0.773096
20
9.359722
10
-0.787
20
9.323071
10
-0.800274
20
9.287034
10
-0.812931
20
9.251618
10
-0.824983
20
9.216832
10
-0.836444
20
9.182685
10
-0.847328
20
9.149184
10
-0.857648
20
9.116339
10
-0.867418
20
9.084155
10
-0.876653
20
9.052641
10
-0.885365
20
9.021805
10
-0.893569
20
8.991653
10
-0.901279
20
8.962191
10
-0.908509
20
8.933428
10
-0.915273
20
8.905369
10
-0.921586
20
8.87802
10
-0.927463
20
8.851388
10
-0.932917
20
8.825478
10
-0.937964
20
8.800296
10
-0.942617
20
8.775847
10
-0.946892
20
8.752137
10
-0.950804
20
8.729171
10
-0.954367
20
8.706953
10
-0.957596
20
8.685487
10
-0.960506
20
8.664779
10
-0.963112
20
8.644832
10
-0.965429
20
8.625649
10
-0.967472
20
8.607236
10
-0.969257
20
8.589595
10
-0.970799
20
8.572729
10
-0.972112
20
8.556641
10
-0.973212
20
8.541335
10
-0.974114
20
8.526812
10
-0.974834
20
8.513075
10
-0.975387
20
8.500126
10
-0.975788
20
8.487968
10
-0.976053
20
8.4766
10
-0.976196
20
8.466026
10
-0.976235
20
8.456246
10
-0.976182
20
8.447261
10
-0.976056
20
8.439073
10
-0.97587
20
8.43168
10
-0.97564
20
8.425085
10
-0.975381
20
8.419286
10
-0.97511
20
8.414284
10
-0.974841
20
8.410079
10
-0.974589
20
8.406669
10
-0.974371
20
8.404054
10
-0.974202
20
8.402233
10
-0.970356
20
8.368933
10
-1.462986
20
8.297005
10
-1.468822
20
8.330015
10
-1.46918
20
8.331808
10
-1.469719
20
8.334376
10
-1.470453
20
8.337716
10
-1.471397
20
8.341823
10
-1.472567
20
8.346693
10
-1.473978
20
8.352324
10
-1.475643
20
8.35871
10
-1.477578
20
8.365847
10
-1.479798
20
8.37373
10
-1.482317
20
8.382355
10
-1.48515
20
8.391715
10
-1.488311
20
8.401807
10
-1.491815
20
8.412624
10
-1.495676
20
8.424161
10
-1.499908
20
8.436411
10
-1.504525
20
8.449368
10
-1.509542
20
8.463027
10
-1.514973
20
8.47738
10
-1.520831
20
8.49242
10
-1.52713
20
8.508142
10
-1.533884
20
8.524536
10
-1.541107
20
8.541596
10
-1.548812
20
8.559315
10
-1.557013
20
8.577685
10
-1.565722
20
8.596696
10
-1.574954
20
8.616343
10
-1.584721
20
8.636615
10
-1.595035
20
8.657504
10
-1.605911
20
8.679002
10
-1.617361
20
8.701099
10
-1.629397
20
8.723787
10
-1.642031
20
8.747056
10
-1.655277
20
8.770896
10
-1.669146
20
8.795298
10
-1.683651
20
8.820252
10
-1.698803
20
8.845747
10
-1.714615
20
8.871774
10
-1.731097
20
8.898322
10
-1.748262
20
8.92538
10
-1.766122
20
8.952938
10
-1.784686
20
8.980985
10
-1.803967
20
9.009509
10
-1.823974
20
9.038499
10
-1.844721
20
9.067943
10
-1.866215
20
9.097831
10
-1.888469
20
9.12815
10
-1.911493
20
9.158888
10
-1.935297
20
9.190033
10
-1.95989
20
9.221573
10
-1.985283
20
9.253495
10
-1.998282
20
9.269595
10
-2.004858
20
9.27768
10
-2.008165
20
9.28173
10
-2.009823
20
9.283758
10
-2.010654
20
9.284772
10
-2.010693
20
9.284779
10
-2.361685
20
9.201763
10
-2.361717
20
9.20174
10
-2.362005
20
9.200461
10
-2.36258
20
9.197905
10
-2.363722
20
9.192802
10
-2.365979
20
9.182629
10
-2.370389
20
9.162411
10
-2.378791
20
9.122495
10
-2.386649
20
9.08328
10
-2.393978
20
9.044772
10
-2.400793
20
9.006977
10
-2.407107
20
8.969901
10
-2.412935
20
8.933551
10
-2.418293
20
8.897932
10
-2.423194
20
8.863051
10
-2.427654
20
8.828912
10
-2.431687
20
8.795521
10
-2.435309
20
8.762882
10
-2.438534
20
8.731001
10
-2.441377
20
8.699883
10
-2.443854
20
8.66953
10
-2.44598
20
8.639948
10
-2.447769
20
8.611141
10
-2.449237
20
8.583111
10
-2.4504
20
8.555863
10
-2.451272
20
8.5294
10
-2.451869
20
8.503724
10
-2.452207
20
8.478839
10
-2.452299
20
8.454747
10
-2.452164
20
8.43145
10
-2.451814
20
8.40895
10
-2.451266
20
8.38725
10
-2.450536
20
8.366351
10
-2.449639
20
8.346255
10
-2.44859
20
8.326961
10
-2.447405
20
8.308473
10
-2.4461
20
8.29079
10
-2.444689
20
8.273912
10
-2.443188
20
8.257841
10
-2.441614
20
8.242576
10
-2.439981
20
8.228117
10
-2.438304
20
8.214464
10
-2.4366
20
8.201616
10
-2.434884
20
8.189572
10
-2.43317
20
8.178332
10
-2.431476
20
8.167893
10
-2.429815
20
8.158255
10
-2.428204
20
8.149416
10
-2.426657
20
8.141374
10
-2.42519
20
8.134126
10
-2.423818
20
8.127671
10
-2.422557
20
8.122005
10
-2.421421
20
8.117126
10
-2.420425
20
8.113031
10
-2.419586
20
8.109717
10
-2.418917
20
8.10718
10
-2.418434
20
8.105416
10
-2.408864
20
8.073289
10
-2.88152
20
7.91691
10
-2.892999
20
7.948405
10
-2.893663
20
7.950109
10
-2.89464
20
7.952545
10
-2.895942
20
7.955706
10
-2.897586
20
7.959586
10
-2.899584
20
7.96418
10
-2.901951
20
7.96948
10
-2.9047
20
7.97548
10
-2.907845
20
7.982172
10
-2.9114
20
7.98955
10
-2.915378
20
7.997606
10
-2.919793
20
8.006333
10
-2.924659
20
8.015722
10
-2.929988
20
8.025767
10
-2.935793
20
8.036457
10
-2.942088
20
8.047787
10
-2.948885
20
8.059745
10
-2.956198
20
8.072325
10
-2.964039
20
8.085517
10
-2.972419
20
8.099312
10
-2.981353
20
8.1137
10
-2.990851
20
8.128673
10
-3.000927
20
8.14422
10
-3.011592
20
8.160332
10
-3.022858
20
8.176998
10
-3.034736
20
8.194208
10
-3.047239
20
8.211953
10
-3.060378
20
8.230221
10
-3.074163
20
8.249002
10
-3.088607
20
8.268285
10
-3.103719
20
8.288058
10
-3.119512
20
8.308311
10
-3.135995
20
8.329033
10
-3.15318
20
8.350211
10
-3.171076
20
8.371833
10
-3.189693
20
8.393889
10
-3.209042
20
8.416366
10
-3.229133
20
8.439252
10
-3.249976
20
8.462535
10
-3.271578
20
8.486201
10
-3.293952
20
8.510239
10
-3.317104
20
8.534636
10
-3.341045
20
8.559378
10
-3.365783
20
8.584454
10
-3.391327
20
8.609848
10
-3.417685
20
8.635549
10
-3.444866
20
8.661543
10
-3.472877
20
8.687816
10
-3.501727
20
8.714355
10
-3.531424
20
8.741145
10
-3.561974
20
8.768173
10
-3.577572
20
8.781771
10
-3.585452
20
8.788591
10
-3.589412
20
8.792006
10
-3.591397
20
8.793715
10
-3.592391
20
8.794569
10
-3.592431
20
8.794569
10
-3.923675
20
8.651865
10
-3.923703
20
8.651837
10
-3.923764
20
8.650527
10
-3.923886
20
8.647911
10
-3.924125
20
8.642687
10
-3.924581
20
8.632276
10
-3.925413
20
8.611599
10
-3.926756
20
8.570832
10
-3.927686
20
8.530847
10
-3.928217
20
8.491651
10
-3.928364
20
8.453247
10
-3.928145
20
8.415638
10
-3.927572
20
8.378828
10
-3.926663
20
8.34282
10
-3.925433
20
8.307618
10
-3.923897
20
8.273223
10
-3.922071
20
8.239639
10
-3.91997
20
8.206867
10
-3.91761
20
8.174911
10
-3.915006
20
8.143771
10
-3.912175
20
8.11345
10
-3.909131
20
8.083948
10
-3.905891
20
8.055267
10
-3.90247
20
8.027409
10
-3.898883
20
8.000373
10
-3.895146
20
7.97416
10
-3.891276
20
7.948771
10
-3.887287
20
7.924205
10
-3.883195
20
7.900463
10
-3.879016
20
7.877543
10
-3.874764
20
7.855447
10
-3.870457
20
7.834171
10
-3.866109
20
7.813716
10
-3.861735
20
7.794081
10
-3.857352
20
7.775263
10
-3.852975
20
7.757261
10
-3.848618
20
7.740073
10
-3.844298
20
7.723697
10
-3.84003
20
7.708131
10
-3.835829
20
7.693371
10
-3.831709
20
7.679416
10
-3.827688
20
7.666261
10
-3.823778
20
7.653904
10
-3.819997
20
7.642341
10
-3.816358
20
7.631569
10
-3.812876
20
7.621583
10
-3.809567
20
7.61238
10
-3.806445
20
7.603955
10
-3.803525
20
7.596304
10
-3.800822
20
7.589421
10
-3.79835
20
7.583302
10
-3.796124
20
7.577941
10
-3.794158
20
7.573333
10
-3.792467
20
7.569474
10
-3.791065
20
7.566355
10
-3.789965
20
7.563973
10
-3.789183
20
7.56232
10
-3.77418
20
7.532343
10
-4.2125
20
7.296264
10
-4.229274
20
7.325287
10
-4.230224
20
7.32685
10
-4.231608
20
7.329079
10
-4.23344
20
7.331965
10
-4.235733
20
7.335502
10
-4.238498
20
7.339678
10
-4.241749
20
7.344487
10
-4.245498
20
7.349918
10
-4.249758
20
7.355963
10
-4.25454
20
7.362611
10
-4.259857
20
7.369854
10
-4.26572
20
7.377682
10
-4.272142
20
7.386084
10
-4.279134
20
7.39505
10
-4.286708
20
7.40457
10
-4.294875
20
7.414634
10
-4.303645
20
7.425231
10
-4.313031
20
7.43635
10
-4.323043
20
7.44798
10
-4.333692
20
7.46011
10
-4.344989
20
7.472729
10
-4.356943
20
7.485824
10
-4.369565
20
7.499385
10
-4.382866
20
7.5134
10
-4.396855
20
7.527857
10
-4.411541
20
7.542744
10
-4.426935
20
7.558048
10
-4.443046
20
7.573757
10
-4.459884
20
7.589858
10
-4.477456
20
7.60634
10
-4.495773
20
7.623189
10
-4.514843
20
7.640392
10
-4.534674
20
7.657936
10
-4.555275
20
7.675808
10
-4.576653
20
7.693995
10
-4.598818
20
7.712483
10
-4.621777
20
7.731258
10
-4.645536
20
7.750308
10
-4.670105
20
7.769617
10
-4.695489
20
7.789173
10
-4.721697
20
7.808961
10
-4.748734
20
7.828966
10
-4.776607
20
7.849176
10
-4.805324
20
7.869574
10
-4.834889
20
7.890148
10
-4.86531
20
7.910881
10
-4.896592
20
7.93176
10
-4.92874
20
7.95277
10
-4.96176
20
7.973896
10
-4.995658
20
7.995122
10
-5.030437
20
8.016434
10
-5.048159
20
8.027118
10
-5.057104
20
8.032465
10
-5.061597
20
8.035141
10
-5.063848
20
8.036479
10
-5.064975
20
8.037148
10
-5.065015
20
8.03714
10
-5.366446
20
7.839085
10
-5.366469
20
7.839052
10
-5.366302
20
7.837752
10
-5.365968
20
7.835154
10
-5.365295
20
7.829968
10
-5.363937
20
7.819636
10
-5.361166
20
7.799129
10
-5.355409
20
7.758747
10
-5.349381
20
7.719209
10
-5.343098
20
7.680516
10
-5.336575
20
7.64267
10
-5.329827
20
7.605671
10
-5.322872
20
7.569519
10
-5.315724
20
7.534216
10
-5.3084
20
7.499762
10
-5.300914
20
7.466157
10
-5.293284
20
7.4334
10
-5.285524
20
7.401491
10
-5.277651
20
7.37043
10
-5.269679
20
7.340215
10
-5.261626
20
7.310846
10
-5.253505
20
7.282321
10
-5.245334
20
7.254639
10
-5.237127
20
7.227798
10
-5.2289
20
7.201795
10
-5.220669
20
7.176629
10
-5.212448
20
7.152298
10
-5.204254
20
7.128798
10
-5.196101
20
7.106127
10
-5.188006
20
7.084282
10
-5.179982
20
7.063259
10
-5.172046
20
7.043055
10
-5.164212
20
7.023666
10
-5.156495
20
7.005088
10
-5.148911
20
6.987317
10
-5.141474
20
6.970349
10
-5.134199
20
6.954179
10
-5.127101
20
6.938802
10
-5.120194
20
6.924213
10
-5.113494
20
6.910407
10
-5.107014
20
6.897379
10
-5.100769
20
6.885122
10
-5.094773
20
6.873632
10
-5.089041
20
6.862902
10
-5.083587
20
6.852925
10
-5.078424
20
6.843696
10
-5.073567
20
6.835207
10
-5.06903
20
6.827452
10
-5.064825
20
6.820423
10
-5.060968
20
6.814114
10
-5.057471
20
6.808518
10
-5.054348
20
6.803625
10
-5.051612
20
6.799429
10
-5.049276
20
6.795921
10
-5.047354
20
6.793094
10
-5.045857
20
6.790938
10
-5.0448
20
6.789446
10
-5.024819
20
6.76253
10
-5.415486
20
6.453924
10
-5.437044
20
6.479594
10
-5.438251
20
6.480968
10
-5.440002
20
6.482922
10
-5.442307
20
6.485447
10
-5.445179
20
6.488532
10
-5.448627
20
6.492165
10
-5.452664
20
6.496336
10
-5.457299
20
6.501034
10
-5.462544
20
6.506247
10
-5.468408
20
6.511964
10
-5.474902
20
6.518173
10
-5.482035
20
6.524864
10
-5.489819
20
6.532023
10
-5.498262
20
6.539639
10
-5.507373
20
6.547699
10
-5.517164
20
6.556192
10
-5.527641
20
6.565105
10
-5.538815
20
6.574425
10
-5.550695
20
6.58414
10
-5.563288
20
6.594236
10
-5.576604
20
6.604702
10
-5.590651
20
6.615523
10
-5.605436
20
6.626686
10
-5.620968
20
6.638178
10
-5.637255
20
6.649986
10
-5.654304
20
6.662096
10
-5.672121
20
6.674495
10
-5.690716
20
6.687167
10
-5.710093
20
6.700101
10
-5.730261
20
6.71328
10
-5.751225
20
6.726693
10
-5.772992
20
6.740323
10
-5.795569
20
6.754157
10
-5.81896
20
6.76818
10
-5.843172
20
6.782378
10
-5.86821
20
6.796737
10
-5.89408
20
6.81124
10
-5.920787
20
6.825874
10
-5.948335
20
6.840624
10
-5.97673
20
6.855475
10
-6.005975
20
6.870411
10
-6.036076
20
6.885418
10
-6.067035
20
6.90048
10
-6.098857
20
6.915582
10
-6.131546
20
6.930709
10
-6.165105
20
6.945845
10
-6.199537
20
6.960975
10
-6.234845
20
6.976083
10
-6.271032
20
6.991154
10
-6.308101
20
7.006171
10
-6.346053
20
7.02112
10
-6.365361
20
7.028564
10
-6.375098
20
7.032277
10
-6.379987
20
7.034132
10
-6.382437
20
7.035058
10
-6.383663
20
7.035522
10
-6.383701
20
7.035507
10
-6.64616
20
6.788118
10
-6.646177
20
6.788082
10
-6.645787
20
6.78683
10
-6.645007
20
6.78433
10
-6.643444
20
6.77934
10
-6.640312
20
6.7694
10
-6.634022
20
6.749686
10
-6.621341
20
6.710917
10
-6.608539
20
6.673027
10
-6.595632
20
6.636013
10
-6.582636
20
6.599874
10
-6.569566
20
6.564609
10
-6.556439
20
6.530214
10
-6.543269
20
6.496689
10
-6.530073
20
6.46403
10
-6.516866
20
6.432235
10
-6.503663
20
6.401301
10
-6.490481
20
6.371224
10
-6.477333
20
6.342002
10
-6.464236
20
6.313631
10
-6.451205
20
6.286106
10
-6.438255
20
6.259425
10
-6.4254
20
6.233582
10
-6.412657
20
6.208573
10
-6.40004
20
6.184395
10
-6.387564
20
6.161041
10
-6.375243
20
6.138506
10
-6.363093
20
6.116786
10
-6.351127
20
6.095876
10
-6.339361
20
6.075768
10
-6.327808
20
6.056458
10
-6.316484
20
6.037939
10
-6.305402
20
6.020205
10
-6.294577
20
6.003249
10
-6.284022
20
5.987065
10
-6.273752
20
5.971646
10
-6.263779
20
5.956985
10
-6.254119
20
5.943074
10
-6.244784
20
5.929906
10
-6.235788
20
5.917474
10
-6.227144
20
5.905768
10
-6.218866
20
5.894783
10
-6.210966
20
5.884508
10
-6.203457
20
5.874936
10
-6.196353
20
5.866058
10
-6.189667
20
5.857865
10
-6.183409
20
5.850349
10
-6.177594
20
5.8435
10
-6.172233
20
5.837308
10
-6.167339
20
5.831765
10
-6.162923
20
5.82686
10
-6.158998
20
5.822584
10
-6.155575
20
5.818927
10
-6.152666
20
5.815878
10
-6.150281
20
5.813428
10
-6.148433
20
5.811565
10
-6.147133
20
5.810279
10
-6.122782
20
5.787242
10
-6.453924
20
5.415486
10
-6.479613
20
5.437021
10
-6.48104
20
5.438165
10
-6.483104
20
5.439786
10
-6.485813
20
5.441872
10
-6.489176
20
5.444411
10
-6.493203
20
5.44739
10
-6.497903
20
5.450797
10
-6.503283
20
5.454618
10
-6.509353
20
5.458841
10
-6.516121
20
5.463453
10
-6.523595
20
5.468441
10
-6.531782
20
5.473791
10
-6.54069
20
5.47949
10
-6.550327
20
5.485524
10
-6.5607
20
5.49188
10
-6.571816
20
5.498544
10
-6.583682
20
5.505502
10
-6.596305
20
5.51274
10
-6.609691
20
5.520244
10
-6.623847
20
5.528
10
-6.638777
20
5.535994
10
-6.65449
20
5.544212
10
-6.670989
20
5.552638
10
-6.688281
20
5.561258
10
-6.706371
20
5.570059
10
-6.725263
20
5.579025
10
-6.744963
20
5.58814
10
-6.765475
20
5.597392
10
-6.786804
20
5.606764
10
-6.808954
20
5.616241
10
-6.831929
20
5.625809
10
-6.855732
20
5.635453
10
-6.880368
20
5.645156
10
-6.905839
20
5.654905
10
-6.932149
20
5.664683
10
-6.9593
20
5.674475
10
-6.987295
20
5.684266
10
-7.016138
20
5.69404
10
-7.045829
20
5.703782
10
-7.076371
20
5.713477
10
-7.107765
20
5.723108
10
-7.140014
20
5.732659
10
-7.173119
20
5.742117
10
-7.20708
20
5.751463
10
-7.241899
20
5.760684
10
-7.277577
20
5.769763
10
-7.314113
20
5.778684
10
-7.351508
20
5.787431
10
-7.389762
20
5.795989
10
-7.428875
20
5.804342
10
-7.468847
20
5.812473
10
-7.489154
20
5.816451
10
-7.499388
20
5.818417
10
-7.504525
20
5.819394
10
-7.507098
20
5.819882
10
-7.508387
20
5.820125
10
-7.508421
20
5.820104
10
-7.723935
20
5.530898
10
-7.723945
20
5.530859
10
-7.723343
20
5.529694
10
-7.722141
20
5.527367
10
-7.719735
20
5.522724
10
-7.714925
20
5.51348
10
-7.705307
20
5.495157
10
-7.686086
20
5.45918
10
-7.666899
20
5.424088
10
-7.647761
20
5.389877
10
-7.628687
20
5.356544
10
-7.609692
20
5.324084
10
-7.590792
20
5.292492
10
-7.572
20
5.261763
10
-7.553334
20
5.231892
10
-7.534806
20
5.202873
10
-7.516432
20
5.174701
10
-7.498227
20
5.147371
10
-7.480205
20
5.120876
10
-7.46238
20
5.09521
10
-7.444768
20
5.070366
10
-7.427381
20
5.046339
10
-7.410234
20
5.023121
10
-7.393342
20
5.000705
10
-7.376718
20
4.979085
10
-7.360376
20
4.958252
10
-7.344329
20
4.938199
10
-7.328592
20
4.918919
10
-7.313177
20
4.900404
10
-7.298098
20
4.882645
10
-7.283368
20
4.865634
10
-7.269
20
4.849363
10
-7.255007
20
4.833822
10
-7.241401
20
4.819004
10
-7.228197
20
4.804899
10
-7.215405
20
4.791498
10
-7.203038
20
4.778791
10
-7.191109
20
4.766769
10
-7.179629
20
4.755422
10
-7.168611
20
4.744741
10
-7.158066
20
4.734714
10
-7.148005
20
4.725333
10
-7.138441
20
4.716586
10
-7.129385
20
4.708463
10
-7.120847
20
4.700954
10
-7.112839
20
4.694047
10
-7.105372
20
4.687731
10
-7.098456
20
4.681996
10
-7.092101
20
4.676829
10
-7.086319
20
4.67222
10
-7.081118
20
4.668157
10
-7.07651
20
4.664627
10
-7.072504
20
4.66162
10
-7.069109
20
4.659123
10
-7.066336
20
4.657124
10
-7.064193
20
4.65561
10
-7.062689
20
4.654569
10
-7.034707
20
4.63611
10
-7.296264
20
4.2125
10
-7.325302
20
4.229248
10
-7.326906
20
4.230126
10
-7.32922
20
4.231364
10
-7.33225
20
4.232948
10
-7.336003
20
4.234864
10
-7.340486
20
4.237099
10
-7.345706
20
4.239638
10
-7.351668
20
4.242467
10
-7.35838
20
4.245572
10
-7.365845
20
4.248939
10
-7.374071
20
4.252553
10
-7.383063
20
4.2564
10
-7.392826
20
4.260465
10
-7.403364
20
4.264734
10
-7.414683
20
4.269192
10
-7.426788
20
4.273824
10
-7.439682
20
4.278616
10
-7.45337
20
4.283552
10
-7.467855
20
4.288618
10
-7.483143
20
4.293799
10
-7.499235
20
4.299078
10
-7.516135
20
4.304442
10
-7.533847
20
4.309876
10
-7.552373
20
4.315363
10
-7.571716
20
4.320888
10
-7.591879
20
4.326437
10
-7.612862
20
4.331993
10
-7.634669
20
4.337542
10
-7.657302
20
4.343068
10
-7.680761
20
4.348555
10
-7.705048
20
4.353989
10
-7.730164
20
4.359352
10
-7.756111
20
4.36463
10
-7.782888
20
4.369807
10
-7.810496
20
4.374868
10
-7.838935
20
4.379797
10
-7.868205
20
4.384578
10
-7.898306
20
4.389195
10
-7.929238
20
4.393634
10
-7.960999
20
4.397877
10
-7.99359
20
4.40191
10
-8.027007
20
4.405717
10
-8.061251
20
4.409282
10
-8.09632
20
4.412589
10
-8.132211
20
4.415624
10
-8.168923
20
4.418369
10
-8.206453
20
4.42081
10
-8.244799
20
4.422931
10
-8.283958
20
4.424716
10
-8.323927
20
4.42615
10
-8.364703
20
4.427217
10
-8.385393
20
4.427608
10
-8.395813
20
4.427767
10
-8.401042
20
4.427838
10
-8.403661
20
4.427871
10
-8.404971
20
4.427886
10
-8.405002
20
4.42786
10
-8.567021
20
4.105624
10
-8.567024
20
4.105584
10
-8.56623
20
4.104541
10
-8.564641
20
4.102459
10
-8.561466
20
4.098304
10
-8.555124
20
4.090035
10
-8.54247
20
4.073661
10
-8.517294
20
4.041568
10
-8.492305
20
4.010341
10
-8.467517
20
3.979973
10
-8.442944
20
3.950459
10
-8.418601
20
3.92179
10
-8.394502
20
3.89396
10
-8.37066
20
3.866961
10
-8.34709
20
3.840785
10
-8.323805
20
3.815424
10
-8.300818
20
3.790871
10
-8.278144
20
3.767117
10
-8.255795
20
3.744154
10
-8.233784
20
3.721973
10
-8.212125
20
3.700566
10
-8.19083
20
3.679922
10
-8.169912
20
3.660035
10
-8.149384
20
3.640893
10
-8.129258
20
3.622487
10
-8.109547
20
3.604809
10
-8.090262
20
3.587848
10
-8.071415
20
3.571593
10
-8.053019
20
3.556036
10
-8.035086
20
3.541165
10
-8.017625
20
3.526971
10
-8.00065
20
3.513442
10
-7.984171
20
3.500567
10
-7.9682
20
3.488337
10
-7.952746
20
3.476739
10
-7.937821
20
3.465762
10
-7.923436
20
3.455396
10
-7.9096
20
3.445628
10
-7.896325
20
3.436447
10
-7.883619
20
3.427841
10
-7.871493
20
3.419798
10
-7.859956
20
3.412306
10
-7.849019
20
3.405353
10
-7.83869
20
3.398927
10
-7.828978
20
3.393014
10
-7.819892
20
3.387602
10
-7.811441
20
3.382679
10
-7.803634
20
3.378232
10
-7.796479
20
3.374247
10
-7.789984
20
3.370712
10
-7.784157
20
3.367614
10
-7.779006
20
3.364938
10
-7.774539
20
3.362672
10
-7.770762
20
3.360802
10
-7.767683
20
3.359315
10
-7.76531
20
3.358197
10
-7.763648
20
3.357433
10
-7.732886
20
3.344113
10
-7.91691
20
2.88152
10
-7.948415
20
2.892971
10
-7.950148
20
2.893557
10
-7.952641
20
2.894375
10
-7.9559
20
2.895408
10
-7.959929
20
2.896644
10
-7.964732
20
2.898066
10
-7.970314
20
2.89966
10
-7.976677
20
2.90141
10
-7.983825
20
2.903303
10
-7.991762
20
2.905322
10
-8.000491
20
2.907453
10
-8.010014
20
2.90968
10
-8.020334
20
2.911988
10
-8.031454
20
2.914362
10
-8.043375
20
2.916787
10
-8.0561
20
2.919247
10
-8.06963
20
2.921727
10
-8.083967
20
2.924212
10
-8.099113
20
2.926685
10
-8.115067
20
2.929132
10
-8.131832
20
2.931537
10
-8.149407
20
2.933885
10
-8.167793
20
2.93616
10
-8.186991
20
2.938347
10
-8.206999
20
2.940429
10
-8.227819
20
2.942393
10
-8.249449
20
2.944221
10
-8.271888
20
2.945899
10
-8.295136
20
2.947411
10
-8.319192
20
2.948741
10
-8.344053
20
2.949874
10
-8.369719
20
2.950795
10
-8.396188
20
2.951487
10
-8.423457
20
2.951936
10
-8.451525
20
2.952126
10
-8.480388
20
2.952041
10
-8.510043
20
2.951667
10
-8.540489
20
2.950987
10
-8.571722
20
2.949987
10
-8.603737
20
2.94865
10
-8.636533
20
2.946963
10
-8.670104
20
2.944909
10
-8.704447
20
2.942473
10
-8.739557
20
2.939641
10
-8.775429
20
2.936397
10
-8.81206
20
2.932726
10
-8.849444
20
2.928612
10
-8.887576
20
2.924042
10
-8.92645
20
2.919
10
-8.966061
20
2.913472
10
-9.006403
20
2.907442
10
-9.026846
20
2.904235
10
-9.037135
20
2.902582
10
-9.042297
20
2.901743
10
-9.044882
20
2.901321
10
-9.046175
20
2.901109
10
-9.046201
20
2.901078
10
-9.149803
20
2.555603
10
-9.149799
20
2.555563
10
-9.148835
20
2.554674
10
-9.14691
20
2.552899
10
-9.143061
20
2.549358
10
-9.135379
20
2.542316
10
-9.120075
20
2.528389
10
-9.089708
20
2.501155
10
-9.059676
20
2.474741
10
-9.029991
20
2.44914
10
-9.000667
20
2.424341
10
-8.971715
20
2.400335
10
-8.94315
20
2.377112
10
-8.914982
20
2.354663
10
-8.887224
20
2.332978
10
-8.859889
20
2.312046
10
-8.832988
20
2.291857
10
-8.806533
20
2.272402
10
-8.780536
20
2.253668
10
-8.755008
20
2.235646
10
-8.72996
20
2.218325
10
-8.705404
20
2.201693
10
-8.681351
20
2.18574
10
-8.657811
20
2.170454
10
-8.634795
20
2.155823
10
-8.612313
20
2.141836
10
-8.590376
20
2.128481
10
-8.568993
20
2.115746
10
-8.548175
20
2.10362
10
-8.527931
20
2.092089
10
-8.508272
20
2.081142
10
-8.489205
20
2.070766
10
-8.470741
20
2.060949
10
-8.452888
20
2.051678
10
-8.435655
20
2.042939
10
-8.419051
20
2.034721
10
-8.403084
20
2.027011
10
-8.387763
20
2.019794
10
-8.373094
20
2.013057
10
-8.359087
20
2.006789
10
-8.345749
20
2.000974
10
-8.333087
20
1.995599
10
-8.321108
20
1.990651
10
-8.30982
20
1.986115
10
-8.299228
20
1.981979
10
-8.289341
20
1.978227
10
-8.280164
20
1.974846
10
-8.271703
20
1.971822
10
-8.263965
20
1.96914
10
-8.256955
20
1.966787
10
-8.250678
20
1.964747
10
-8.245141
20
1.963007
10
-8.240348
20
1.961551
10
-8.236304
20
1.960366
10
-8.233014
20
1.959436
10
-8.230482
20
1.958746
10
-8.228713
20
1.958283
10
-8.196106
20
1.950507
10
-8.297005
20
1.462986
10
-8.33002
20
1.468792
10
-8.331828
20
1.469069
10
-8.334425
20
1.469441
10
-8.337814
20
1.469893
10
-8.341997
20
1.47041
10
-8.346974
20
1.470977
10
-8.352747
20
1.471577
10
-8.359318
20
1.472196
10
-8.366686
20
1.472819
10
-8.374853
20
1.473429
10
-8.383819
20
1.474012
10
-8.393584
20
1.474551
10
-8.404149
20
1.475032
10
-8.415512
20
1.475439
10
-8.427673
20
1.475757
10
-8.440632
20
1.47597
10
-8.454387
20
1.476063
10
-8.468938
20
1.47602
10
-8.484282
20
1.475826
10
-8.50042
20
1.475465
10
-8.517347
20
1.474923
10
-8.535063
20
1.474183
10
-8.553565
20
1.473231
10
-8.57285
20
1.472051
10
-8.592917
20
1.470627
10
-8.613761
20
1.468945
10
-8.635379
20
1.46699
10
-8.657769
20
1.464746
10
-8.680927
20
1.462198
10
-8.704848
20
1.459331
10
-8.729529
20
1.456129
10
-8.754965
20
1.452579
10
-8.781151
20
1.448665
10
-8.808084
20
1.444372
10
-8.835758
20
1.439685
10
-8.864168
20
1.434589
10
-8.893308
20
1.429071
10
-8.923173
20
1.423115
10
-8.953758
20
1.416706
10
-8.985055
20
1.409831
10
-9.017059
20
1.402474
10
-9.049764
20
1.394622
10
-9.083162
20
1.386259
10
-9.117246
20
1.377373
10
-9.152011
20
1.367949
10
-9.187448
20
1.357973
10
-9.223549
20
1.34743
10
-9.260308
20
1.336308
10
-9.297716
20
1.324592
10
-9.335765
20
1.31227
10
-9.374447
20
1.299326
10
-9.394023
20
1.292617
10
-9.403869
20
1.289203
10
-9.408806
20
1.287481
10
-9.411279
20
1.286616
10
-9.412516
20
1.286183
10
-9.412535
20
1.286148
10
-9.454573
20
0.927931
10
-9.454562
20
0.927892
10
-9.453459
20
0.927184
10
-9.451254
20
0.92577
10
-9.446849
20
0.922952
10
-9.438061
20
0.917351
10
-9.42057
20
0.906292
10
-9.385936
20
0.884745
10
-9.351773
20
0.863948
10
-9.318094
20
0.84389
10
-9.284909
20
0.82456
10
-9.252229
20
0.805946
10
-9.220064
20
0.788037
10
-9.188426
20
0.77082
10
-9.157325
20
0.754284
10
-9.12677
20
0.738417
10
-9.096772
20
0.723207
10
-9.067341
20
0.70864
10
-9.038485
20
0.694706
10
-9.010216
20
0.681391
10
-8.982541
20
0.668682
10
-8.95547
20
0.656567
10
-8.929012
20
0.645033
10
-8.903175
20
0.634067
10
-8.877967
20
0.623655
10
-8.853398
20
0.613784
10
-8.829475
20
0.604441
10
-8.806206
20
0.595613
10
-8.783599
20
0.587286
10
-8.76166
20
0.579446
10
-8.740398
20
0.572079
10
-8.71982
20
0.565172
10
-8.699931
20
0.55871
10
-8.68074
20
0.552679
10
-8.662251
20
0.547066
10
-8.644473
20
0.541857
10
-8.627409
20
0.537035
10
-8.611067
20
0.532589
10
-8.595452
20
0.528502
10
-8.580569
20
0.524761
10
-8.566424
20
0.52135
10
-8.553021
20
0.518256
10
-8.540365
20
0.515463
10
-8.52846
20
0.512957
10
-8.517312
20
0.510722
10
-8.506923
20
0.508744
10
-8.497298
20
0.507008
10
-8.488441
20
0.505499
10
-8.480354
20
0.504202
10
-8.473042
20
0.503102
10
-8.466507
20
0.502183
10
-8.460751
20
0.501431
10
-8.455778
20
0.500829
10
-8.45159
20
0.500364
10
-8.448188
20
0.500019
10
-8.445575
20
0.49978
10
-8.443753
20
0.499631
10
-8.41029
20
0.497636
10
-8.425
20
0
10
-8.458522
20
-0.000015
10
-8.46035
20
-0.000056
10
-8.462972
20
-0.000141
10
-8.466389
20
-0.000284
10
-8.470597
20
-0.000501
10
-8.475597
20
-0.000808
10
-8.481387
20
-0.001219
10
-8.487965
20
-0.00175
10
-8.49533
20
-0.002417
10
-8.503479
20
-0.003234
10
-8.512409
20
-0.004217
10
-8.52212
20
-0.005381
10
-8.532607
20
-0.006742
10
-8.543868
20
-0.008314
10
-8.5559
20
-0.010113
10
-8.568699
20
-0.012153
10
-8.582262
20
-0.014451
10
-8.596584
20
-0.01702
10
-8.611662
20
-0.019875
10
-8.627491
20
-0.023033
10
-8.644067
20
-0.026506
10
-8.661385
20
-0.030311
10
-8.679441
20
-0.034462
10
-8.698228
20
-0.038973
10
-8.717743
20
-0.043859
10
-8.737978
20
-0.049135
10
-8.758929
20
-0.054815
10
-8.780589
20
-0.060913
10
-8.802952
20
-0.067444
10
-8.826012
20
-0.074421
10
-8.849762
20
-0.081859
10
-8.874195
20
-0.089773
10
-8.899304
20
-0.098175
10
-8.925082
20
-0.10708
10
-8.951522
20
-0.116501
10
-8.978615
20
-0.126452
10
-9.006354
20
-0.136947
10
-9.034732
20
-0.147999
10
-9.063738
20
-0.159621
10
-9.093366
20
-0.171826
10
-9.123607
20
-0.184629
10
-9.154451
20
-0.198041
10
-9.185889
20
-0.212075
10
-9.217913
20
-0.226745
10
-9.250513
20
-0.242063
10
-9.283679
20
-0.258042
10
-9.317402
20
-0.274693
10
-9.351671
20
-0.292029
10
-9.386476
20
-0.310063
10
-9.421807
20
-0.328805
10
-9.457654
20
-0.348269
10
-9.475767
20
-0.358275
10
-9.484871
20
-0.363347
10
-9.489434
20
-0.365901
10
-9.491719
20
-0.367182
10
-9.492862
20
-0.367824
10
-9.492875
20
-0.367861
10
-9.47207
20
-0.727936
10
-9.472052
20
-0.727972
10
-9.470843
20
-0.728478
10
-9.468426
20
-0.729487
10
-9.463599
20
-0.731498
10
-9.453972
20
-0.735488
10
-9.434827
20
-0.743341
10
-9.396977
20
-0.758547
10
-9.359722
20
-0.773096
10
-9.323071
20
-0.787
10
-9.287034
20
-0.800274
10
-9.251618
20
-0.812931
10
-9.216832
20
-0.824983
10
-9.182685
20
-0.836444
10
-9.149184
20
-0.847328
10
-9.116339
20
-0.857648
10
-9.084155
20
-0.867418
10
-9.052641
20
-0.876653
10
-9.021805
20
-0.885365
10
-8.991653
20
-0.893569
10
-8.962191
20
-0.901279
10
-8.933428
20
-0.908509
10
-8.905369
20
-0.915273
10
-8.87802
20
-0.921586
10
-8.851388
20
-0.927463
10
-8.825478
20
-0.932917
10
-8.800296
20
-0.937964
10
-8.775847
20
-0.942617
10
-8.752137
20
-0.946892
10
-8.729171
20
-0.950804
10
-8.706953
20
-0.954367
10
-8.685487
20
-0.957596
10
-8.664779
20
-0.960506
10
-8.644832
20
-0.963112
10
-8.625649
20
-0.965429
10
-8.607236
20
-0.967472
10
-8.589595
20
-0.969257
10
-8.572729
20
-0.970799
10
-8.556641
20
-0.972112
10
-8.541335
20
-0.973212
10
-8.526812
20
-0.974114
10
-8.513075
20
-0.974834
10
-8.500126
20
-0.975387
10
-8.487968
20
-0.975788
10
-8.4766
20
-0.976053
10
-8.466026
20
-0.976196
10
-8.456246
20
-0.976235
10
-8.447261
20
-0.976182
10
-8.439073
20
-0.976056
10
-8.43168
20
-0.97587
10
-8.425085
20
-0.97564
10
-8.419286
20
-0.975381
10
-8.414284
20
-0.97511
10
-8.410079
20
-0.974841
10
-8.406669
20
-0.974589
10
-8.404054
20
-0.974371
10
-8.402233
20
-0.974202
10
-8.368933
20
-0.970356
10
-8.297005
20
-1.462986
10
-8.330015
20
-1.468822
10
-8.331808
20
-1.46918
10
-8.334376
20
-1.469719
10
-8.337716
20
-1.470453
10
-8.341823
20
-1.471397
10
-8.346693
20
-1.472567
10
-8.352324
20
-1.473978
10
-8.35871
20
-1.475643
10
-8.365847
20
-1.477578
10
-8.37373
20
-1.479798
10
-8.382355
20
-1.482317
10
-8.391715
20
-1.48515
10
-8.401807
20
-1.488311
10
-8.412624
20
-1.491815
10
-8.424161
20
-1.495676
10
-8.436411
20
-1.499908
10
-8.449368
20
-1.504525
10
-8.463027
20
-1.509542
10
-8.47738
20
-1.514973
10
-8.49242
20
-1.520831
10
-8.508142
20
-1.52713
10
-8.524536
20
-1.533884
10
-8.541596
20
-1.541107
10
-8.559315
20
-1.548812
10
-8.577685
20
-1.557013
10
-8.596696
20
-1.565722
10
-8.616343
20
-1.574954
10
-8.636615
20
-1.584721
10
-8.657504
20
-1.595035
10
-8.679002
20
-1.605911
10
-8.701099
20
-1.617361
10
-8.723787
20
-1.629397
10
-8.747056
20
-1.642031
10
-8.770896
20
-1.655277
10
-8.795298
20
-1.669146
10
-8.820252
20
-1.683651
10
-8.845747
20
-1.698803
10
-8.871774
20
-1.714615
10
-8.898322
20
-1.731097
10
-8.92538
20
-1.748262
10
-8.952938
20
-1.766122
10
-8.980985
20
-1.784686
10
-9.009509
20
-1.803967
10
-9.038499
20
-1.823974
10
-9.067943
20
-1.844721
10
-9.097831
20
-1.866215
10
-9.12815
20
-1.888469
10
-9.158888
20
-1.911493
10
-9.190033
20
-1.935297
10
-9.221573
20
-1.95989
10
-9.253495
20
-1.985283
10
-9.269595
20
-1.998282
10
-9.27768
20
-2.004858
10
-9.28173
20
-2.008165
10
-9.283758
20
-2.009823
10
-9.284772
20
-2.010654
10
-9.284779
20
-2.010693
10
-9.201763
20
-2.361685
10
-9.20174
20
-2.361717
10
-9.200461
20
-2.362005
10
-9.197905
20
-2.36258
10
-9.192802
20
-2.363722
10
-9.182629
20
-2.365979
10
-9.162411
20
-2.370389
10
-9.122495
20
-2.378791
10
-9.08328
20
-2.386649
10
-9.044772
20
-2.393978
10
-9.006977
20
-2.400793
10
-8.969901
20
-2.407107
10
-8.933551
20
-2.412935
10
-8.897932
20
-2.418293
10
-8.863051
20
-2.423194
10
-8.828912
20
-2.427654
10
-8.795521
20
-2.431687
10
-8.762882
20
-2.435309
10
-8.731001
20
-2.438534
10
-8.699883
20
-2.441377
10
-8.66953
20
-2.443854
10
-8.639948
20
-2.44598
10
-8.611141
20
-2.447769
10
-8.583111
20
-2.449237
10
-8.555863
20
-2.4504
10
-8.5294
20
-2.451272
10
-8.503724
20
-2.451869
10
-8.478839
20
-2.452207
10
-8.454747
20
-2.452299
10
-8.43145
20
-2.452164
10
-8.40895
20
-2.451814
10
-8.38725
20
-2.451266
10
-8.366351
20
-2.450536
10
-8.346255
20
-2.449639
10
-8.326961
20
-2.44859
10
-8.308473
20
-2.447405
10
-8.29079
20
-2.4461
10
-8.273912
20
-2.444689
10
-8.257841
20
-2.443188
10
-8.242576
20
-2.441614
10
-8.228117
20
-2.439981
10
-8.214464
20
-2.438304
10
-8.201616
20
-2.4366
10
-8.189572
20
-2.434884
10
-8.178332
20
-2.43317
10
-8.167893
20
-2.431476
10
-8.158255
20
-2.429815
10
-8.149416
20
-2.428204
10
-8.141374
20
-2.426657
10
-8.134126
20
-2.42519
10
-8.127671
20
-2.423818
10
-8.122005
20
-2.422557
10
-8.117126
20
-2.421421
10
-8.113031
20
-2.420425
10
-8.109717
20
-2.419586
10
-8.10718
20
-2.418917
10
-8.105416
20
-2.418434
10
-8.073289
20
-2.408864
10
-7.91691
20
-2.88152
10
-7.948405
20
-2.892999
10
-7.950109
20
-2.893663
10
-7.952545
20
-2.89464
10
-7.955706
20
-2.895942
10
-7.959586
20
-2.897586
10
-7.96418
20
-2.899584
10
-7.96948
20
-2.901951
10
-7.97548
20
-2.9047
10
-7.982172
20
-2.907845
10
-7.98955
20
-2.9114
10
-7.997606
20
-2.915378
10
-8.006333
20
-2.919793
10
-8.015722
20
-2.924659
10
-8.025767
20
-2.929988
10
-8.036457
20
-2.935793
10
-8.047787
20
-2.942088
10
-8.059745
20
-2.948885
10
-8.072325
20
-2.956198
10
-8.085517
20
-2.964039
10
-8.099312
20
-2.972419
10
-8.1137
20
-2.981353
10
-8.128673
20
-2.990851
10
-8.14422
20
-3.000927
10
-8.160332
20
-3.011592
10
-8.176998
20
-3.022858
10
-8.194208
20
-3.034736
10
-8.211953
20
-3.047239
10
-8.230221
20
-3.060378
10
-8.249002
20
-3.074163
10
-8.268285
20
-3.088607
10
-8.288058
20
-3.103719
10
-8.308311
20
-3.119512
10
-8.329033
20
-3.135995
10
-8.350211
20
-3.15318
10
-8.371833
20
-3.171076
10
-8.393889
20
-3.189693
10
-8.416366
20
-3.209042
10
-8.439252
20
-3.229133
10
-8.462535
20
-3.249976
10
-8.486201
20
-3.271578
10
-8.510239
20
-3.293952
10
-8.534636
20
-3.317104
10
-8.559378
20
-3.341045
10
-8.584454
20
-3.365783
10
-8.609848
20
-3.391327
10
-8.635549
20
-3.417685
10
-8.661543
20
-3.444866
10
-8.687816
20
-3.472877
10
-8.714355
20
-3.501727
10
-8.741145
20
-3.531424
10
-8.768173
20
-3.561974
10
-8.781771
20
-3.577572
10
-8.788591
20
-3.585452
10
-8.792006
20
-3.589412
10
-8.793715
20
-3.591397
10
-8.794569
20
-3.592391
10
-8.794569
20
-3.592431
10
-8.651865
20
-3.923675
10
-8.651837
20
-3.923703
10
-8.650527
20
-3.923764
10
-8.647911
20
-3.923886
10
-8.642687
20
-3.924125
10
-8.632276
20
-3.924581
10
-8.611599
20
-3.925413
10
-8.570832
20
-3.926756
10
-8.530847
20
-3.927686
10
-8.491651
20
-3.928217
10
-8.453247
20
-3.928364
10
-8.415638
20
-3.928145
10
-8.378828
20
-3.927572
10
-8.34282
20
-3.926663
10
-8.307618
20
-3.925433
10
-8.273223
20
-3.923897
10
-8.239639
20
-3.922071
10
-8.206867
20
-3.91997
10
-8.174911
20
-3.91761
10
-8.143771
20
-3.915006
10
-8.11345
20
-3.912175
10
-8.083948
20
-3.909131
10
-8.055267
20
-3.905891
10
-8.027409
20
-3.90247
10
-8.000373
20
-3.898883
10
-7.97416
20
-3.895146
10
-7.948771
20
-3.891276
10
-7.924205
20
-3.887287
10
-7.900463
20
-3.883195
10
-7.877543
20
-3.879016
10
-7.855447
20
-3.874764
10
-7.834171
20
-3.870457
10
-7.813716
20
-3.866109
10
-7.794081
20
-3.861735
10
-7.775263
20
-3.857352
10
-7.757261
20
-3.852975
10
-7.740073
20
-3.848618
10
-7.723697
20
-3.844298
10
-7.708131
20
-3.84003
10
-7.693371
20
-3.835829
10
-7.679416
20
-3.831709
10
-7.666261
20
-3.827688
10
-7.653904
20
-3.823778
10
-7.642341
20
-3.819997
10
-7.631569
20
-3.816358
10
-7.621583
20
-3.812876
10
-7.61238
20
-3.809567
10
-7.603955
20
-3.806445
10
-7.596304
20
-3.803525
10
-7.589421
20
-3.800822
10
-7.583302
20
-3.79835
10
-7.577941
20
-3.796124
10
-7.573333
20
-3.794158
10
-7.569474
20
-3.792467
10
-7.566355
20
-3.791065
10
-7.563973
20
-3.789965
10
-7.56232
20
-3.789183
10
-7.532343
20
-3.77418
10
-7.296264
20
-4.2125
10
-7.325287
20
-4.229274
10
-7.32685
20
-4.230224
10
-7.329079
20
-4.231608
10
-7.331965
20
-4.23344
10
-7.335502
20
-4.235733
10
-7.339678
20
-4.238498
10
-7.344487
20
-4.241749
10
-7.349918
20
-4.245498
10
-7.355963
20
-4.249758
10
-7.362611
20
-4.25454
10
-7.369854
20
-4.259857
10
-7.377682
20
-4.26572
10
-7.386084
20
-4.272142
10
-7.39505
20
-4.279134
10
-7.40457
20
-4.286708
10
-7.414634
20
-4.294875
10
-7.425231
20
-4.303645
10
-7.43635
20
-4.313031
10
-7.44798
20
-4.323043
10
-7.46011
20
-4.333692
10
-7.472729
20
-4.344989
10
-7.485824
20
-4.356943
10
-7.499385
20
-4.369565
10
-7.5134
20
-4.382866
10
-7.527857
20
-4.396855
10
-7.542744
20
-4.411541
10
-7.558048
20
-4.426935
10
-7.573757
20
-4.443046
10
-7.589858
20
-4.459884
10
-7.60634
20
-4.477456
10
-7.623189
20
-4.495773
10
-7.640392
20
-4.514843
10
-7.657936
20
-4.534674
10
-7.675808
20
-4.555275
10
-7.693995
20
-4.576653
10
-7.712483
20
-4.598818
10
-7.731258
20
-4.621777
10
-7.750308
20
-4.645536
10
-7.769617
20
-4.670105
10
-7.789173
20
-4.695489
10
-7.808961
20
-4.721697
10
-7.828966
20
-4.748734
10
-7.849176
20
-4.776607
10
-7.869574
20
-4.805324
10
-7.890148
20
-4.834889
10
-7.910881
20
-4.86531
10
-7.93176
20
-4.896592
10
-7.95277
20
-4.92874
10
-7.973896
20
-4.96176
10
-7.995122
20
-4.995658
10
-8.016434
20
-5.030437
10
-8.027118
20
-5.048159
10
-8.032465
20
-5.057104
10
-8.035141
20
-5.061597
10
-8.036479
20
-5.063848
10
-8.037148
20
-5.064975
10
-8.03714
20
-5.065015
10
-7.839085
20
-5.366446
10
-7.839052
20
-5.366469
10
-7.837752
20
-5.366302
10
-7.835154
20
-5.365968
10
-7.829968
20
-5.365295
10
-7.819636
20
-5.363937
10
-7.799129
20
-5.361166
10
-7.758747
20
-5.355409
10
-7.719209
20
-5.349381
10
-7.680516
20
-5.343098
10
-7.64267
20
-5.336575
10
-7.605671
20
-5.329827
10
-7.569519
20
-5.322872
10
-7.534216
20
-5.315724
10
-7.499762
20
-5.3084
10
-7.466157
20
-5.300914
10
-7.4334
20
-5.293284
10
-7.401491
20
-5.285524
10
-7.37043
20
-5.277651
10
-7.340215
20
-5.269679
10
-7.310846
20
-5.261626
10
-7.282321
20
-5.253505
10
-7.254639
20
-5.245334
10
-7.227798
20
-5.237127
10
-7.201795
20
-5.2289
10
-7.176629
20
-5.220669
10
-7.152298
20
-5.212448
10
-7.128798
20
-5.204254
10
-7.106127
20
-5.196101
10
-7.084282
20
-5.188006
10
-7.063259
20
-5.179982
10
-7.043055
20
-5.172046
10
-7.023666
20
-5.164212
10
-7.005088
20
-5.156495
10
-6.987317
20
-5.148911
10
-6.970349
20
-5.141474
10
-6.954179
20
-5.134199
10
-6.938802
20
-5.127101
10
-6.924213
20
-5.120194
10
-6.910407
20
-5.113494
10
-6.897379
20
-5.107014
10
-6.885122
20
-5.100769
10
-6.873632
20
-5.094773
10
-6.862902
20
-5.089041
10
-6.852925
20
-5.083587
10
-6.843696
20
-5.078424
10
-6.835207
20
-5.073567
10
-6.827452
20
-5.06903
10
-6.820423
20
-5.064825
10
-6.814114
20
-5.060968
10
-6.808518
20
-5.057471
10
-6.803625
20
-5.054348
10
-6.799429
20
-5.051612
10
-6.795921
20
-5.049276
10
-6.793094
20
-5.047354
10
-6.790938
20
-5.045857
10
-6.789446
20
-5.0448
10
-6.76253
20
-5.024819
10
-6.453924
20
-5.415486
10
-6.479594
20
-5.437044
10
-6.480968
20
-5.438251
10
-6.482922
20
-5.440002
10
-6.485447
20
-5.442307
10
-6.488532
20
-5.445179
10
-6.492165
20
-5.448627
10
-6.496336
20
-5.452664
10
-6.501034
20
-5.457299
10
-6.506247
20
-5.462544
10
-6.511964
20
-5.468408
10
-6.518173
20
-5.474902
10
-6.524864
20
-5.482035
10
-6.532023
20
-5.489819
10
-6.539639
20
-5.498262
10
-6.547699
20
-5.507373
10
-6.556192
20
-5.517164
10
-6.565105
20
-5.527641
10
-6.574425
20
-5.538815
10
-6.58414
20
-5.550695
10
-6.594236
20
-5.563288
10
-6.604702
20
-5.576604
10
-6.615523
20
-5.590651
10
-6.626686
20
-5.605436
10
-6.638178
20
-5.620968
10
-6.649986
20
-5.637255
10
-6.662096
20
-5.654304
10
-6.674495
20
-5.672121
10
-6.687167
20
-5.690716
10
-6.700101
20
-5.710093
10
-6.71328
20
-5.730261
10
-6.726693
20
-5.751225
10
-6.740323
20
-5.772992
10
-6.754157
20
-5.795569
10
-6.76818
20
-5.81896
10
-6.782378
20
-5.843172
10
-6.796737
20
-5.86821
10
-6.81124
20
-5.89408
10
-6.825874
20
-5.920787
10
-6.840624
20
-5.948335
10
-6.855475
20
-5.97673
10
-6.870411
20
-6.005975
10
-6.885418
20
-6.036076
10
-6.90048
20
-6.067035
10
-6.915582
20
-6.098857
10
-6.930709
20
-6.131546
10
-6.945845
20
-6.165105
10
-6.960975
20
-6.199537
10
-6.976083
20
-6.234845
10
-6.991154
20
-6.271032
10
-7.006171
20
-6.308101
10
-7.02112
20
-6.346053
10
-7.028564
20
-6.365361
10
-7.032277
20
-6.375098
10
-7.034132
20
-6.379987
10
-7.035058
20
-6.382437
10
-7.035522
20
-6.383663
10
-7.035507
20
-6.383701
10
-6.788118
20
-6.64616
10
-6.788082
20
-6.646177
10
-6.78683
20
-6.645787
10
-6.78433
20
-6.645007
10
-6.77934
20
-6.643444
10
-6.7694
20
-6.640312
10
-6.749686
20
-6.634022
10
-6.710917
20
-6.621341
10
-6.673027
20
-6.608539
10
-6.636013
20
-6.595632
10
-6.599874
20
-6.582636
10
-6.564609
20
-6.569566
10
-6.530214
20
-6.556439
10
-6.496689
20
-6.543269
10
-6.46403
20
-6.530073
10
-6.432235
20
-6.516866
10
-6.401301
20
-6.503663
10
-6.371224
20
-6.490481
10
-6.342002
20
-6.477333
10
-6.313631
20
-6.464236
10
-6.286106
20
-6.451205
10
-6.259425
20
-6.438255
10
-6.233582
20
-6.4254
10
-6.208573
20
-6.412657
10
-6.184395
20
-6.40004
10
-6.161041
20
-6.387564
10
-6.138506
20
-6.375243
10
-6.116786
20
-6.363093
10
-6.095876
20
-6.351127
10
-6.075768
20
-6.339361
10
-6.056458
20
-6.327808
10
-6.037939
20
-6.316484
10
-6.020205
20
-6.305402
10
-6.003249
20
-6.294577
10
-5.987065
20
-6.284022
10
-5.971646
20
-6.273752
10
-5.956985
20
-6.263779
10
-5.943074
20
-6.254119
10
-5.929906
20
-6.244784
10
-5.917474
20
-6.235788
10
-5.905768
20
-6.227144
10
-5.894783
20
-6.218866
10
-5.884508
20
-6.210966
10
-5.874936
20
-6.203457
10
-5.866058
20
-6.196353
10
-5.857865
20
-6.189667
10
-5.850349
20
-6.183409
10
-5.8435
20
-6.177594
10
-5.837308
20
-6.172233
10
-5.831765
20
-6.167339
10
-5.82686
20
-6.162923
10
-5.822584
20
-6.158998
10
-5.818927
20
-6.155575
10
-5.815878
20
-6.152666
10
-5.813428
20
-6.150281
10
-5.811565
20
-6.148433
10
-5.810279
20
-6.147133
10
-5.787242
20
-6.122782
10
-5.415486
20
-6.453924
10
-5.437021
20
-6.479613
10
-5.438165
20
-6.48104
10
-5.439786
20
-6.483104
10
-5.441872
20
-6.485813
10
-5.444411
20
-6.489176
10
-5.44739
20
-6.493203
10
-5.450797
20
-6.497903
10
-5.454618
20
-6.503283
10
-5.458841
20
-6.509353
10
-5.463453
20
-6.516121
10
-5.468441
20
-6.523595
10
-5.473791
20
-6.531782
10
-5.47949
20
-6.54069
10
-5.485524
20
-6.550327
10
-5.49188
20
-6.5607
10
-5.498544
20
-6.571816
10
-5.505502
20
-6.583682
10
-5.51274
20
-6.596305
10
-5.520244
20
-6.609691
10
-5.528
20
-6.623847
10
-5.535994
20
-6.638777
10
-5.544212
20
-6.65449
10
-5.552638
20
-6.670989
10
-5.561258
20
-6.688281
10
-5.570059
20
-6.706371
10
-5.579025
20
-6.725263
10
-5.58814
20
-6.744963
10
-5.597392
20
-6.765475
10
-5.606764
20
-6.786804
10
-5.616241
20
-6.808954
10
-5.625809
20
-6.831929
10
-5.635453
20
-6.855732
10
-5.645156
20
-6.880368
10
-5.654905
20
-6.905839
10
-5.664683
20
-6.932149
10
-5.674475
20
-6.9593
10
-5.684266
20
-6.987295
10
-5.69404
20
-7.016138
10
-5.703782
20
-7.045829
10
-5.713477
20
-7.076371
10
-5.723108
20
-7.107765
10
-5.732659
20
-7.140014
10
-5.742117
20
-7.173119
10
-5.751463
20
-7.20708
10
-5.760684
20
-7.241899
10
-5.769763
20
-7.277577
10
-5.778684
20
-7.314113
10
-5.787431
20
-7.351508
10
-5.795989
20
-7.389762
10
-5.804342
20
-7.428875
10
-5.812473
20
-7.468847
10
-5.816451
20
-7.489154
10
-5.818417
20
-7.499388
10
-5.819394
20
-7.504525
10
-5.819882
20
-7.507098
10
-5.820125
20
-7.508387
10
-5.820104
20
-7.508421
10
-5.530898
20
-7.723935
10
-5.530859
20
-7.723945
10
-5.529694
20
-7.723343
10
-5.527367
20
-7.722141
10
-5.522724
20
-7.719735
10
-5.51348
20
-7.714925
10
-5.495157
20
-7.705307
10
-5.45918
20
-7.686086
10
-5.424088
20
-7.666899
10
-5.389877
20
-7.647761
10
-5.356544
20
-7.628687
10
-5.324084
20
-7.609692
10
-5.292492
20
-7.590792
10
-5.261763
20
-7.572
10
-5.231892
20
-7.553334
10
-5.202873
20
-7.534806
10
-5.174701
20
-7.516432
10
-5.147371
20
-7.498227
10
-5.120876
20
-7.480205
10
-5.09521
20
-7.46238
10
-5.070366
20
-7.444768
10
-5.046339
20
-7.427381
10
-5.023121
20
-7.410234
10
-5.000705
20
-7.393342
10
-4.979085
20
-7.376718
10
-4.958252
20
-7.360376
10
-4.938199
20
-7.344329
10
-4.918919
20
-7.328592
10
-4.900404
20
-7.313177
10
-4.882645
20
-7.298098
10
-4.865634
20
-7.283368
10
-4.849363
20
-7.269
10
-4.833822
20
-7.255007
10
-4.819004
20
-7.241401
10
-4.804899
20
-7.228197
10
-4.791498
20
-7.215405
10
-4.778791
20
-7.203038
10
-4.766769
20
-7.191109
10
-4.755422
20
-7.179629
10
-4.744741
20
-7.168611
10
-4.734714
20
-7.158066
10
-4.725333
20
-7.148005
10
-4.716586
20
-7.138441
10
-4.708463
20
-7.129385
10
-4.700954
20
-7.120847
10
-4.694047
20
-7.112839
10
-4.687731
20
-7.105372
10
-4.681996
20
-7.098456
10
-4.676829
20
-7.092101
10
-4.67222
20
-7.086319
10
-4.668157
20
-7.081118
10
-4.664627
20
-7.07651
10
-4.66162
20
-7.072504
10
-4.659123
20
-7.069109
10
-4.657124
20
-7.066336
10
-4.65561
20
-7.064193
10
-4.654569
20
-7.062689
10
-4.63611
20
-7.034707
10
-4.2125
20
-7.296264
10
-4.229248
20
-7.325302
10
-4.230126
20
-7.326906
10
-4.231364
20
-7.32922
10
-4.232948
20
-7.33225
10
-4.234864
20
-7.336003
10
-4.237099
20
-7.340486
10
-4.239638
20
-7.345706
10
-4.242467
20
-7.351668
10
-4.245572
20
-7.35838
10
-4.248939
20
-7.365845
10
-4.252553
20
-7.374071
10
-4.2564
20
-7.383063
10
-4.260465
20
-7.392826
10
-4.264734
20
-7.403364
10
-4.269192
20
-7.414683
10
-4.273824
20
-7.426788
10
-4.278616
20
-7.439682
10
-4.283552
20
-7.45337
10
-4.288618
20
-7.467855
10
-4.293799
20
-7.483143
10
-4.299078
20
-7.499235
10
-4.304442
20
-7.516135
10
-4.309876
20
-7.533847
10
-4.315363
20
-7.552373
10
-4.320888
20
-7.571716
10
-4.326437
20
-7.591879
10
-4.331993
20
-7.612862
10
-4.337542
20
-7.634669
10
-4.343068
20
-7.657302
10
-4.348555
20
-7.680761
10
-4.353989
20
-7.705048
10
-4.359352
20
-7.730164
10
-4.36463
20
-7.756111
10
-4.369807
20
-7.782888
10
-4.374868
20
-7.810496
10
-4.379797
20
-7.838935
10
-4.384578
20
-7.868205
10
-4.389195
20
-7.898306
10
-4.393634
20
-7.929238
10
-4.397877
20
-7.960999
10
-4.40191
20
-7.99359
10
-4.405717
20
-8.027007
10
-4.409282
20
-8.061251
10
-4.412589
20
-8.09632
10
-4.415624
20
-8.132211
10
-4.418369
20
-8.168923
10
-4.42081
20
-8.206453
10
-4.422931
20
-8.244799
10
-4.424716
20
-8.283958
10
-4.42615
20
-8.323927
10
-4.427217
20
-8.364703
10
-4.427608
20
-8.385393
10
-4.427767
20
-8.395813
10
-4.427838
20
-8.401042
10
-4.427871
20
-8.403661
10
-4.427886
20
-8.404971
10
-4.42786
20
-8.405002
10
-4.105624
20
-8.567021
10
-4.105584
20
-8.567024
10
-4.104541
20
-8.56623
10
-4.102459
20
-8.564641
10
-4.098304
20
-8.561466
10
-4.090035
20
-8.555124
10
-4.073661
20
-8.54247
10
-4.041568
20
-8.517294
10
-4.010341
20
-8.492305
10
-3.979973
20
-8.467517
10
-3.950459
20
-8.442944
10
-3.92179
20
-8.418601
10
-3.89396
20
-8.394502
10
-3.866961
20
-8.37066
10
-3.840785
20
-8.34709
10
-3.815424
20
-8.323805
10
-3.790871
20
-8.300818
10
-3.767117
20
-8.278144
10
-3.744154
20
-8.255795
10
-3.721973
20
-8.233784
10
-3.700566
20
-8.212125
10
-3.679922
20
-8.19083
10
-3.660035
20
-8.169912
10
-3.640893
20
-8.149384
10
-3.622487
20
-8.129258
10
-3.604809
20
-8.109547
10
-3.587848
20
-8.090262
10
-3.571593
20
-8.071415
10
-3.556036
20
-8.053019
10
-3.541165
20
-8.035086
10
-3.526971
20
-8.017625
10
-3.513442
20
-8.00065
10
-3.500567
20
-7.984171
10
-3.488337
20
-7.9682
10
-3.476739
20
-7.952746
10
-3.465762
20
-7.937821
10
-3.455396
20
-7.923436
10
-3.445628
20
-7.9096
10
-3.436447
20
-7.896325
10
-3.427841
20
-7.883619
10
-3.419798
20
-7.871493
10
-3.412306
20
-7.859956
10
-3.405353
20
-7.849019
10
-3.398927
20
-7.83869
10
-3.393014
20
-7.828978
10
-3.387602
20
-7.819892
10
-3.382679
20
-7.811441
10
-3.378232
20
-7.803634
10
-3.374247
20
-7.796479
10
-3.370712
20
-7.789984
10
-3.367614
20
-7.784157
10
-3.364938
20
-7.779006
10
-3.362672
20
-7.774539
10
-3.360802
20
-7.770762
10
-3.359315
20
-7.767683
10
-3.358197
20
-7.76531
10
-3.357433
20
-7.763648
10
-3.344113
20
-7.732886
10
-2.88152
20
-7.91691
10
-2.892971
20
-7.948415
10
-2.893557
20
-7.950148
10
-2.894375
20
-7.952641
10
-2.895408
20
-7.9559
10
-2.896644
20
-7.959929
10
-2.898066
20
-7.964732
10
-2.89966
20
-7.970314
10
-2.90141
20
-7.976677
10
-2.903303
20
-7.983825
10
-2.905322
20
-7.991762
10
-2.907453
20
-8.000491
10
-2.90968
20
-8.010014
10
-2.911988
20
-8.020334
10
-2.914362
20
-8.031454
10
-2.916787
20
-8.043375
10
-2.919247
20
-8.0561
10
-2.921727
20
-8.06963
10
-2.924212
20
-8.083967
10
-2.926685
20
-8.099113
10
-2.929132
20
-8.115067
10
-2.931537
20
-8.131832
10
-2.933885
20
-8.149407
10
-2.93616
20
-8.167793
10
-2.938347
20
-8.186991
10
-2.940429
20
-8.206999
10
-2.942393
20
-8.227819
10
-2.944221
20
-8.249449
10
-2.945899
20
-8.271888
10
-2.947411
20
-8.295136
10
-2.948741
20
-8.319192
10
-2.949874
20
-8.344053
10
-2.950795
20
-8.369719
10
-2.951487
20
-8.396188
10
-2.951936
20
-8.423457
10
-2.952126
20
-8.451525
10
-2.952041
20
-8.480388
10
-2.951667
20
-8.510043
10
-2.950987
20
-8.540489
10
-2.949987
20
-8.571722
10
-2.94865
20
-8.603737
10
-2.946963
20
-8.636533
10
-2.944909
20
-8.670104
10
-2.942473
20
-8.704447
10
-2.939641
20
-8.739557
10
-2.936397
20
-8.775429
10
-2.932726
20
-8.81206
10
-2.928612
20
-8.849444
10
-2.924042
20
-8.887576
10
-2.919
20
-8.92645
10
-2.913472
20
-8.966061
10
-2.907442
20
-9.006403
10
-2.904235
20
-9.026846
10
-2.902582
20
-9.037135
10
-2.901743
20
-9.042297
10
-2.901321
20
-9.044882
10
-2.901109
20
-9.046175
10
-2.901078
20
-9.046201
10
-2.555603
20
-9.149803
10
-2.555563
20
-9.149799
10
-2.554674
20
-9.148835
10
-2.552899
20
-9.14691
10
-2.549358
20
-9.143061
10
-2.542316
20
-9.135379
10
-2.528389
20
-9.120075
10
-2.501155
20
-9.089708
10
-2.474741
20
-9.059676
10
-2.44914
20
-9.029991
10
-2.424341
20
-9.000667
10
-2.400335
20
-8.971715
10
-2.377112
20
-8.94315
10
-2.354663
20
-8.914982
10
-2.332978
20
-8.887224
10
-2.312046
20
-8.859889
10
-2.291857
20
-8.832988
10
-2.272402
20
-8.806533
10
-2.253668
20
-8.780536
10
-2.235646
20
-8.755008
10
-2.218325
20
-8.72996
10
-2.201693
20
-8.705404
10
-2.18574
20
-8.681351
10
-2.170454
20
-8.657811
10
-2.155823
20
-8.634795
10
-2.141836
20
-8.612313
10
-2.128481
20
-8.590376
10
-2.115746
20
-8.568993
10
-2.10362
20
-8.548175
10
-2.092089
20
-8.527931
10
-2.081142
20
-8.508272
10
-2.070766
20
-8.489205
10
-2.060949
20
-8.470741
10
-2.051678
20
-8.452888
10
-2.042939
20
-8.435655
10
-2.034721
20
-8.419051
10
-2.027011
20
-8.403084
10
-2.019794
20
-8.387763
10
-2.013057
20
-8.373094
10
-2.006789
20
-8.359087
10
-2.000974
20
-8.345749
10
-1.995599
20
-8.333087
10
-1.990651
20
-8.321108
10
-1.986115
20
-8.30982
10
-1.981979
20
-8.299228
10
-1.978227
20
-8.289341
10
-1.974846
20
-8.280164
10
-1.971822
20
-8.271703
10
-1.96914
20
-8.263965
10
-1.966787
20
-8.256955
10
-1.964747
20
-8.250678
10
-1.963007
20
-8.245141
10
-1.961551
20
-8.240348
10
-1.960366
20
-8.236304
10
-1.959436
20
-8.233014
10
-1.958746
20
-8.230482
10
-1.958283
20
-8.228713
10
-1.950507
20
-8.196106
10
-1.462986
20
-8.297005
10
-1.468792
20
-8.33002
10
-1.469069
20
-8.331828
10
-1.469441
20
-8.334425
10
-1.469893
20
-8.337814
10
-1.47041
20
-8.341997
10
-1.470977
20
-8.346974
10
-1.471577
20
-8.352747
10
-1.472196
20
-8.359318
10
-1.472819
20
-8.366686
10
-1.473429
20
-8.374853
10
-1.474012
20
-8.383819
10
-1.474551
20
-8.393584
10
-1.475032
20
-8.404149
10
-1.475439
20
-8.415512
10
-1.475757
20
-8.427673
10
-1.47597
20
-8.440632
10
-1.476063
20
-8.454387
10
-1.47602
20
-8.468938
10
-1.475826
20
-8.484282
10
-1.475465
20
-8.50042
10
-1.474923
20
-8.517347
10
-1.474183
20
-8.535063
10
-1.473231
20
-8.553565
10
-1.472051
20
-8.57285
10
-1.470627
20
-8.592917
10
-1.468945
20
-8.613761
10
-1.46699
20
-8.635379
10
-1.464746
20
-8.657769
10
-1.462198
20
-8.680927
10
-1.459331
20
-8.704848
10
-1.456129
20
-8.729529
10
-1.452579
20
-8.754965
10
-1.448665
20
-8.781151
10
-1.444372
20
-8.808084
10
-1.439685
20
-8.835758
10
-1.434589
20
-8.864168
10
-1.429071
20
-8.893308
10
-1.423115
20
-8.923173
10
-1.416706
20
-8.953758
10
-1.409831
20
-8.985055
10
-1.402474
20
-9.017059
10
-1.394622
20
-9.049764
10
-1.386259
20
-9.083162
10
-1.377373
20
-9.117246
10
-1.367949
20
-9.152011
10
-1.357973
20
-9.187448
10
-1.34743
20
-9.223549
10
-1.336308
20
-9.260308
10
-1.324592
20
-9.297716
10
-1.31227
20
-9.335765
10
-1.299326
20
-9.374447
10
-1.292617
20
-9.394023
10
-1.289203
20
-9.403869
10
-1.287481
20
-9.408806
10
-1.286616
20
-9.411279
10
-1.286183
20
-9.412516
10
-1.286148
20
-9.412535
10
-0.927931
20
-9.454573
10
-0.927892
20
-9.454562
10
-0.927184
20
-9.453459
10
-0.92577
20
-9.451254
10
-0.922952
20
-9.446849
10
-0.917351
20
-9.438061
10
-0.906292
20
-9.42057
10
-0.884745
20
-9.385936
10
-0.863948
20
-9.351773
10
-0.84389
20
-9.318094
10
-0.82456
20
-9.284909
10
-0.805946
20
-9.252229
10
-0.788037
20
-9.220064
10
-0.77082
20
-9.188426
10
-0.754284
20
-9.157325
10
-0.738417
20
-9.12677
10
-0.723207
20
-9.096772
10
-0.70864
20
-9.067341
10
-0.694706
20
-9.038485
10
-0.681391
20
-9.010216
10
-0.668682
20
-8.982541
10
-0.656567
20
-8.95547
10
-0.645033
20
-8.929012
10
-0.634067
20
-8.903175
10
-0.623655
20
-8.877967
10
-0.613784
20
-8.853398
10
-0.604441
20
-8.829475
10
-0.595613
20
-8.806206
10
-0.587286
20
-8.783599
10
-0.579446
20
-8.76166
10
-0.572079
20
-8.740398
10
-0.565172
20
-8.71982
10
-0.55871
20
-8.699931
10
-0.552679
20
-8.68074
10
-0.547066
20
-8.662251
10
-0.541857
20
-8.644473
10
-0.537035
20
-8.627409
10
-0.532589
20
-8.611067
10
-0.528502
20
-8.595452
10
-0.524761
20
-8.580569
10
-0.52135
20
-8.566424
10
-0.518256
20
-8.553021
10
-0.515463
20
-8.540365
10
-0.512957
20
-8.52846
10
-0.510722
20
-8.517312
10
-0.508744
20
-8.506923
10
-0.507008
20
-8.497298
10
-0.505499
20
-8.488441
10
-0.504202
20
-8.480354
10
-0.503102
20
-8.473042
10
-0.502183
20
-8.466507
10
-0.501431
20
-8.460751
10
-0.500829
20
-8.455778
10
-0.500364
20
-8.45159
10
-0.500019
20
-8.448188
10
-0.49978
20
-8.445575
10
-0.499631
20
-8.443753
10
-0.497636
20
-8.41029
10
0
20
-8.425
10
0.000015
20
-8.458522
10
0.000056
20
-8.46035
10
0.000141
20
-8.462972
10
0.000284
20
-8.466389
10
0.000501
20
-8.470597
10
0.000808
20
-8.475597
10
0.001219
20
-8.481387
10
0.00175
20
-8.487965
10
0.002417
20
-8.49533
10
0.003234
20
-8.503479
10
0.004217
20
-8.512409
10
0.005381
20
-8.52212
10
0.006742
20
-8.532607
10
0.008314
20
-8.543868
10
0.010113
20
-8.5559
10
0.012153
20
-8.568699
10
0.014451
20
-8.582262
10
0.01702
20
-8.596584
10
0.019875
20
-8.611662
10
0.023033
20
-8.627491
10
0.026506
20
-8.644067
10
0.030311
20
-8.661385
10
0.034462
20
-8.679441
10
0.038973
20
-8.698228
10
0.043859
20
-8.717743
10
0.049135
20
-8.737978
10
0.054815
20
-8.758929
10
0.060913
20
-8.780589
10
0.067444
20
-8.802952
10
0.074421
20
-8.826012
10
0.081859
20
-8.849762
10
0.089773
20
-8.874195
10
0.098175
20
-8.899304
10
0.10708
20
-8.925082
10
0.116501
20
-8.951522
10
0.126452
20
-8.978615
10
0.136947
20
-9.006354
10
0.147999
20
-9.034732
10
0.159621
20
-9.063738
10
0.171826
20
-9.093366
10
0.184629
20
-9.123607
10
0.198041
20
-9.154451
10
0.212075
20
-9.185889
10
0.226745
20
-9.217913
10
0.242063
20
-9.250513
10
0.258042
20
-9.283679
10
0.274693
20
-9.317402
10
0.292029
20
-9.351671
10
0.310063
20
-9.386476
10
0.328805
20
-9.421807
10
0.348269
20
-9.457654
10
0.358275
20
-9.475767
10
0.363347
20
-9.484871
10
0.365901
20
-9.489434
10
0.367182
20
-9.491719
10
0.367824
20
-9.492862
10
0.367861
20
-9.492875
10
0.727936
20
-9.47207
10
0.727972
20
-9.472052
10
0.728478
20
-9.470843
10
0.729487
20
-9.468426
10
0.731498
20
-9.463599
10
0.735488
20
-9.453972
10
0.743341
20
-9.434827
10
0.758547
20
-9.396977
10
0.773096
20
-9.359722
10
0.787
20
-9.323071
10
0.800274
20
-9.287034
10
0.812931
20
-9.251618
10
0.824983
20
-9.216832
10
0.836444
20
-9.182685
10
0.847328
20
-9.149184
10
0.857648
20
-9.116339
10
0.867418
20
-9.084155
10
0.876653
20
-9.052641
10
0.885365
20
-9.021805
10
0.893569
20
-8.991653
10
0.901279
20
-8.962191
10
0.908509
20
-8.933428
10
0.915273
20
-8.905369
10
0.921586
20
-8.87802
10
0.927463
20
-8.851388
10
0.932917
20
-8.825478
10
0.937964
20
-8.800296
10
0.942617
20
-8.775847
10
0.946892
20
-8.752137
10
0.950804
20
-8.729171
10
0.954367
20
-8.706953
10
0.957596
20
-8.685487
10
0.960506
20
-8.664779
10
0.963112
20
-8.644832
10
0.965429
20
-8.625649
10
0.967472
20
-8.607236
10
0.969257
20
-8.589595
10
0.970799
20
-8.572729
10
0.972112
20
-8.556641
10
0.973212
20
-8.541335
10
0.974114
20
-8.526812
10
0.974834
20
-8.513075
10
0.975387
20
-8.500126
10
0.975788
20
-8.487968
10
0.976053
20
-8.4766
10
0.976196
20
-8.466026
10
0.976235
20
-8.456246
10
0.976182
20
-8.447261
10
0.976056
20
-8.439073
10
0.97587
20
-8.43168
10
0.97564
20
-8.425085
10
0.975381
20
-8.419286
10
0.97511
20
-8.414284
10
0.974841
20
-8.410079
10
0.974589
20
-8.406669
10
0.974371
20
-8.404054
10
0.974202
20
-8.402233
10
0.970356
20
-8.368933
10
1.462986
20
-8.297005
10
1.468822
20
-8.330015
10
1.46918
20
-8.331808
10
1.469719
20
-8.334376
10
1.470453
20
-8.337716
10
1.471397
20
-8.341823
10
1.472567
20
-8.346693
10
1.473978
20
-8.352324
10
1.475643
20
-8.35871
10
1.477578
20
-8.365847
10
1.479798
20
-8.37373
10
1.482317
20
-8.382355
10
1.48515
20
-8.391715
10
1.488311
20
-8.401807
10
1.491815
20
-8.412624
10
1.495676
20
-8.424161
10
1.499908
20
-8.436411
10
1.504525
20
-8.449368
10
1.509542
20
-8.463027
10
1.514973
20
-8.47738
10
1.520831
20
-8.49242
10
1.52713
20
-8.508142
10
1.533884
20
-8.524536
10
1.541107
20
-8.541596
10
1.548812
20
-8.559315
10
1.557013
20
-8.577685
10
1.565722
20
-8.596696
10
1.574954
20
-8.616343
10
1.584721
20
-8.636615
10
1.595035
20
-8.657504
10
1.605911
20
-8.679002
10
1.617361
20
-8.701099
10
1.629397
20
-8.723787
10
1.642031
20
-8.747056
10
1.655277
20
-8.770896
10
1.669146
20
-8.795298
10
1.683651
20
-8.820252
10
1.698803
20
-8.845747
10
1.714615
20
-8.871774
10
1.731097
20
-8.898322
10
1.748262
20
-8.92538
10
1.766122
20
-8.952938
10
1.784686
20
-8.980985
10
1.803967
20
-9.009509
10
1.823974
20
-9.038499
10
1.844721
20
-9.067943
10
1.866215
20
-9.097831
10
1.888469
20
-9.12815
10
1.911493
20
-9.158888
10
1.935297
20
-9.190033
10
1.95989
20
-9.221573
10
1.985283
20
-9.253495
10
1.998282
20
-9.269595
10
2.004858
20
-9.27768
10
2.008165
20
-9.28173
10
2.009823
20
-9.283758
10
2.010654
20
-9.284772
10
2.010693
20
-9.284779
10
2.361685
20
-9.201763
10
2.361717
20
-9.20174
10
2.362005
20
-9.200461
10
2.36258
20
-9.197905
10
2.363722
20
-9.192802
10
2.365979
20
-9.182629
10
2.370389
20
-9.162411
10
2.378791
20
-9.122495
10
2.386649
20
-9.08328
10
2.393978
20
-9.044772
10
2.400793
20
-9.006977
10
2.407107
20
-8.969901
10
2.412935
20
-8.933551
10
2.418293
20
-8.897932
10
2.423194
20
-8.863051
10
2.427654
20
-8.828912
10
2.431687
20
-8.795521
10
2.435309
20
-8.762882
10
2.438534
20
-8.731001
10
2.441377
20
-8.699883
10
2.443854
20
-8.66953
10
2.44598
20
-8.639948
10
2.447769
20
-8.611141
10
2.449237
20
-8.583111
10
2.4504
20
-8.555863
10
2.451272
20
-8.5294
10
2.451869
20
-8.503724
10
2.452207
20
-8.478839
10
2.452299
20
-8.454747
10
2.452164
20
-8.43145
10
2.451814
20
-8.40895
10
2.451266
20
-8.38725
10
2.450536
20
-8.366351
10
2.449639
20
-8.346255
10
2.44859
20
-8.326961
10
2.447405
20
-8.308473
10
2.4461
20
-8.29079
10
2.444689
20
-8.273912
10
2.443188
20
-8.257841
10
2.441614
20
-8.242576
10
2.439981
20
-8.228117
10
2.438304
20
-8.214464
10
2.4366
20
-8.201616
10
2.434884
20
-8.189572
10
2.43317
20
-8.178332
10
2.431476
20
-8.167893
10
2.429815
20
-8.158255
10
2.428204
20
-8.149416
10
2.426657
20
-8.141374
10
2.42519
20
-8.134126
10
2.423818
20
-8.127671
10
2.422557
20
-8.122005
10
2.421421
20
-8.117126
10
2.420425
20
-8.113031
10
2.419586
20
-8.109717
10
2.418917
20
-8.10718
10
2.418434
20
-8.105416
10
2.408864
20
-8.073289
10
2.88152
20
-7.91691
10
2.892999
20
-7.948405
10
2.893663
20
-7.950109
10
2.89464
20
-7.952545
10
2.895942
20
-7.955706
10
2.897586
20
-7.959586
10
2.899584
20
-7.96418
10
2.901951
20
-7.96948
10
2.9047
20
-7.97548
10
2.907845
20
-7.982172
10
2.9114
20
-7.98955
10
2.915378
20
-7.997606
10
2.919793
20
-8.006333
10
2.924659
20
-8.015722
10
2.929988
20
-8.025767
10
2.935793
20
-8.036457
10
2.942088
20
-8.047787
10
2.948885
20
-8.059745
10
2.956198
20
-8.072325
10
2.964039
20
-8.085517
10
2.972419
20
-8.099312
10
2.981353
20
-8.1137
10
2.990851
20
-8.128673
10
3.000927
20
-8.14422
10
3.011592
20
-8.160332
10
3.022858
20
-8.176998
10
3.034736
20
-8.194208
10
3.047239
20
-8.211953
10
3.060378
20
-8.230221
10
3.074163
20
-8.249002
10
3.088607
20
-8.268285
10
3.103719
20
-8.288058
10
3.119512
20
-8.308311
10
3.135995
20
-8.329033
10
3.15318
20
-8.350211
10
3.171076
20
-8.371833
10
3.189693
20
-8.393889
10
3.209042
20
-8.416366
10
3.229133
20
-8.439252
10
3.249976
20
-8.462535
10
3.271578
20
-8.486201
10
3.293952
20
-8.510239
10
3.317104
20
-8.534636
10
3.341045
20
-8.559378
10
3.365783
20
-8.584454
10
3.391327
20
-8.609848
10
3.417685
20
-8.635549
10
3.444866
20
-8.661543
10
3.472877
20
-8.687816
10
3.501727
20
-8.714355
10
3.531424
20
-8.741145
10
3.561974
20
-8.768173
10
3.577572
20
-8.781771
10
3.585452
20
-8.788591
10
3.589412
20
-8.792006
10
3.591397
20
-8.793715
10
3.592391
20
-8.794569
10
3.592431
20
-8.794569
10
3.923675
20
-8.651865
10
3.923703
20
-8.651837
10
3.923764
20
-8.650527
10
3.923886
20
-8.647911
10
3.924125
20
-8.642687
10
3.924581
20
-8.632276
10
3.925413
20
-8.611599
10
3.926756
20
-8.570832
10
3.927686
20
-8.530847
10
3.928217
20
-8.491651
10
3.928364
20
-8.453247
10
3.928145
20
-8.415638
10
3.927572
20
-8.378828
10
3.926663
20
-8.34282
10
3.925433
20
-8.307618
10
3.923897
20
-8.273223
10
3.922071
20
-8.239639
10
3.91997
20
-8.206867
10
3.91761
20
-8.174911
10
3.915006
20
-8.143771
10
3.912175
20
-8.11345
10
3.909131
20
-8.083948
10
3.905891
20
-8.055267
10
3.90247
20
-8.027409
10
3.898883
20
-8.000373
10
3.895146
20
-7.97416
10
3.891276
20
-7.948771
10
3.887287
20
-7.924205
10
3.883195
20
-7.900463
10
3.879016
20
-7.877543
10
3.874764
20
-7.855447
10
3.870457
20
-7.834171
10
3.866109
20
-7.813716
10
3.861735
20
-7.794081
10
3.857352
20
-7.775263
10
3.852975
20
-7.757261
10
3.848618
20
-7.740073
10
3.844298
20
-7.723697
10
3.84003
20
-7.708131
10
3.835829
20
-7.693371
10
3.831709
20
-7.679416
10
3.827688
20
-7.666261
10
3.823778
20
-7.653904
10
3.819997
20
-7.642341
10
3.816358
20
-7.631569
10
3.812876
20
-7.621583
10
3.809567
20
-7.61238
10
3.806445
20
-7.603955
10
3.803525
20
-7.596304
10
3.800822
20
-7.589421
10
3.79835
20
-7.583302
10
3.796124
20
-7.577941
10
3.794158
20
-7.573333
10
3.792467
20
-7.569474
10
3.791065
20
-7.566355
10
3.789965
20
-7.563973
10
3.789183
20
-7.56232
10
3.77418
20
-7.532343
10
4.2125
20
-7.296264
10
4.229274
20
-7.325287
10
4.230224
20
-7.32685
10
4.231608
20
-7.329079
10
4.23344
20
-7.331965
10
4.235733
20
-7.335502
10
4.238498
20
-7.339678
10
4.241749
20
-7.344487
10
4.245498
20
-7.349918
10
4.249758
20
-7.355963
10
4.25454
20
-7.362611
10
4.259857
20
-7.369854
10
4.26572
20
-7.377682
10
4.272142
20
-7.386084
10
4.279134
20
-7.39505
10
4.286708
20
-7.40457
10
4.294875
20
-7.414634
10
4.303645
20
-7.425231
10
4.313031
20
-7.43635
10
4.323043
20
-7.44798
10
4.333692
20
-7.46011
10
4.344989
20
-7.472729
10
4.356943
20
-7.485824
10
4.369565
20
-7.499385
10
4.382866
20
-7.5134
10
4.396855
20
-7.527857
10
4.411541
20
-7.542744
10
4.426935
20
-7.558048
10
4.443046
20
-7.573757
10
4.459884
20
-7.589858
10
4.477456
20
-7.60634
10
4.495773
20
-7.623189
10
4.514843
20
-7.640392
10
4.534674
20
-7.657936
10
4.555275
20
-7.675808
10
4.576653
20
-7.693995
10
4.598818
20
-7.712483
10
4.621777
20
-7.731258
10
4.645536
20
-7.750308
10
4.670105
20
-7.769617
10
4.695489
20
-7.789173
10
4.721697
20
-7.808961
10
4.748734
20
-7.828966
10
4.776607
20
-7.849176
10
4.805324
20
-7.869574
10
4.834889
20
-7.890148
10
4.86531
20
-7.910881
10
4.896592
20
-7.93176
10
4.92874
20
-7.95277
10
4.96176
20
-7.973896
10
4.995658
20
-7.995122
10
5.030437
20
-8.016434
10
5.048159
20
-8.027118
10
5.057104
20
-8.032465
10
5.061597
20
-8.035141
10
5.063848
20
-8.036479
10
5.064975
20
-8.037148
10
5.065015
20
-8.03714
10
5.366446
20
-7.839085
10
5.366469
20
-7.839052
10
5.366302
20
-7.837752
10
5.365968
20
-7.835154
10
5.365295
20
-7.829968
10
5.363937
20
-7.819636
10
5.361166
20
-7.799129
10
5.355409
20
-7.758747
10
5.349381
20
-7.719209
10
5.343098
20
-7.680516
10
5.336575
20
-7.64267
10
5.329827
20
-7.605671
10
5.322872
20
-7.569519
10
5.315724
20
-7.534216
10
5.3084
20
-7.499762
10
5.300914
20
-7.466157
10
5.293284
20
-7.4334
10
5.285524
20
-7.401491
10
5.277651
20
-7.37043
10
5.269679
20
-7.340215
10
5.261626
20
-7.310846
10
5.253505
20
-7.282321
10
5.245334
20
-7.254639
10
5.237127
20
-7.227798
10
5.2289
20
-7.201795
10
5.220669
20
-7.176629
10
5.212448
20
-7.152298
10
5.204254
20
-7.128798
10
5.196101
20
-7.106127
10
5.188006
20
-7.084282
10
5.179982
20
-7.063259
10
5.172046
20
-7.043055
10
5.164212
20
-7.023666
10
5.156495
20
-7.005088
10
5.148911
20
-6.987317
10
5.141474
20
-6.970349
10
5.134199
20
-6.954179
10
5.127101
20
-6.938802
10
5.120194
20
-6.924213
10
5.113494
20
-6.910407
10
5.107014
20
-6.897379
10
5.100769
20
-6.885122
10
5.094773
20
-6.873632
10
5.089041
20
-6.862902
10
5.083587
20
-6.852925
10
5.078424
20
-6.843696
10
5.073567
20
-6.835207
10
5.06903
20
-6.827452
10
5.064825
20
-6.820423
10
5.060968
20
-6.814114
10
5.057471
20
-6.808518
10
5.054348
20
-6.803625
10
5.051612
20
-6.799429
10
5.049276
20
-6.795921
10
5.047354
20
-6.793094
10
5.045857
20
-6.790938
10
5.0448
20
-6.789446
10
5.024819
20
-6.76253
10
5.415486
20
-6.453924
10
5.437044
20
-6.479594
10
5.438251
20
-6.480968
10
5.440002
20
-6.482922
10
5.442307
20
-6.485447
10
5.445179
20
-6.488532
10
5.448627
20
-6.492165
10
5.452664
20
-6.496336
10
5.457299
20
-6.501034
10
5.462544
20
-6.506247
10
5.468408
20
-6.511964
10
5.474902
20
-6.518173
10
5.482035
20
-6.524864
10
5.489819
20
-6.532023
10
5.498262
20
-6.539639
10
5.507373
20
-6.547699
10
5.517164
20
-6.556192
10
5.527641
20
-6.565105
10
5.538815
20
-6.574425
10
5.550695
20
-6.58414
10
5.563288
20
-6.594236
10
5.576604
20
-6.604702
10
5.590651
20
-6.615523
10
5.605436
20
-6.626686
10
5.620968
20
-6.638178
10
5.637255
20
-6.649986
10
5.654304
20
-6.662096
10
5.672121
20
-6.674495
10
5.690716
20
-6.687167
10
5.710093
20
-6.700101
10
5.730261
20
-6.71328
10
5.751225
20
-6.726693
10
5.772992
20
-6.740323
10
5.795569
20
-6.754157
10
5.81896
20
-6.76818
10
5.843172
20
-6.782378
10
5.86821
20
-6.796737
10
5.89408
20
-6.81124
10
5.920787
20
-6.825874
10
5.948335
20
-6.840624
10
5.97673
20
-6.855475
10
6.005975
20
-6.870411
10
6.036076
20
-6.885418
10
6.067035
20
-6.90048
10
6.098857
20
-6.915582
10
6.131546
20
-6.930709
10
6.165105
20
-6.945845
10
6.199537
20
-6.960975
10
6.234845
20
-6.976083
10
6.271032
20
-6.991154
10
6.308101
20
-7.006171
10
6.346053
20
-7.02112
10
6.365361
20
-7.028564
10
6.375098
20
-7.032277
10
6.379987
20
-7.034132
10
6.382437
20
-7.035058
10
6.383663
20
-7.035522
10
6.383701
20
-7.035507
10
6.64616
20
-6.788118
10
6.646177
20
-6.788082
10
6.645787
20
-6.78683
10
6.645007
20
-6.78433
10
6.643444
20
-6.77934
10
6.640312
20
-6.7694
10
6.634022
20
-6.749686
10
6.621341
20
-6.710917
10
6.608539
20
-6.673027
10
6.595632
20
-6.636013
10
6.582636
20
-6.599874
10
6.569566
20
-6.564609
10
6.556439
20
-6.530214
10
6.543269
20
-6.496689
10
6.530073
20
-6.46403
10
6.516866
20
-6.432235
10
6.503663
20
-6.401301
10
6.490481
20
-6.371224
10
6.477333
20
-6.342002
10
6.464236
20
-6.313631
10
6.451205
20
-6.286106
10
6.438255
20
-6.259425
10
6.4254
20
-6.233582
10
6.412657
20
-6.208573
10
6.40004
20
-6.184395
10
6.387564
20
-6.161041
10
6.375243
20
-6.138506
10
6.363093
20
-6.116786
10
6.351127
20
-6.095876
10
6.339361
20
-6.075768
10
6.327808
20
-6.056458
10
6.316484
20
-6.037939
10
6.305402
20
-6.020205
10
6.294577
20
-6.003249
10
6.284022
20
-5.987065
10
6.273752
20
-5.971646
10
6.263779
20
-5.956985
10
6.254119
20
-5.943074
10
6.244784
20
-5.929906
10
6.235788
20
-5.917474
10
6.227144
20
-5.905768
10
6.218866
20
-5.894783
10
6.210966
20
-5.884508
10
6.203457
20
-5.874936
10
6.196353
20
-5.866058
10
6.189667
20
-5.857865
10
6.183409
20
-5.850349
10
6.177594
20
-5.8435
10
6.172233
20
-5.837308
10
6.167339
20
-5.831765
10
6.162923
20
-5.82686
10
6.158998
20
-5.822584
10
6.155575
20
-5.818927
10
6.152666
20
-5.815878
10
6.150281
20
-5.813428
10
6.148433
20
-5.811565
10
6.147133
20
-5.810279
10
6.122782
20
-5.787242
10
6.453924
20
-5.415486
10
6.479613
20
-5.437021
10
6.48104
20
-5.438165
10
6.483104
20
-5.439786
10
6.485813
20
-5.441872
10
6.489176
20
-5.444411
10
6.493203
20
-5.44739
10
6.497903
20
-5.450797
10
6.503283
20
-5.454618
10
6.509353
20
-5.458841
10
6.516121
20
-5.463453
10
6.523595
20
-5.468441
10
6.531782
20
-5.473791
10
6.54069
20
-5.47949
10
6.550327
20
-5.485524
10
6.5607
20
-5.49188
10
6.571816
20
-5.498544
10
6.583682
20
-5.505502
10
6.596305
20
-5.51274
10
6.609691
20
-5.520244
10
6.623847
20
-5.528
10
6.638777
20
-5.535994
10
6.65449
20
-5.544212
10
6.670989
20
-5.552638
10
6.688281
20
-5.561258
10
6.706371
20
-5.570059
10
6.725263
20
-5.579025
10
6.744963
20
-5.58814
10
6.765475
20
-5.597392
10
6.786804
20
-5.606764
10
6.808954
20
-5.616241
10
6.831929
20
-5.625809
10
6.855732
20
-5.635453
10
6.880368
20
-5.645156
10
6.905839
20
-5.654905
10
6.932149
20
-5.664683
10
6.9593
20
-5.674475
10
6.987295
20
-5.684266
10
7.016138
20
-5.69404
10
7.045829
20
-5.703782
10
7.076371
20
-5.713477
10
7.107765
20
-5.723108
10
7.140014
20
-5.732659
10
7.173119
20
-5.742117
10
7.20708
20
-5.751463
10
7.241899
20
-5.760684
10
7.277577
20
-5.769763
10
7.314113
20
-5.778684
10
7.351508
20
-5.787431
10
7.389762
20
-5.795989
10
7.428875
20
-5.804342
10
7.468847
20
-5.812473
10
7.489154
20
-5.816451
10
7.499388
20
-5.818417
10
7.504525
20
-5.819394
10
7.507098
20
-5.819882
10
7.508387
20
-5.820125
10
7.508421
20
-5.820104
10
7.723935
20
-5.530898
10
7.723945
20
-5.530859
10
7.723343
20
-5.529694
10
7.722141
20
-5.527367
10
7.719735
20
-5.522724
10
7.714925
20
-5.51348
10
7.705307
20
-5.495157
10
7.686086
20
-5.45918
10
7.666899
20
-5.424088
10
7.647761
20
-5.389877
10
7.628687
20
-5.356544
10
7.609692
20
-5.324084
10
7.590792
20
-5.292492
10
7.572
20
-5.261763
10
7.553334
20
-5.231892
10
7.534806
20
-5.202873
10
7.516432
20
-5.174701
10
7.498227
20
-5.147371
10
7.480205
20
-5.120876
10
7.46238
20
-5.09521
10
7.444768
20
-5.070366
10
7.427381
20
-5.046339
10
7.410234
20
-5.023121
10
7.393342
20
-5.000705
10
7.376718
20
-4.979085
10
7.360376
20
-4.958252
10
7.344329
20
-4.938199
10
7.328592
20
-4.918919
10
7.313177
20
-4.900404
10
7.298098
20
-4.882645
10
7.283368
20
-4.865634
10
7.269
20
-4.849363
10
7.255007
20
-4.833822
10
7.241401
20
-4.819004
10
7.228197
20
-4.804899
10
7.215405
20
-4.791498
10
7.203038
20
-4.778791
10
7.191109
20
-4.766769
10
7.179629
20
-4.755422
10
7.168611
20
-4.744741
10
7.158066
20
-4.734714
10
7.148005
20
-4.725333
10
7.138441
20
-4.716586
10
7.129385
20
-4.708463
10
7.120847
20
-4.700954
10
7.112839
20
-4.694047
10
7.105372
20
-4.687731
10
7.098456
20
-4.681996
10
7.092101
20
-4.676829
10
7.086319
20
-4.67222
10
7.081118
20
-4.668157
10
7.07651
20
-4.664627
10
7.072504
20
-4.66162
10
7.069109
20
-4.659123
10
7.066336
20
-4.657124
10
7.064193
20
-4.65561
10
7.062689
20
-4.654569
10
7.034707
20
-4.63611
10
7.296264
20
-4.2125
10
7.325302
20
-4.229248
10
7.326906
20
-4.230126
10
7.32922
20
-4.231364
10
7.33225
20
-4.232948
10
7.336003
20
-4.234864
10
7.340486
20
-4.237099
10
7.345706
20
-4.239638
10
7.351668
20
-4.242467
10
7.35838
20
-4.245572
10
7.365845
20
-4.248939
10
7.374071
20
-4.252553
10
7.383063
20
-4.2564
10
7.392826
20
-4.260465
10
7.403364
20
-4.264734
10
7.414683
20
-4.269192
10
7.426788
20
-4.273824
10
7.439682
20
-4.278616
10
7.45337
20
-4.283552
10
7.467855
20
-4.288618
10
7.483143
20
-4.293799
10
7.499235
20
-4.299078
10
7.516135
20
-4.304442
10
7.533847
20
-4.309876
10
7.552373
20
-4.315363
10
7.571716
20
-4.320888
10
7.591879
20
-4.326437
10
7.612862
20
-4.331993
10
7.634669
20
-4.337542
10
7.657302
20
-4.343068
10
7.680761
20
-4.348555
10
7.705048
20
-4.353989
10
7.730164
20
-4.359352
10
7.756111
20
-4.36463
10
7.782888
20
-4.369807
10
7.810496
20
-4.374868
10
7.838935
20
-4.379797
10
7.868205
20
-4.384578
10
7.898306
20
-4.389195
10
7.929238
20
-4.393634
10
7.960999
20
-4.397877
10
7.99359
20
-4.40191
10
8.027007
20
-4.405717
10
8.061251
20
-4.409282
10
8.09632
20
-4.412589
10
8.132211
20
-4.415624
10
8.168923
20
-4.418369
10
8.206453
20
-4.42081
10
8.244799
20
-4.422931
10
8.283958
20
-4.424716
10
8.323927
20
-4.42615
10
8.364703
20
-4.427217
10
8.385393
20
-4.427608
10
8.395813
20
-4.427767
10
8.401042
20
-4.427838
10
8.403661
20
-4.427871
10
8.404971
20
-4.427886
10
8.405002
20
-4.42786
10
8.567021
20
-4.105624
10
8.567024
20
-4.105584
10
8.56623
20
-4.104541
10
8.564641
20
-4.102459
10
8.561466
20
-4.098304
10
8.555124
20
-4.090035
10
8.54247
20
-4.073661
10
8.517294
20
-4.041568
10
8.492305
20
-4.010341
10
8.467517
20
-3.979973
10
8.442944
20
-3.950459
10
8.418601
20
-3.92179
10
8.394502
20
-3.89396
10
8.37066
20
-3.866961
10
8.34709
20
-3.840785
10
8.323805
20
-3.815424
10
8.300818
20
-3.790871
10
8.278144
20
-3.767117
10
8.255795
20
-3.744154
10
8.233784
20
-3.721973
10
8.212125
20
-3.700566
10
8.19083
20
-3.679922
10
8.169912
20
-3.660035
10
8.149384
20
-3.640893
10
8.129258
20
-3.622487
10
8.109547
20
-3.604809
10
8.090262
20
-3.587848
10
8.071415
20
-3.571593
10
8.053019
20
-3.556036
10
8.035086
20
-3.541165
10
8.017625
20
-3.526971
10
8.00065
20
-3.513442
10
7.984171
20
-3.500567
10
7.9682
20
-3.488337
10
7.952746
20
-3.476739
10
7.937821
20
-3.465762
10
7.923436
20
-3.455396
10
7.9096
20
-3.445628
10
7.896325
20
-3.436447
10
7.883619
20
-3.427841
10
7.871493
20
-3.419798
10
7.859956
20
-3.412306
10
7.849019
20
-3.405353
10
7.83869
20
-3.398927
10
7.828978
20
-3.393014
10
7.819892
20
-3.387602
10
7.811441
20
-3.382679
10
7.803634
20
-3.378232
10
7.796479
20
-3.374247
10
7.789984
20
-3.370712
10
7.784157
20
-3.367614
10
7.779006
20
-3.364938
10
7.774539
20
-3.362672
10
7.770762
20
-3.360802
10
7.767683
20
-3.359315
10
7.76531
20
-3.358197
10
7.763648
20
-3.357433
10
7.732886
20
-3.344113
10
7.91691
20
-2.88152
10
7.948415
20
-2.892971
10
7.950148
20
-2.893557
10
7.952641
20
-2.894375
10
7.9559
20
-2.895408
10
7.959929
20
-2.896644
10
7.964732
20
-2.898066
10
7.970314
20
-2.89966
10
7.976677
20
-2.90141
10
7.983825
20
-2.903303
10
7.991762
20
-2.905322
10
8.000491
20
-2.907453
10
8.010014
20
-2.90968
10
8.020334
20
-2.911988
10
8.031454
20
-2.914362
10
8.043375
20
-2.916787
10
8.0561
20
-2.919247
10
8.06963
20
-2.921727
10
8.083967
20
-2.924212
10
8.099113
20
-2.926685
10
8.115067
20
-2.929132
10
8.131832
20
-2.931537
10
8.149407
20
-2.933885
10
8.167793
20
-2.93616
10
8.186991
20
-2.938347
10
8.206999
20
-2.940429
10
8.227819
20
-2.942393
10
8.249449
20
-2.944221
10
8.271888
20
-2.945899
10
8.295136
20
-2.947411
10
8.319192
20
-2.948741
10
8.344053
20
-2.949874
10
8.369719
20
-2.950795
10
8.396188
20
-2.951487
10
8.423457
20
-2.951936
10
8.451525
20
-2.952126
10
8.480388
20
-2.952041
10
8.510043
20
-2.951667
10
8.540489
20
-2.950987
10
8.571722
20
-2.949987
10
8.603737
20
-2.94865
10
8.636533
20
-2.946963
10
8.670104
20
-2.944909
10
8.704447
20
-2.942473
10
8.739557
20
-2.939641
10
8.775429
20
-2.936397
10
8.81206
20
-2.932726
10
8.849444
20
-2.928612
10
8.887576
20
-2.924042
10
8.92645
20
-2.919
10
8.966061
20
-2.913472
10
9.006403
20
-2.907442
10
9.026846
20
-2.904235
10
9.037135
20
-2.902582
10
9.042297
20
-2.901743
10
9.044882
20
-2.901321
10
9.046175
20
-2.901109
10
9.046201
20
-2.901078
10
9.149803
20
-2.555603
10
9.149799
20
-2.555563
10
9.148835
20
-2.554674
10
9.14691
20
-2.552899
10
9.143061
20
-2.549358
10
9.135379
20
-2.542316
10
9.120075
20
-2.528389
10
9.089708
20
-2.501155
10
9.059676
20
-2.474741
10
9.029991
20
-2.44914
10
9.000667
20
-2.424341
10
8.971715
20
-2.400335
10
8.94315
20
-2.377112
10
8.914982
20
-2.354663
10
8.887224
20
-2.332978
10
8.859889
20
-2.312046
10
8.832988
20
-2.291857
10
8.806533
20
-2.272402
10
8.780536
20
-2.253668
10
8.755008
20
-2.235646
10
8.72996
20
-2.218325
10
8.705404
20
-2.201693
10
8.681351
20
-2.18574
10
8.657811
20
-2.170454
10
8.634795
20
-2.155823
10
8.612313
20
-2.141836
10
8.590376
20
-2.128481
10
8.568993
20
-2.115746
10
8.548175
20
-2.10362
10
8.527931
20
-2.092089
10
8.508272
20
-2.081142
10
8.489205
20
-2.070766
10
8.470741
20
-2.060949
10
8.452888
20
-2.051678
10
8.435655
20
-2.042939
10
8.419051
20
-2.034721
10
8.403084
20
-2.027011
10
8.387763
20
-2.019794
10
8.373094
20
-2.013057
10
8.359087
20
-2.006789
10
8.345749
20
-2.000974
10
8.333087
20
-1.995599
10
8.321108
20
-1.990651
10
8.30982
20
-1.986115
10
8.299228
20
-1.981979
10
8.289341
20
-1.978227
10
8.280164
20
-1.974846
10
8.271703
20
-1.971822
10
8.263965
20
-1.96914
10
8.256955
20
-1.966787
10
8.250678
20
-1.964747
10
8.245141
20
-1.963007
10
8.240348
20
-1.961551
10
8.236304
20
-1.960366
10
8.233014
20
-1.959436
10
8.230482
20
-1.958746
10
8.228713
20
-1.958283
10
8.196106
20
-1.950507
10
8.297005
20
-1.462986
10
8.33002
20
-1.468792
10
8.331828
20
-1.469069
10
8.334425
20
-1.469441
10
8.337814
20
-1.469893
10
8.341997
20
-1.47041
10
8.346974
20
-1.470977
10
8.352747
20
-1.471577
10
8.359318
20
-1.472196
10
8.366686
20
-1.472819
10
8.374853
20
-1.473429
10
8.383819
20
-1.474012
10
8.393584
20
-1.474551
10
8.404149
20
-1.475032
10
8.415512
20
-1.475439
10
8.427673
20
-1.475757
10
8.440632
20
-1.47597
10
8.454387
20
-1.476063
10
8.468938
20
-1.47602
10
8.484282
20
-1.475826
10
8.50042
20
-1.475465
10
8.517347
20
-1.474923
10
8.535063
20
-1.474183
10
8.553565
20
-1.473231
10
8.57285
20
-1.472051
10
8.592917
20
-1.470627
10
8.613761
20
-1.468945
10
8.635379
20
-1.46699
10
8.657769
20
-1.464746
10
8.680927
20
-1.462198
10
8.704848
20
-1.459331
10
8.729529
20
-1.456129
10
8.754965
20
-1.452579
10
8.781151
20
-1.448665
10
8.808084
20
-1.444372
10
8.835758
20
-1.439685
10
8.864168
20
-1.434589
10
8.893308
20
-1.429071
10
8.923173
20
-1.423115
10
8.953758
20
-1.416706
10
8.985055
20
-1.409831
10
9.017059
20
-1.402474
10
9.049764
20
-1.394622
10
9.083162
20
-1.386259
10
9.117246
20
-1.377373
10
9.152011
20
-1.367949
10
9.187448
20
-1.357973
10
9.223549
20
-1.34743
10
9.260308
20
-1.336308
10
9.297716
20
-1.324592
10
9.335765
20
-1.31227
10
9.374447
20
-1.299326
10
9.394023
20
-1.292617
10
9.403869
20
-1.289203
10
9.408806
20
-1.287481
10
9.411279
20
-1.286616
10
9.412516
20
-1.286183
10
9.412535
20
-1.286148
10
9.454573
20
-0.927931
10
9.454562
20
-0.927892
10
9.453459
20
-0.927184
10
9.451254
20
-0.92577
10
9.446849
20
-0.922952
10
9.438061
20
-0.917351
10
9.42057
20
-0.906292
10
9.385936
20
-0.884745
10
9.351773
20
-0.863948
10
9.318094
20
-0.84389
10
9.284909
20
-0.82456
10
9.252229
20
-0.805946
10
9.220064
20
-0.788037
10
9.188426
20
-0.77082
10
9.157325
20
-0.754284
10
9.12677
20
-0.738417
10
9.096772
20
-0.723207
10
9.067341
20
-0.70864
10
9.038485
20
-0.694706
10
9.010216
20
-0.681391
10
8.982541
20
-0.668682
10
8.95547
20
-0.656567
10
8.929012
20
-0.645033
10
8.903175
20
-0.634067
10
8.877967
20
-0.623655
10
8.853398
20
-0.613784
10
8.829475
20
-0.604441
10
8.806206
20
-0.595613
10
8.783599
20
-0.587286
10
8.76166
20
-0.579446
10
8.740398
20
-0.572079
10
8.71982
20
-0.565172
10
8.699931
20
-0.55871
10
8.68074
20
-0.552679
10
8.662251
20
-0.547066
10
8.644473
20
-0.541857
10
8.627409
20
-0.537035
10
8.611067
20
-0.532589
10
8.595452
20
-0.528502
10
8.580569
20
-0.524761
10
8.566424
20
-0.52135
10
8.553021
20
-0.518256
10
8.540365
20
-0.515463
10
8.52846
20
-0.512957
10
8.517312
20
-0.510722
10
8.506923
20
-0.508744
10
8.497298
20
-0.507008
10
8.488441
20
-0.505499
10
8.480354
20
-0.504202
10
8.473042
20
-0.503102
10
8.466507
20
-0.502183
10
8.460751
20
-0.501431
10
8.455778
20
-0.500829
10
8.45159
20
-0.500364
10
8.448188
20
-0.500019
10
8.445575
20
-0.49978
10
8.443753
20
-0.499631
10
8.41029
20
-0.497636
8
gear
0
LWPOLYLINE
5
1004
100
AcDbEntity
100
AcDbPolyline
90
5
70
0
43
0
10
7.835619
20
2.149116
10
7.82763
20
2.178033
10
7.819535
20
2.20692
10
7.811333
20
2.235777
10
7.803025
20
2.264604
8
gear_texts
0
LWPOLYLINE
5
1005
100
AcDbEntity
100
AcDbPolyline
90
2
70
0
43
0
10
7.761791
20
2.190623
10
7.877279
20
2.223218
8
gear_texts
0
LWPOLYLINE
5
1006
100
AcDbEntity
100
AcDbPolyline
90
5
70
0
43
0
10
7.893482
20
2.164987
10
7.856532
20
2.186075
10
7.819535
20
2.20692
10
7.782491
20
2.227522
10
7.745402
20
2.247881
8
gear_texts
0
LWPOLYLINE
5
1007
100
AcDbEntity
100
AcDbPolyline
90
5
70
0
43
0
10
7.777756
20
2.133246
10
7.798728
20
2.169991
10
7.819535
20
2.20692
10
7.840175
20
2.244033
10
7.860647
20
2.281327
8
gear_texts
0
LWPOLYLINE
5
1008
100
AcDbEntity
100
AcDbPolyline
90
3
70
0
43
0
10
7.909254
20
2.106638
10
7.945996
20
2.085035
10
7.77189
20
2.039349
8
gear_texts
0
LWPOLYLINE
5
1009
100
AcDbEntity
100
AcDbPolyline
90
3
70
0
43
0
10
7.779367
20
2.010639
10
7.77189
20
2.039349
10
7.764308
20
2.068031
8
gear_texts
0
LWPOLYLINE
5
1010
100
AcDbEntity
100
AcDbPolyline
90
7
70
0
43
0
10
8.030551
20
1.731035
10
7.854592
20
1.693106
10
7.892241
20
1.73174
10
7.929712
20
1.770676
10
7.967002
20
1.809912
10
8.00411
20
1.849447
10
7.828731
20
1.808923
8
gear_texts
0
LWPOLYLINE
5
1011
100
AcDbEntity
100
AcDbPolyline
90
5
70
0
43
0
10
8.008007
20
1.541376
10
8.002262
20
1.570934
10
7.996407
20
1.60047
10
7.990443
20
1.629984
10
7.98437
20
1.659476
8
gear_texts
0
LWPOLYLINE
5
1012
100
AcDbEntity
100
AcDbPolyline
90
5
70
0
43
0
10
7.949089
20
1.530036
10
7.943385
20
1.559376
10
7.937574
20
1.588694
10
7.931654
20
1.617991
10
7.925625
20
1.647267
8
gear_texts
0
LWPOLYLINE
5
1013
100
AcDbEntity
100
AcDbPolyline
90
13
70
0
43
0
10
8.048672
20
1.487651
10
8.08363
20
1.463267
10
8.088978
20
1.43341
10
8.094215
20
1.403533
10
8.069765
20
1.368621
10
8.040187
20
1.363604
10
8.005539
20
1.388156
10
7.981032
20
1.353572
10
7.951454
20
1.348555
10
7.916862
20
1.37278
10
7.911739
20
1.402002
10
7.906509
20
1.431205
10
7.930671
20
1.465841
8
gear_texts
0
LWPOLYLINE
5
1014
100
AcDbEntity
100
AcDbPolyline
90
2
70
0
43
0
10
8.000358
20
1.417706
10
8.005539
20
1.388156
8
gear_texts
0
LWPOLYLINE
5
1015
100
AcDbEntity
100
AcDbPolyline
90
14
70
0
43
0
10
8.020424
20
1.299396
10
8.025167
20
1.269774
10
8.0298
20
1.240134
10
8.034325
20
1.210477
10
8.009058
20
1.176444
10
7.979376
20
1.172084
10
7.945329
20
1.197068
10
7.940855
20
1.226397
10
7.936273
20
1.255708
10
7.961196
20
1.289801
10
8.050037
20
1.304194
10
8.084429
20
1.27915
10
8.118746
20
1.253871
10
8.12332
20
1.223885
8
gear_texts
0
LWPOLYLINE
5
1016
100
AcDbEntity
100
AcDbPolyline
90
11
70
0
43
0
10
8.06657
20
0.972662
10
8.070107
20
0.942871
10
8.073533
20
0.913067
10
8.076849
20
0.883251
10
8.109889
20
0.856574
10
8.139723
20
0.859725
10
8.166316
20
0.893035
10
8.162963
20
0.923181
10
8.159498
20
0.953315
10
8.155923
20
0.983436
10
7.977217
20
0.961888
8
gear_texts
0
LWPOLYLINE
5
1017
100
AcDbEntity
100
AcDbPolyline
90
2
70
0
43
0
10
7.996568
20
0.78494
10
8.115994
20
0.796663
8
gear_texts
0
LWPOLYLINE
5
1018
100
AcDbEntity
100
AcDbPolyline
90
2
70
0
43
0
10
8.14585
20
0.799593
10
8.175707
20
0.802524
8
gear_texts
0
LWPOLYLINE
5
1019
100
AcDbEntity
100
AcDbPolyline
90
4
70
0
43
0
10
8.041908
20
0.609876
10
8.009695
20
0.637186
10
8.037185
20
0.669245
10
8.186667
20
0.681692
8
gear_texts
0
LWPOLYLINE
5
1020
100
AcDbEntity
100
AcDbPolyline
90
5
70
0
43
0
10
8.13165
20
0.616682
10
8.129317
20
0.646702
10
8.126874
20
0.676713
10
8.12432
20
0.706715
10
8.121655
20
0.736708
8
gear_texts
0
LWPOLYLINE
5
1021
100
AcDbEntity
100
AcDbPolyline
90
10
70
0
43
0
10
8.023487
20
0.429976
10
8.021845
20
0.459598
10
8.020093
20
0.489214
10
8.018232
20
0.518823
10
8.046192
20
0.550473
10
8.106052
20
0.554569
10
8.137982
20
0.526572
10
8.139871
20
0.49652
10
8.141648
20
0.466462
10
8.143315
20
0.436398
8
gear_texts
0
LWPOLYLINE
5
1022
100
AcDbEntity
100
AcDbPolyline
90
6
70
0
43
0
10
8.08638
20
0.373483
10
8.117676
20
0.344896
10
8.148872
20
0.316084
10
8.149984
20
0.285994
10
8.120999
20
0.254958
10
8.031043
20
0.252134
8
gear_texts
0
LWPOLYLINE
5
1023
100
AcDbEntity
100
AcDbPolyline
90
2
70
0
43
0
10
8.026444
20
0.370715
10
8.206252
20
0.379019
8
gear_texts
0
LWPOLYLINE
5
1024
100
AcDbEntity
100
AcDbPolyline
90
10
70
0
43
0
10
8.034877
20
0.044501
10
8.034986
20
0.014834
10
8.034986
20
-0.014834
10
8.034877
20
-0.044501
10
8.064656
20
-0.074445
10
8.184651
20
-0.075553
10
8.214874
20
-0.045498
10
8.214986
20
-0.015166
10
8.214986
20
0.015166
10
8.214874
20
0.045498
8
gear_texts
0
LWPOLYLINE
5
1025
100
AcDbEntity
100
AcDbPolyline
90
2
70
0
43
0
10
8.214986
20
0.015166
10
8.034986
20
0.014834
8
gear_texts
0
LWPOLYLINE
5
1026
100
AcDbEntity
100
AcDbPolyline
90
5
70
0
43
0
10
8.150984
20
-0.2559
10
8.151873
20
-0.225802
10
8.152651
20
-0.195701
10
8.153318
20
-0.165598
10
8.153874
20
-0.135492
8
gear_texts
0
LWPOLYLINE
5
1027
100
AcDbEntity
100
AcDbPolyline
90
5
70
0
43
0
10
8.091014
20
-0.254017
10
8.091896
20
-0.224141
10
8.092669
20
-0.194261
10
8.093331
20
-0.164379
10
8.093883
20
-0.134495
8
gear_texts
0
LWPOLYLINE
5
1028
100
AcDbEntity
100
AcDbPolyline
90
3
70
0
43
0
10
8.17885
20
-0.317247
10
8.207595
20
-0.348717
10
8.027758
20
-0.341076
8
gear_texts
0
LWPOLYLINE
5
1029
100
AcDbEntity
100
AcDbPolyline
90
3
70
0
43
0
10
8.026444
20
-0.370715
10
8.027758
20
-0.341076
10
8.028962
20
-0.311433
8
gear_texts
0
LWPOLYLINE
5
1030
100
AcDbEntity
100
AcDbPolyline
90
19
70
0
43
0
10
8.111697
20
-0.464746
10
8.083401
20
-0.433187
10
8.053444
20
-0.431581
10
8.021845
20
-0.459598
10
8.020093
20
-0.489214
10
8.018232
20
-0.518823
10
8.046192
20
-0.550473
10
8.076122
20
-0.552521
10
8.108044
20
-0.524635
10
8.109926
20
-0.494694
10
8.111697
20
-0.464746
10
8.143315
20
-0.436398
10
8.173272
20
-0.438003
10
8.20155
20
-0.469894
10
8.199759
20
-0.500174
10
8.197857
20
-0.530446
10
8.165912
20
-0.558664
10
8.135982
20
-0.556616
10
8.108044
20
-0.524635
8
gear_texts
0
LWPOLYLINE
5
1031
100
AcDbEntity
100
AcDbPolyline
90
11
70
0
43
0
10
8.089013
20
-0.76387
10
8.086137
20
-0.793732
10
8.083151
20
-0.823583
10
8.080055
20
-0.853423
10
8.106671
20
-0.886512
10
8.136494
20
-0.889774
10
8.169557
20
-0.862876
10
8.172688
20
-0.832706
10
8.175707
20
-0.802524
10
8.178614
20
-0.772332
10
7.999411
20
-0.755409
8
gear_texts
0
LWPOLYLINE
5
1032
100
AcDbEntity
100
AcDbPolyline
90
5
70
0
43
0
10
8.085044
20
-1.065874
10
8.088924
20
-1.036014
10
8.092695
20
-1.006141
10
8.096354
20
-0.976253
10
8.099904
20
-0.946352
8
gear_texts
0
LWPOLYLINE
5
1033
100
AcDbEntity
100
AcDbPolyline
90
5
70
0
43
0
10
8.025559
20
-1.058032
10
8.029411
20
-1.028392
10
8.033153
20
-0.998738
10
8.036786
20
-0.96907
10
8.040309
20
-0.939389
8
gear_texts
0
LWPOLYLINE
5
1034
100
AcDbEntity
100
AcDbPolyline
90
15
70
0
43
0
10
7.940855
20
-1.226397
10
7.945329
20
-1.197068
10
7.949695
20
-1.167724
10
7.953952
20
-1.138363
10
7.958101
20
-1.108987
10
8.017527
20
-1.117268
10
8.043044
20
-1.151114
10
8.038739
20
-1.180803
10
8.034325
20
-1.210477
10
8.059449
20
-1.244713
10
8.089097
20
-1.249292
10
8.12332
20
-1.223885
10
8.127784
20
-1.193883
10
8.132136
20
-1.163865
10
8.106666
20
-1.12969
8
gear_texts
0
LWPOLYLINE
5
1035
100
AcDbEntity
100
AcDbPolyline
90
11
70
0
43
0
10
7.995069
20
-1.447236
10
7.989671
20
-1.476746
10
7.984164
20
-1.506236
10
7.978548
20
-1.535706
10
8.002262
20
-1.570934
10
8.0317
20
-1.576713
10
8.066926
20
-1.552717
10
8.072604
20
-1.522921
10
8.078172
20
-1.493104
10
8.08363
20
-1.463267
10
7.906509
20
-1.431205
8
gear_texts
0
LWPOLYLINE
5
1036
100
AcDbEntity
100
AcDbPolyline
90
7
70
0
43
0
10
7.872864
20
-1.605999
10
7.931654
20
-1.617991
10
7.98437
20
-1.659476
10
8.036887
20
-1.701372
10
7.971898
20
-1.718392
10
7.906893
20
-1.734955
10
7.848287
20
-1.722096
8
gear_texts
0
LWPOLYLINE
5
1037
100
AcDbEntity
100
AcDbPolyline
90
5
70
0
43
0
10
7.931654
20
-1.617991
10
7.925625
20
-1.647267
10
7.919489
20
-1.676519
10
7.913245
20
-1.705749
10
7.906893
20
-1.734955
8
gear_texts
0
LWPOLYLINE
5
1038
100
AcDbEntity
100
AcDbPolyline
90
5
70
0
43
0
10
7.924826
20
-1.923838
10
7.931876
20
-1.894564
10
7.938817
20
-1.865264
10
7.94565
20
-1.835939
10
7.952375
20
-1.806589
8
gear_texts
0
LWPOLYLINE
5
1039
100
AcDbEntity
100
AcDbPolyline
90
5
70
0
43
0
10
7.86652
20
-1.909683
10
7.873517
20
-1.880625
10
7.880408
20
-1.85154
10
7.88719
20
-1.822431
10
7.893865
20
-1.793297
8
gear_texts
0
LWPOLYLINE
5
1040
100
AcDbEntity
100
AcDbPolyline
90
15
70
0
43
0
10
7.764308
20
-2.068031
10
7.77189
20
-2.039349
10
7.779367
20
-2.010639
10
7.786738
20
-1.981902
10
7.794003
20
-1.953137
10
7.852203
20
-1.967722
10
7.873957
20
-2.004101
10
7.866504
20
-2.03316
10
7.858943
20
-2.062192
10
7.880265
20
-2.098917
10
7.909254
20
-2.106638
10
7.945996
20
-2.085035
10
7.953641
20
-2.055681
10
7.961177
20
-2.0263
10
7.939504
20
-1.989599
8
gear_texts
0
LWPOLYLINE
5
1041
100
AcDbEntity
100
AcDbPolyline
90
9
70
0
43
0
10
7.753649
20
-2.219267
10
7.732919
20
-2.182474
10
7.740924
20
-2.153907
10
7.777756
20
-2.133246
10
7.893482
20
-2.164987
10
7.914336
20
-2.202159
10
7.906151
20
-2.231366
10
7.869017
20
-2.252288
10
7.753649
20
-2.219267
8
gear_texts
0
LINE
5
1001
100
AcDbEntity
100
AcDbLine
10
0.1
20
0
30
0
11
-0.1
21
0
31
0
8
gear_guides
0
LINE
5
1002
100
AcDbEntity
100
AcDbLine
10
0
20
0.1
30
0
11
0
21
-0.1
31
0
8
gear_guides
0
CIRCLE
5
1003
100
AcDbEntity
100
AcDbCircle
10
8.985014
20
0.519155
30
0
40
0.19625
8
gear_guides
0
CIRCLE
5
1042
100
AcDbEntity
100
AcDbCircle
10
0
20
0
30
0
40
9
8
gear_guides
0
CIRCLE
5
1043
100
AcDbEntity
100
AcDbCircle
10
0
20
0
30
0
40
9.5
8
gear_guides
0
CIRCLE
5
1044
100
AcDbEntity
100
AcDbCircle
10
0
20
0
30
0
40
8.457234
8
gear_guides
0
ENDSEC
0
SECTION
2
OBJECTS
0
DICTIONARY
5
21D
330
0
100
AcDbDictionary
281
1
3
ACAD_CIP_PREVIOUS_PRODUCT_INFO
350
291
3
ACAD_COLOR
350
273
3
ACAD_DETAILVIEWSTYLE
350
27B
3
ACAD_GROUP
350
21E
3
ACAD_LAYOUT
350
272
3
ACAD_MATERIAL
350
221
3
ACAD_MLEADERSTYLE
350
276
3
ACAD_MLINESTYLE
350
26F
3
ACAD_PLOTSETTINGS
350
271
3
ACAD_PLOTSTYLENAME
350
21F
3
ACAD_SCALELIST
350
253
3
ACAD_SECTIONVIEWSTYLE
350
278
3
ACAD_TABLESTYLE
350
274
3
ACAD_VISUALSTYLE
350
23A
3
ACDB_RECOMPOSE_DATA
350
1057
3
AcDbVariableDictionary
350
29D
0
DICTIONARY
5
297
330
213
100
AcDbDictionary
280
1
281
1
3
ACAD_LAYERSTATES
360
298
0
DICTIONARY
5
292
330
265
100
AcDbDictionary
280
1
281
1
3
ADSK_XREC_LAYER_RECONCILED
360
293
0
XRECORD
5
291
102
{ACAD_REACTORS
330
21D
102
}
330
21D
100
AcDbXrecord
280
1
300
ACDMAC
300
2013
300
ACDMAC_F_S
0
DICTIONARY
5
273
102
{ACAD_REACTORS
330
21D
102
}
330
21D
100
AcDbDictionary
281
1
0
DICTIONARY
5
27B
102
{ACAD_REACTORS
330
21D
102
}
330
21D
100
AcDbDictionary
281
1
3
Imperial24
350
27C
0
DICTIONARY
5
21E
102
{ACAD_REACTORS
330
21D
102
}
330
21D
100
AcDbDictionary
281
1
0
DICTIONARY
5
272
102
{ACAD_REACTORS
330
21D
102
}
330
21D
100
AcDbDictionary
281
1
3
Layout1
350
280
3
Model
350
284
0
DICTIONARY
5
221
102
{ACAD_REACTORS
330
21D
102
}
330
21D
100
AcDbDictionary
281
1
3
ByBlock
350
22A
3
ByLayer
350
222
3
Global
350
232
0
DICTIONARY
5
276
102
{ACAD_REACTORS
330
21D
102
}
330
21D
100
AcDbDictionary
281
1
3
Standard
350
277
0
DICTIONARY
5
26F
102
{ACAD_REACTORS
330
21D
102
}
330
21D
100
AcDbDictionary
281
1
3
Standard
350
270
0
DICTIONARY
5
271
102
{ACAD_REACTORS
330
21D
102
}
330
21D
100
AcDbDictionary
281
1
0
ACDBDICTIONARYWDFLT
5
21F
102
{ACAD_REACTORS
330
21D
102
}
330
21D
100
AcDbDictionary
281
1
3
Normal
350
220
100
AcDbDictionaryWithDefault
340
220
0
DICTIONARY
5
253
102
{ACAD_REACTORS
330
21D
102
}
330
21D
100
AcDbDictionary
281
1
3
A0
350
254
3
A1
350
255
3
A2
350
256
3
A3
350
257
3
A4
350
258
3
A5
350
259
3
A6
350
25A
3
A7
350
25B
3
A8
350
25C
3
A9
350
25D
3
B0
350
25E
3
B1
350
25F
3
B2
350
260
3
B3
350
261
3
B4
350
262
3
B5
350
263
3
B6
350
264
0
DICTIONARY
5
278
102
{ACAD_REACTORS
330
21D
102
}
330
21D
100
AcDbDictionary
281
1
3
Imperial24
350
27A
0
DICTIONARY
5
274
102
{ACAD_REACTORS
330
21D
102
}
330
21D
100
AcDbDictionary
281
1
3
Standard
350
275
0
DICTIONARY
5
23A
102
{ACAD_REACTORS
330
21D
102
}
330
21D
100
AcDbDictionary
281
1
3
2dWireframe
350
240
3
Basic
350
23F
3
Brighten
350
246
3
ColorChange
350
24A
3
Conceptual
350
243
3
Dim
350
245
3
EdgeColorOff
350
252
3
Facepattern
350
249
3
Flat
350
23B
3
FlatWithEdges
350
23C
3
Gouraud
350
23D
3
GouraudWithEdges
350
23E
3
Hidden
350
242
3
JitterOff
350
250
3
Linepattern
350
248
3
OverhangOff
350
251
3
Realistic
350
244
3
Shaded
350
24F
3
Shaded with edges
350
24E
3
Shades of Gray
350
24B
3
Sketchy
350
24C
3
Thicken
350
247
3
Wireframe
350
241
3
X-Ray
350
24D
0
XRECORD
5
1057
102
{ACAD_REACTORS
330
21D
102
}
330
21D
100
AcDbXrecord
280
1
90
1
330
275
0
DICTIONARY
5
29D
102
{ACAD_REACTORS
330
21D
102
}
330
21D
100
AcDbDictionary
281
1
3
CANNOSCALE
350
2A3
3
CMLEADERSTYLE
350
29F
3
CTABLESTYLE
350
29E
3
CVIEWDETAILSTYLE
350
2A0
3
CVIEWSECTIONSTYLE
350
2A1
3
LAYEREVAL
350
2A5
3
LAYERNOTIFY
350
2A6
3
LIGHTINGUNITS
350
2A4
3
MSLTSCALE
350
2A2
0
DICTIONARY
5
298
102
{ACAD_REACTORS
330
297
102
}
330
297
100
AcDbDictionary
281
1
0
XRECORD
5
293
102
{ACAD_REACTORS
330
292
102
}
330
292
100
AcDbXrecord
280
1
290
1
0
ACDBDETAILVIEWSTYLE
5
27C
102
{ACAD_REACTORS
330
27B
102
}
330
27B
100
AcDbModelDocViewStyle
70
0
3
Imperial24
290
0
100
AcDbDetailViewStyle
70
0
71
0
90
3
71
1
340
266
62
256
40
0.24
340
0
62
256
40
0.24
300

40
0.36
280
3
71
2
340
26D
90
25
62
256
71
3
340
266
62
256
40
0.24
90
1
40
0.75
90
1
300
%<AcVar ViewType  "%tc1">% %<AcVar ViewDetailId>%PSCALE %<AcVar ViewScale  "%sn">%
71
4
340
26D
90
25
62
256
340
26D
90
25
62
256
280
0
0
LAYOUT
5
280
102
{ACAD_REACTORS
330
272
102
}
330
272
100
AcDbPlotSettings
1

2
HP_LaserJet_P1505
4

6

40
0.0
41
0.0
42
0.0
43
0.0
44
0.0
45
0.0
46
0.0
47
0.0
48
0.0
49
0.0
140
0.0
141
0.0
142
1.0
143
1.0
70
688
72
0
73
0
74
5
7

75
16
147
1.0
76
0
77
2
78
300
148
0.0
149
0.0
100
AcDbLayout
1
Layout1
70
1
71
1
10
0.0
20
0.0
11
12.0
21
9.0
12
0.0
22
0.0
32
0.0
14
0.0
24
0.0
34
0.0
15
0.0
25
0.0
35
0.0
146
0.0
13
0.0
23
0.0
33
0.0
16
1.0
26
0.0
36
0.0
17
0.0
27
1.0
37
0.0
76
0
330
27D
0
LAYOUT
5
284
102
{ACAD_REACTORS
330
272
102
}
330
272
100
AcDbPlotSettings
1

2
HP_LaserJet_P1505
4

6

40
0.0
41
0.0
42
0.0
43
0.0
44
0.0
45
0.0
46
0.0
47
0.0
48
0.0
49
0.0
140
0.0
141
0.0
142
1.0
143
1.0
70
1712
72
0
73
0
74
0
7

75
0
147
1.0
76
0
77
2
78
300
148
0.0
149
0.0
100
AcDbLayout
1
Model
70
1
71
0
10
0.0
20
0.0
11
12.0
21
9.0
12
0.0
22
0.0
32
0.0
14
0.0
24
0.0
34
0.0
15
0.0
25
0.0
35
0.0
146
0.0
13
0.0
23
0.0
33
0.0
16
1.0
26
0.0
36
0.0
17
0.0
27
1.0
37
0.0
76
0
330
281
331
285
0
MATERIAL
5
22A
102
{ACAD_XDICTIONARY
360
22B
102
}
102
{ACAD_REACTORS
330
221
102
}
330
221
100
AcDbMaterial
1
ByBlock
72
0
43
0.0208333333333333
43
0.0
43
0.0
43
0.0
43
0.0
43
0.0208333333333333
43
0.0
43
0.0
43
0.0
43
0.0
43
1.0
43
0.0
43
0.0
43
0.0
43
0.0
43
1.0
77
0
47
0.0208333333333333
47
0.0
47
0.0
47
0.0
47
0.0
47
0.0208333333333333
47
0.0
47
0.0
47
0.0
47
0.0
47
1.0
47
0.0
47
0.0
47
0.0
47
0.0
47
1.0
171
0
49
0.0208333333333333
49
0.0
49
0.0
49
0.0
49
0.0
49
0.0208333333333333
49
0.0
49
0.0
49
0.0
49
0.0
49
1.0
49
0.0
49
0.0
49
0.0
49
0.0
49
1.0
175
0
142
0.0208333333333333
142
0.0
142
0.0
142
0.0
142
0.0
142
0.0208333333333333
142
0.0
142
0.0
142
0.0
142
0.0
142
1.0
142
0.0
142
0.0
142
0.0
142
0.0
142
1.0
179
0
144
0.0208333333333333
144
0.0
144
0.0
144
0.0
144
0.0
144
0.0208333333333333
144
0.0
144
0.0
144
0.0
144
0.0
144
1.0
144
0.0
144
0.0
144
0.0
144
0.0
144
1.0
147
0.0208333333333333
147
0.0
147
0.0
147
0.0
147
0.0
147
0.0208333333333333
147
0.0
147
0.0
147
0.0
147
0.0
147
1.0
147
0.0
147
0.0
147
0.0
147
0.0
147
1.0
0
MATERIAL
5
222
102
{ACAD_XDICTIONARY
360
223
102
}
102
{ACAD_REACTORS
330
221
102
}
330
221
100
AcDbMaterial
1
ByLayer
72
0
43
0.0208333333333333
43
0.0
43
0.0
43
0.0
43
0.0
43
0.0208333333333333
43
0.0
43
0.0
43
0.0
43
0.0
43
1.0
43
0.0
43
0.0
43
0.0
43
0.0
43
1.0
77
0
47
0.0208333333333333
47
0.0
47
0.0
47
0.0
47
0.0
47
0.0208333333333333
47
0.0
47
0.0
47
0.0
47
0.0
47
1.0
47
0.0
47
0.0
47
0.0
47
0.0
47
1.0
171
0
49
0.0208333333333333
49
0.0
49
0.0
49
0.0
49
0.0
49
0.0208333333333333
49
0.0
49
0.0
49
0.0
49
0.0
49
1.0
49
0.0
49
0.0
49
0.0
49
0.0
49
1.0
175
0
142
0.0208333333333333
142
0.0
142
0.0
142
0.0
142
0.0
142
0.0208333333333333
142
0.0
142
0.0
142
0.0
142
0.0
142
1.0
142
0.0
142
0.0
142
0.0
142
0.0
142
1.0
179
0
144
0.0208333333333333
144
0.0
144
0.0
144
0.0
144
0.0
144
0.0208333333333333
144
0.0
144
0.0
144
0.0
144
0.0
144
1.0
144
0.0
144
0.0
144
0.0
144
0.0
144
1.0
147
0.0208333333333333
147
0.0
147
0.0
147
0.0
147
0.0
147
0.0208333333333333
147
0.0
147
0.0
147
0.0
147
0.0
147
1.0
147
0.0
147
0.0
147
0.0
147
0.0
147
1.0
0
MATERIAL
5
232
102
{ACAD_XDICTIONARY
360
233
102
}
102
{ACAD_REACTORS
330
221
102
}
330
221
100
AcDbMaterial
1
Global
72
0
43
0.0208333333333333
43
0.0
43
0.0
43
0.0
43
0.0
43
0.0208333333333333
43
0.0
43
0.0
43
0.0
43
0.0
43
1.0
43
0.0
43
0.0
43
0.0
43
0.0
43
1.0
77
0
47
0.0208333333333333
47
0.0
47
0.0
47
0.0
47
0.0
47
0.0208333333333333
47
0.0
47
0.0
47
0.0
47
0.0
47
1.0
47
0.0
47
0.0
47
0.0
47
0.0
47
1.0
171
0
49
0.0208333333333333
49
0.0
49
0.0
49
0.0
49
0.0
49
0.0208333333333333
49
0.0
49
0.0
49
0.0
49
0.0
49
1.0
49
0.0
49
0.0
49
0.0
49
0.0
49
1.0
175
0
142
0.0208333333333333
142
0.0
142
0.0
142
0.0
142
0.0
142
0.0208333333333333
142
0.0
142
0.0
142
0.0
142
0.0
142
1.0
142
0.0
142
0.0
142
0.0
142
0.0
142
1.0
179
0
144
0.0208333333333333
144
0.0
144
0.0
144
0.0
144
0.0
144
0.0208333333333333
144
0.0
144
0.0
144
0.0
144
0.0
144
1.0
144
0.0
144
0.0
144
0.0
144
0.0
144
1.0
147
0.0208333333333333
147
0.0
147
0.0
147
0.0
147
0.0
147
0.0208333333333333
147
0.0
147
0.0
147
0.0
147
0.0
147
1.0
147
0.0
147
0.0
147
0.0
147
0.0
147
1.0
0
MLEADERSTYLE
5
277
102
{ACAD_REACTORS
330
276
102
}
330
276
100
AcDbMLeaderStyle
179
2
170
2
171
1
172
0
90
2
40
0.0
41
0.0
173
1
91
-1056964608
340
26B
92
-2
290
1
42
0.09
291
1
43
0.36
3
Standard
44
0.18
300

342
266
174
1
178
6
175
1
176
0
93
-1056964608
45
0.18
292
0
297
0
46
0.18
94
-1056964608
47
1.0
49
1.0
140
1.0
293
1
141
0.0
294
1
177
0
142
1.0
295
0
296
0
143
0.125
271
0
272
9
273
9
298
0
0
MLINESTYLE
5
270
102
{ACAD_REACTORS
330
26F
102
}
330
26F
100
AcDbMlineStyle
2
STANDARD
70
0
3

62
256
51
90.0
52
90.0
71
2
49
0.5
62
256
6
BYLAYER
49
-0.5
62
256
6
BYLAYER
0
ACDBPLACEHOLDER
5
220
102
{ACAD_REACTORS
330
21F
102
}
330
21F
0
SCALE
5
254
102
{ACAD_REACTORS
330
253
102
}
330
253
100
AcDbScale
70
0
300
1:1
140
1.0
141
1.0
290
1
0
SCALE
5
255
102
{ACAD_REACTORS
330
253
102
}
330
253
100
AcDbScale
70
0
300
1/128" = 1'-0"
140
0.0078125
141
12.0
290
0
0
SCALE
5
256
102
{ACAD_REACTORS
330
253
102
}
330
253
100
AcDbScale
70
0
300
1/64" = 1'-0"
140
0.015625
141
12.0
290
0
0
SCALE
5
257
102
{ACAD_REACTORS
330
253
102
}
330
253
100
AcDbScale
70
0
300
1/32" = 1'-0"
140
0.03125
141
12.0
290
0
0
SCALE
5
258
102
{ACAD_REACTORS
330
253
102
}
330
253
100
AcDbScale
70
0
300
1/16" = 1'-0"
140
0.0625
141
12.0
290
0
0
SCALE
5
259
102
{ACAD_REACTORS
330
253
102
}
330
253
100
AcDbScale
70
0
300
3/32" = 1'-0"
140
0.09375
141
12.0
290
0
0
SCALE
5
25A
102
{ACAD_REACTORS
330
253
102
}
330
253
100
AcDbScale
70
0
300
1/8" = 1'-0"
140
0.125
141
12.0
290
0
0
SCALE
5
25B
102
{ACAD_REACTORS
330
253
102
}
330
253
100
AcDbScale
70
0
300
3/16" = 1'-0"
140
0.1875
141
12.0
290
0
0
SCALE
5
25C
102
{ACAD_REACTORS
330
253
102
}
330
253
100
AcDbScale
70
0
300
1/4" = 1'-0"
140
0.25
141
12.0
290
0
0
SCALE
5
25D
102
{ACAD_REACTORS
330
253
102
}
330
253
100
AcDbScale
70
0
300
3/8" = 1'-0"
140
0.375
141
12.0
290
0
0
SCALE
5
25E
102
{ACAD_REACTORS
330
253
102
}
330
253
100
AcDbScale
70
0
300
1/2" = 1'-0"
140
0.5
141
12.0
290
0
0
SCALE
5
25F
102
{ACAD_REACTORS
330
253
102
}
330
253
100
AcDbScale
70
0
300
3/4" = 1'-0"
140
0.75
141
12.0
290
0
0
SCALE
5
260
102
{ACAD_REACTORS
330
253
102
}
330
253
100
AcDbScale
70
0
300
1" = 1'-0"
140
1.0
141
12.0
290
0
0
SCALE
5
261
102
{ACAD_REACTORS
330
253
102
}
330
253
100
AcDbScale
70
0
300
1-1/2" = 1'-0"
140
1.5
141
12.0
290
0
0
SCALE
5
262
102
{ACAD_REACTORS
330
253
102
}
330
253
100
AcDbScale
70
0
300
3" = 1'-0"
140
3.0
141
12.0
290
0
0
SCALE
5
263
102
{ACAD_REACTORS
330
253
102
}
330
253
100
AcDbScale
70
0
300
6" = 1'-0"
140
6.0
141
12.0
290
0
0
SCALE
5
264
102
{ACAD_REACTORS
330
253
102
}
330
253
100
AcDbScale
70
0
300
1'-0" = 1'-0"
140
12.0
141
12.0
290
0
0
ACDBSECTIONVIEWSTYLE
5
27A
102
{ACAD_REACTORS
330
278
102
}
330
278
100
AcDbModelDocViewStyle
70
0
3
Imperial24
290
0
100
AcDbSectionViewStyle
70
0
71
0
90
78
71
1
340
266
62
256
40
0.24
340
0
340
0
62
256
40
0.24
300
I, O, Q, S, X, Z
40
0.48
90
3
40
0.18
90
1
71
2
340
279
90
25
62
256
340
26D
90
50
62
256
40
0.24
40
0.0
40
0.24
71
3
340
266
62
256
40
0.24
90
1
40
0.75
90
1
300
%<AcVar ViewType  "%tc1">% %<AcVar ViewSectionStartId>%-%<AcVar ViewSectionEndId>%PSCALE %<AcVar ViewScale  "%sn">%
71
4
62
256
62
257
300
ANSI31
40
1.0
90
0
290
0
290
0
90
6
40
0.0
40
1.570796326794896
40
0.2617993877991494
40
1.308996938995747
40
-0.2617993877991494
40
1.832595714594044
0
TABLESTYLE
5
275
102
{ACAD_XDICTIONARY
360
2A7
102
}
102
{ACAD_REACTORS
330
274
102
}
330
274
100
AcDbTableStyle
280
0
3
Standard
70
0
71
0
40
0.06
41
0.06
280
0
281
0
7
STANDARD
140
0.18
170
2
62
0
63
7
283
0
90
512
91
0
1

274
-2
284
1
64
0
275
-2
285
1
65
0
276
-2
286
1
66
0
277
-2
287
1
67
0
278
-2
288
1
68
0
279
-2
289
1
69
0
7
STANDARD
140
0.25
170
5
62
0
63
7
283
0
90
512
91
0
1

274
-2
284
1
64
0
275
-2
285
1
65
0
276
-2
286
1
66
0
277
-2
287
1
67
0
278
-2
288
1
68
0
279
-2
289
1
69
0
7
STANDARD
140
0.18
170
5
62
0
63
7
283
0
90
512
91
0
1

274
-2
284
1
64
0
275
-2
285
1
65
0
276
-2
286
1
66
0
277
-2
287
1
67
0
278
-2
288
1
68
0
279
-2
289
1
69
0
0
VISUALSTYLE
5
240
102
{ACAD_REACTORS
330
23A
102
}
330
23A
100
AcDbVisualStyle
2
2dWireframe
70
4
177
3
291
0
70
58
90
0
176
1
90
2
176
1
90
0
176
1
90
0
176
1
40
0.6
176
1
40
30.0
176
1
62
7
420
16777215
176
1
90
1
176
1
90
4
176
1
62
7
176
1
62
257
176
1
90
1
176
1
90
1
176
1
40
1.0
176
1
90
0
176
1
62
257
176
1
40
1.0
176
1
90
1
176
1
90
6
176
1
90
2
176
1
62
7
176
1
90
5
176
1
90
0
176
1
90
0
176
1
290
0
176
1
90
1
176
1
40
0.0
176
1
90
0
176
1
290
1
176
1
290
1
176
1
290
0
176
1
290
0
176
1
290
0
176
1
290
0
176
1
290
0
176
1
290
0
176
1
290
0
176
1
90
50
176
1
40
0.0
176
1
40
1.0
176
1
90
0
176
1
62
18
176
1
90
50
176
1
90
3
176
1
62
5
420
255
176
1
290
0
176
1
90
50
176
1
90
50
176
1
90
50
176
1
290
0
176
1
90
50
176
1
62
256
176
0
40
1.0
176
0
90
2
176
1
1
strokes_ogs.tif
176
1
290
0
176
1
40
1.0
176
1
40
1.0
176
1
1001
ACAD
1000
AcDbSavedByObjectVersion
1070
0
0
VISUALSTYLE
5
23F
102
{ACAD_REACTORS
330
23A
102
}
330
23A
100
AcDbVisualStyle
2
Basic
70
7
177
3
291
1
70
58
90
1
176
1
90
0
176
1
90
1
176
1
90
0
176
1
40
0.6
176
1
40
30.0
176
1
62
7
420
16777215
176
1
90
0
176
1
90
4
176
1
62
7
176
1
62
257
176
1
90
1
176
1
90
1
176
1
40
1.0
176
1
90
8
176
1
62
7
176
1
40
1.0
176
1
90
1
176
1
90
6
176
1
90
2
176
1
62
7
176
1
90
5
176
1
90
0
176
1
90
0
176
1
290
0
176
1
90
1
176
1
40
0.0
176
1
90
0
176
1
290
0
176
1
290
1
176
1
290
1
176
1
290
0
176
1
290
0
176
1
290
0
176
1
290
0
176
1
290
0
176
1
290
0
176
1
90
50
176
1
40
0.0
176
1
40
1.0
176
1
90
0
176
1
62
18
176
1
90
50
176
1
90
3
176
1
62
5
420
255
176
1
290
0
176
1
90
50
176
1
90
50
176
1
90
50
176
1
290
0
176
1
90
50
176
1
62
256
176
0
40
1.0
176
0
90
2
176
1
1
strokes_ogs.tif
176
1
290
0
176
1
40
1.0
176
1
40
1.0
176
1
1001
ACAD
1000
AcDbSavedByObjectVersion
1070
0
0
VISUALSTYLE
5
246
102
{ACAD_REACTORS
330
23A
102
}
330
23A
100
AcDbVisualStyle
2
Brighten
70
12
177
3
291
1
70
58
90
2
176
1
90
2
176
1
90
0
176
1
90
0
176
1
40
0.6
176
1
40
30.0
176
1
62
7
420
16777215
176
1
90
1
176
1
90
4
176
1
62
7
176
1
62
257
176
1
90
1
176
1
90
1
176
1
40
1.0
176
1
90
8
176
1
62
7
176
1
40
1.0
176
1
90
1
176
1
90
6
176
1
90
2
176
1
62
7
176
1
90
5
176
1
90
0
176
1
90
0
176
1
290
0
176
1
90
1
176
1
40
50.0
176
1
90
0
176
1
290
0
176
1
290
1
176
1
290
1
176
1
290
0
176
1
290
0
176
1
290
0
176
1
290
0
176
1
290
0
176
1
290
0
176
1
90
50
176
1
40
0.0
176
1
40
1.0
176
1
90
0
176
1
62
18
176
1
90
50
176
1
90
3
176
1
62
5
420
255
176
1
290
0
176
1
90
50
176
1
90
50
176
1
90
50
176
1
290
0
176
1
90
50
176
1
62
256
176
0
40
1.0
176
0
90
2
176
1
1
strokes_ogs.tif
176
1
290
0
176
1
40
1.0
176
1
40
1.0
176
1
1001
ACAD
1000
AcDbSavedByObjectVersion
1070
0
0
VISUALSTYLE
5
24A
102
{ACAD_REACTORS
330
23A
102
}
330
23A
100
AcDbVisualStyle
2
ColorChange
70
16
177
3
291
1
70
58
90
2
176
1
90
2
176
1
90
3
176
1
90
0
176
1
40
0.6
176
1
40
30.0
176
1
62
8
420
8421504
176
1
90
1
176
1
90
4
176
1
62
7
176
1
62
257
176
1
90
1
176
1
90
1
176
1
40
1.0
176
1
90
8
176
1
62
8
420
8421504
176
1
40
1.0
176
1
90
1
176
1
90
6
176
1
90
2
176
1
62
7
176
1
90
5
176
1
90
0
176
1
90
0
176
1
290
0
176
1
90
1
176
1
40
0.0
176
1
90
0
176
1
290
0
176
1
290
1
176
1
290
1
176
1
290
0
176
1
290
0
176
1
290
0
176
1
290
0
176
1
290
0
176
1
290
0
176
1
90
50
176
1
40
0.0
176
1
40
1.0
176
1
90
0
176
1
62
18
176
1
90
50
176
1
90
3
176
1
62
5
420
255
176
1
290
0
176
1
90
50
176
1
90
50
176
1
90
50
176
1
290
0
176
1
90
50
176
1
62
256
176
0
40
1.0
176
0
90
2
176
1
1
strokes_ogs.tif
176
1
290
0
176
1
40
1.0
176
1
40
1.0
176
1
1001
ACAD
1000
AcDbSavedByObjectVersion
1070
0
0
VISUALSTYLE
5
243
102
{ACAD_REACTORS
330
23A
102
}
330
23A
100
AcDbVisualStyle
2
Conceptual
70
9
177
3
291
0
70
58
90
3
176
1
90
2
176
1
90
0
176
1
90
0
176
1
40
0.6
176
1
40
30.0
176
1
62
7
420
16777215
176
1
90
2
176
1
90
2
176
1
62
7
176
1
62
257
176
1
90
1
176
1
90
1
176
1
40
179.0
176
1
90
8
176
1
62
7
176
1
40
1.0
176
1
90
1
176
1
90
6
176
1
90
2
176
1
62
7
176
1
90
3
176
1
90
0
176
1
90
0
176
1
290
0
176
1
90
1
176
1
40
0.0
176
1
90
0
176
1
290
0
176
1
290
1
176
1
290
1
176
1
290
0
176
1
290
0
176
1
290
0
176
1
290
0
176
1
290
0
176
1
290
0
176
1
90
50
176
1
40
0.0
176
1
40
1.0
176
1
90
0
176
1
62
18
176
1
90
50
176
1
90
3
176
1
62
5
420
255
176
1
290
0
176
1
90
50
176
1
90
50
176
1
90
50
176
1
290
0
176
1
90
50
176
1
62
256
176
0
40
1.0
176
0
90
2
176
1
1
strokes_ogs.tif
176
1
290
0
176
1
40
1.0
176
1
40
1.0
176
1
1001
ACAD
1000
AcDbSavedByObjectVersion
1070
0
0
VISUALSTYLE
5
245
102
{ACAD_REACTORS
330
23A
102
}
330
23A
100
AcDbVisualStyle
2
Dim
70
11
177
3
291
1
70
58
90
2
176
1
90
2
176
1
90
0
176
1
90
0
176
1
40
0.6
176
1
40
30.0
176
1
62
7
420
16777215
176
1
90
1
176
1
90
4
176
1
62
7
176
1
62
257
176
1
90
1
176
1
90
1
176
1
40
1.0
176
1
90
8
176
1
62
7
176
1
40
1.0
176
1
90
1
176
1
90
6
176
1
90
2
176
1
62
7
176
1
90
5
176
1
90
0
176
1
90
0
176
1
290
0
176
1
90
1
176
1
40
-50.0
176
1
90
0
176
1
290
0
176
1
290
1
176
1
290
1
176
1
290
0
176
1
290
0
176
1
290
0
176
1
290
0
176
1
290
0
176
1
290
0
176
1
90
50
176
1
40
0.0
176
1
40
1.0
176
1
90
0
176
1
62
18
176
1
90
50
176
1
90
3
176
1
62
5
420
255
176
1
290
0
176
1
90
50
176
1
90
50
176
1
90
50
176
1
290
0
176
1
90
50
176
1
62
256
176
0
40
1.0
176
0
90
2
176
1
1
strokes_ogs.tif
176
1
290
0
176
1
40
1.0
176
1
40
1.0
176
1
1001
ACAD
1000
AcDbSavedByObjectVersion
1070
0
0
VISUALSTYLE
5
252
102
{ACAD_REACTORS
330
23A
102
}
330
23A
100
AcDbVisualStyle
2
EdgeColorOff
70
22
177
3
291
1
70
58
90
2
176
0
90
2
176
0
90
0
176
0
90
0
176
0
40
0.6
176
0
40
30.0
176
0
62
7
420
16777215
176
0
90
1
176
0
90
4
176
0
62
7
176
0
62
257
176
0
90
1
176
0
90
1
176
0
40
1.0
176
0
90
8
176
2
62
7
176
0
40
1.0
176
0
90
1
176
0
90
6
176
0
90
2
176
0
62
7
176
0
90
5
176
0
90
0
176
0
90
0
176
0
290
0
176
0
90
1
176
0
40
0.0
176
0
90
0
176
0
290
0
176
1
290
1
176
1
290
1
176
1
290
0
176
1
290
0
176
1
290
0
176
1
290
0
176
1
290
0
176
1
290
0
176
1
90
50
176
0
40
0.0
176
0
40
1.0
176
0
90
0
176
0
62
18
176
0
90
50
176
0
90
3
176
0
62
5
420
255
176
0
290
0
176
1
90
50
176
0
90
50
176
0
90
50
176
0
290
0
176
1
90
50
176
0
62
256
176
0
40
1.0
176
0
90
2
176
0
1
strokes_ogs.tif
176
0
290
0
176
1
40
1.0
176
0
40
1.0
176
0
1001
ACAD
1000
AcDbSavedByObjectVersion
1070
0
0
VISUALSTYLE
5
249
102
{ACAD_REACTORS
330
23A
102
}
330
23A
100
AcDbVisualStyle
2
Facepattern
70
15
177
3
291
1
70
58
90
2
176
1
90
2
176
1
90
0
176
1
90
0
176
1
40
0.6
176
1
40
30.0
176
1
62
7
420
16777215
176
1
90
1
176
1
90
4
176
1
62
7
176
1
62
257
176
1
90
1
176
1
90
1
176
1
40
1.0
176
1
90
8
176
1
62
7
176
1
40
1.0
176
1
90
1
176
1
90
6
176
1
90
2
176
1
62
7
176
1
90
5
176
1
90
0
176
1
90
0
176
1
290
0
176
1
90
1
176
1
40
0.0
176
1
90
0
176
1
290
0
176
1
290
1
176
1
290
1
176
1
290
0
176
1
290
0
176
1
290
0
176
1
290
0
176
1
290
0
176
1
290
0
176
1
90
50
176
1
40
0.0
176
1
40
1.0
176
1
90
0
176
1
62
18
176
1
90
50
176
1
90
3
176
1
62
5
420
255
176
1
290
0
176
1
90
50
176
1
90
50
176
1
90
50
176
1
290
0
176
1
90
50
176
1
62
256
176
0
40
1.0
176
0
90
2
176
1
1
strokes_ogs.tif
176
1
290
0
176
1
40
1.0
176
1
40
1.0
176
1
1001
ACAD
1000
AcDbSavedByObjectVersion
1070
0
0
VISUALSTYLE
5
23B
102
{ACAD_REACTORS
330
23A
102
}
330
23A
100
AcDbVisualStyle
2
Flat
70
0
177
3
291
1
70
58
90
2
176
1
90
1
176
1
90
1
176
1
90
2
176
1
40
0.6
176
1
40
30.0
176
1
62
7
420
16777215
176
1
90
0
176
1
90
0
176
1
62
7
176
1
62
257
176
1
90
1
176
1
90
1
176
1
40
1.0
176
1
90
8
176
1
62
7
176
1
40
1.0
176
1
90
1
176
1
90
6
176
1
90
2
176
1
62
7
176
1
90
5
176
1
90
0
176
1
90
0
176
1
290
0
176
1
90
13
176
1
40
0.0
176
1
90
0
176
1
290
0
176
1
290
1
176
1
290
1
176
1
290
0
176
1
290
0
176
1
290
0
176
1
290
0
176
1
290
0
176
1
290
0
176
1
90
50
176
1
40
0.0
176
1
40
1.0
176
1
90
0
176
1
62
18
176
1
90
50
176
1
90
3
176
1
62
5
420
255
176
1
290
0
176
1
90
50
176
1
90
50
176
1
90
50
176
1
290
0
176
1
90
50
176
1
62
256
176
0
40
1.0
176
0
90
2
176
1
1
strokes_ogs.tif
176
1
290
0
176
1
40
1.0
176
1
40
1.0
176
1
1001
ACAD
1000
AcDbSavedByObjectVersion
1070
0
0
VISUALSTYLE
5
23C
102
{ACAD_REACTORS
330
23A
102
}
330
23A
100
AcDbVisualStyle
2
FlatWithEdges
70
1
177
3
291
1
70
58
90
2
176
1
90
1
176
1
90
1
176
1
90
2
176
1
40
0.6
176
1
40
30.0
176
1
62
7
420
16777215
176
1
90
1
176
1
90
0
176
1
62
7
176
1
62
257
176
1
90
1
176
1
90
1
176
1
40
1.0
176
1
90
0
176
1
62
257
176
1
40
1.0
176
1
90
1
176
1
90
6
176
1
90
2
176
1
62
7
176
1
90
5
176
1
90
0
176
1
90
0
176
1
290
0
176
1
90
13
176
1
40
0.0
176
1
90
0
176
1
290
0
176
1
290
1
176
1
290
1
176
1
290
0
176
1
290
0
176
1
290
0
176
1
290
0
176
1
290
0
176
1
290
0
176
1
90
50
176
1
40
0.0
176
1
40
1.0
176
1
90
0
176
1
62
18
176
1
90
50
176
1
90
3
176
1
62
5
420
255
176
1
290
0
176
1
90
50
176
1
90
50
176
1
90
50
176
1
290
0
176
1
90
50
176
1
62
256
176
0
40
1.0
176
0
90
2
176
1
1
strokes_ogs.tif
176
1
290
0
176
1
40
1.0
176
1
40
1.0
176
1
1001
ACAD
1000
AcDbSavedByObjectVersion
1070
0
0
VISUALSTYLE
5
23D
102
{ACAD_REACTORS
330
23A
102
}
330
23A
100
AcDbVisualStyle
2
Gouraud
70
2
177
3
291
1
70
58
90
2
176
1
90
2
176
1
90
1
176
1
90
2
176
1
40
0.6
176
1
40
30.0
176
1
62
7
420
16777215
176
1
90
0
176
1
90
0
176
1
62
7
176
1
62
257
176
1
90
1
176
1
90
1
176
1
40
1.0
176
1
90
0
176
1
62
7
176
1
40
1.0
176
1
90
1
176
1
90
6
176
1
90
2
176
1
62
7
176
1
90
5
176
1
90
0
176
1
90
0
176
1
290
0
176
1
90
13
176
1
40
0.0
176
1
90
0
176
1
290
0
176
1
290
1
176
1
290
1
176
1
290
0
176
1
290
0
176
1
290
0
176
1
290
0
176
1
290
0
176
1
290
0
176
1
90
50
176
1
40
0.0
176
1
40
1.0
176
1
90
0
176
1
62
18
176
1
90
50
176
1
90
3
176
1
62
5
420
255
176
1
290
0
176
1
90
50
176
1
90
50
176
1
90
50
176
1
290
0
176
1
90
50
176
1
62
256
176
0
40
1.0
176
0
90
2
176
1
1
strokes_ogs.tif
176
1
290
0
176
1
40
1.0
176
1
40
1.0
176
1
1001
ACAD
1000
AcDbSavedByObjectVersion
1070
0
0
VISUALSTYLE
5
23E
102
{ACAD_REACTORS
330
23A
102
}
330
23A
100
AcDbVisualStyle
2
GouraudWithEdges
70
3
177
3
291
1
70
58
90
2
176
1
90
2
176
1
90
1
176
1
90
2
176
1
40
0.6
176
1
40
30.0
176
1
62
7
420
16777215
176
1
90
1
176
1
90
0
176
1
62
7
176
1
62
257
176
1
90
1
176
1
90
1
176
1
40
1.0
176
1
90
0
176
1
62
257
176
1
40
1.0
176
1
90
1
176
1
90
6
176
1
90
2
176
1
62
7
176
1
90
5
176
1
90
0
176
1
90
0
176
1
290
0
176
1
90
13
176
1
40
0.0
176
1
90
0
176
1
290
0
176
1
290
1
176
1
290
1
176
1
290
0
176
1
290
0
176
1
290
0
176
1
290
0
176
1
290
0
176
1
290
0
176
1
90
50
176
1
40
0.0
176
1
40
1.0
176
1
90
0
176
1
62
18
176
1
90
50
176
1
90
3
176
1
62
5
420
255
176
1
290
0
176
1
90
50
176
1
90
50
176
1
90
50
176
1
290
0
176
1
90
50
176
1
62
256
176
0
40
1.0
176
0
90
2
176
1
1
strokes_ogs.tif
176
1
290
0
176
1
40
1.0
176
1
40
1.0
176
1
1001
ACAD
1000
AcDbSavedByObjectVersion
1070
0
0
VISUALSTYLE
5
242
102
{ACAD_REACTORS
330
23A
102
}
330
23A
100
AcDbVisualStyle
2
Hidden
70
6
177
3
291
0
70
58
90
1
176
1
90
2
176
1
90
2
176
1
90
0
176
1
40
0.6
176
1
40
30.0
176
1
62
7
420
16777215
176
1
90
2
176
1
90
2
176
1
62
7
176
1
62
257
176
1
90
2
176
1
90
1
176
1
40
40.0
176
1
90
0
176
1
62
257
176
1
40
1.0
176
1
90
1
176
1
90
6
176
1
90
2
176
1
62
7
176
1
90
3
176
1
90
0
176
1
90
0
176
1
290
0
176
1
90
1
176
1
40
0.0
176
1
90
0
176
1
290
0
176
1
290
1
176
1
290
1
176
1
290
0
176
1
290
0
176
1
290
0
176
1
290
0
176
1
290
0
176
1
290
0
176
1
90
50
176
1
40
0.0
176
1
40
1.0
176
1
90
0
176
1
62
18
176
1
90
50
176
1
90
3
176
1
62
5
420
255
176
1
290
0
176
1
90
50
176
1
90
50
176
1
90
50
176
1
290
0
176
1
90
50
176
1
62
256
176
0
40
1.0
176
0
90
2
176
1
1
strokes_ogs.tif
176
1
290
0
176
1
40
1.0
176
1
40
1.0
176
1
1001
ACAD
1000
AcDbSavedByObjectVersion
1070
0
0
VISUALSTYLE
5
250
102
{ACAD_REACTORS
330
23A
102
}
330
23A
100
AcDbVisualStyle
2
JitterOff
70
20
177
3
291
1
70
58
90
2
176
0
90
2
176
0
90
0
176
0
90
0
176
0
40
0.6
176
0
40
30.0
176
0
62
7
420
16777215
176
0
90
1
176
0
90
4
176
0
62
7
176
0
62
257
176
0
90
1
176
0
90
1
176
0
40
1.0
176
0
90
10
176
2
62
7
176
0
40
1.0
176
0
90
1
176
0
90
6
176
0
90
2
176
0
62
7
176
0
90
5
176
0
90
0
176
0
90
0
176
0
290
0
176
0
90
1
176
0
40
0.0
176
0
90
0
176
0
290
0
176
1
290
1
176
1
290
1
176
1
290
0
176
1
290
0
176
1
290
0
176
1
290
0
176
1
290
0
176
1
290
0
176
1
90
50
176
0
40
0.0
176
0
40
1.0
176
0
90
0
176
0
62
18
176
0
90
50
176
0
90
3
176
0
62
5
420
255
176
0
290
0
176
1
90
50
176
0
90
50
176
0
90
50
176
0
290
0
176
1
90
50
176
0
62
256
176
0
40
1.0
176
0
90
2
176
0
1
strokes_ogs.tif
176
0
290
0
176
1
40
1.0
176
0
40
1.0
176
0
1001
ACAD
1000
AcDbSavedByObjectVersion
1070
0
0
VISUALSTYLE
5
248
102
{ACAD_REACTORS
330
23A
102
}
330
23A
100
AcDbVisualStyle
2
Linepattern
70
14
177
3
291
1
70
58
90
2
176
1
90
2
176
1
90
0
176
1
90
0
176
1
40
0.6
176
1
40
30.0
176
1
62
7
420
16777215
176
1
90
1
176
1
90
4
176
1
62
7
176
1
62
257
176
1
90
7
176
1
90
7
176
1
40
1.0
176
1
90
8
176
1
62
7
176
1
40
1.0
176
1
90
1
176
1
90
6
176
1
90
2
176
1
62
7
176
1
90
5
176
1
90
0
176
1
90
0
176
1
290
0
176
1
90
1
176
1
40
0.0
176
1
90
0
176
1
290
0
176
1
290
1
176
1
290
1
176
1
290
0
176
1
290
0
176
1
290
0
176
1
290
0
176
1
290
0
176
1
290
0
176
1
90
50
176
1
40
0.0
176
1
40
1.0
176
1
90
0
176
1
62
18
176
1
90
50
176
1
90
3
176
1
62
5
420
255
176
1
290
0
176
1
90
50
176
1
90
50
176
1
90
50
176
1
290
0
176
1
90
50
176
1
62
256
176
0
40
1.0
176
0
90
2
176
1
1
strokes_ogs.tif
176
1
290
0
176
1
40
1.0
176
1
40
1.0
176
1
1001
ACAD
1000
AcDbSavedByObjectVersion
1070
0
0
VISUALSTYLE
5
251
102
{ACAD_REACTORS
330
23A
102
}
330
23A
100
AcDbVisualStyle
2
OverhangOff
70
21
177
3
291
1
70
58
90
2
176
0
90
2
176
0
90
0
176
0
90
0
176
0
40
0.6
176
0
40
30.0
176
0
62
7
420
16777215
176
0
90
1
176
0
90
4
176
0
62
7
176
0
62
257
176
0
90
1
176
0
90
1
176
0
40
1.0
176
0
90
9
176
2
62
7
176
0
40
1.0
176
0
90
1
176
0
90
6
176
0
90
2
176
0
62
7
176
0
90
5
176
0
90
0
176
0
90
0
176
0
290
0
176
0
90
1
176
0
40
0.0
176
0
90
0
176
0
290
0
176
1
290
1
176
1
290
1
176
1
290
0
176
1
290
0
176
1
290
0
176
1
290
0
176
1
290
0
176
1
290
0
176
1
90
50
176
0
40
0.0
176
0
40
1.0
176
0
90
0
176
0
62
18
176
0
90
50
176
0
90
3
176
0
62
5
420
255
176
0
290
0
176
1
90
50
176
0
90
50
176
0
90
50
176
0
290
0
176
1
90
50
176
0
62
256
176
0
40
1.0
176
0
90
2
176
0
1
strokes_ogs.tif
176
0
290
0
176
1
40
1.0
176
0
40
1.0
176
0
1001
ACAD
1000
AcDbSavedByObjectVersion
1070
0
0
VISUALSTYLE
5
244
102
{ACAD_REACTORS
330
23A
102
}
330
23A
100
AcDbVisualStyle
2
Realistic
70
8
177
3
291
0
70
58
90
2
176
1
90
3
176
1
90
0
176
1
90
2
176
1
40
0.6
176
1
40
30.0
176
1
62
7
420
16777215
176
1
90
0
176
1
90
0
176
1
62
7
176
1
62
257
176
1
90
1
176
1
90
1
176
1
40
1.0
176
1
90
8
176
1
62
257
176
1
40
1.0
176
1
90
1
176
1
90
6
176
1
90
2
176
1
62
7
176
1
90
3
176
1
90
0
176
1
90
0
176
1
290
0
176
1
90
13
176
1
40
0.0
176
1
90
0
176
1
290
0
176
1
290
1
176
1
290
1
176
1
290
0
176
1
290
0
176
1
290
0
176
1
290
0
176
1
290
0
176
1
290
0
176
1
90
50
176
1
40
0.0
176
1
40
1.0
176
1
90
0
176
1
62
18
176
1
90
50
176
1
90
3
176
1
62
5
420
255
176
1
290
0
176
1
90
50
176
1
90
50
176
1
90
50
176
1
290
0
176
1
90
50
176
1
62
256
176
0
40
1.0
176
0
90
2
176
1
1
strokes_ogs.tif
176
1
290
0
176
1
40
1.0
176
1
40
1.0
176
1
1001
ACAD
1000
AcDbSavedByObjectVersion
1070
0
0
VISUALSTYLE
5
24F
102
{ACAD_REACTORS
330
23A
102
}
330
23A
100
AcDbVisualStyle
2
Shaded
70
27
177
3
291
0
70
58
90
2
176
1
90
2
176
1
90
1
176
1
90
2
176
1
40
0.6
176
1
40
30.0
176
1
62
7
420
16777215
176
1
90
0
176
1
90
4
176
1
62
7
176
1
62
257
176
1
90
1
176
1
90
1
176
1
40
1.0
176
1
90
8
176
1
62
257
176
1
40
1.0
176
1
90
1
176
1
90
6
176
1
90
2
176
1
62
8
420
7895160
176
1
90
3
176
1
90
0
176
1
90
0
176
1
290
0
176
1
90
5
176
1
40
0.0
176
1
90
0
176
1
290
0
176
1
290
1
176
1
290
1
176
1
290
0
176
1
290
0
176
1
290
0
176
1
290
0
176
1
290
0
176
1
290
0
176
1
90
50
176
1
40
0.0
176
1
40
1.0
176
1
90
0
176
1
62
18
176
1
90
50
176
1
90
3
176
1
62
5
420
255
176
1
290
0
176
1
90
50
176
1
90
50
176
1
90
50
176
1
290
0
176
1
90
50
176
1
62
256
176
0
40
1.0
176
0
90
2
176
1
1
strokes_ogs.tif
176
1
290
0
176
1
40
1.0
176
1
40
1.0
176
1
1001
ACAD
1000
AcDbSavedByObjectVersion
1070
0
0
VISUALSTYLE
5
24E
102
{ACAD_REACTORS
330
23A
102
}
330
23A
100
AcDbVisualStyle
2
Shaded with edges
70
26
177
3
291
0
70
58
90
2
176
1
90
2
176
1
90
1
176
1
90
2
176
1
40
0.6
176
1
40
30.0
176
1
62
7
420
16777215
176
1
90
1
176
1
90
10
176
1
62
7
176
1
62
257
176
1
90
2
176
1
90
1
176
1
40
1.0
176
1
90
8
176
1
62
257
176
1
40
1.0
176
1
90
1
176
1
90
6
176
1
90
2
176
1
62
7
176
1
90
3
176
1
90
0
176
1
90
0
176
1
290
0
176
1
90
5
176
1
40
0.0
176
1
90
0
176
1
290
0
176
1
290
1
176
1
290
1
176
1
290
0
176
1
290
0
176
1
290
0
176
1
290
0
176
1
290
0
176
1
290
0
176
1
90
50
176
1
40
0.0
176
1
40
1.0
176
1
90
0
176
1
62
18
176
1
90
50
176
1
90
3
176
1
62
5
420
255
176
1
290
0
176
1
90
50
176
1
90
50
176
1
90
50
176
1
290
0
176
1
90
50
176
1
62
256
176
0
40
1.0
176
0
90
2
176
1
1
strokes_ogs.tif
176
1
290
0
176
1
40
1.0
176
1
40
1.0
176
1
1001
ACAD
1000
AcDbSavedByObjectVersion
1070
0
0
VISUALSTYLE
5
24B
102
{ACAD_REACTORS
330
23A
102
}
330
23A
100
AcDbVisualStyle
2
Shades of Gray
70
23
177
3
291
0
70
58
90
2
176
1
90
2
176
1
90
3
176
1
90
0
176
1
40
0.6
176
1
40
30.0
176
1
62
7
420
16777215
176
1
90
2
176
1
90
2
176
1
62
7
176
1
62
7
176
1
90
1
176
1
90
1
176
1
40
40.0
176
1
90
8
176
1
62
7
176
1
40
1.0
176
1
90
1
176
1
90
6
176
1
90
2
176
1
62
7
176
1
90
3
176
1
90
0
176
1
90
0
176
1
290
0
176
1
90
1
176
1
40
0.0
176
1
90
0
176
1
290
0
176
1
290
1
176
1
290
1
176
1
290
0
176
1
290
0
176
1
290
0
176
1
290
0
176
1
290
0
176
1
290
0
176
1
90
50
176
1
40
0.0
176
1
40
1.0
176
1
90
0
176
1
62
18
176
1
90
50
176
1
90
3
176
1
62
5
420
255
176
1
290
0
176
1
90
50
176
1
90
50
176
1
90
50
176
1
290
0
176
1
90
50
176
1
62
256
176
0
40
1.0
176
0
90
2
176
1
1
strokes_ogs.tif
176
1
290
0
176
1
40
1.0
176
1
40
1.0
176
1
1001
ACAD
1000
AcDbSavedByObjectVersion
1070
0
0
VISUALSTYLE
5
24C
102
{ACAD_REACTORS
330
23A
102
}
330
23A
100
AcDbVisualStyle
2
Sketchy
70
24
177
3
291
0
70
58
90
1
176
1
90
2
176
1
90
2
176
1
90
0
176
1
40
0.6
176
1
40
30.0
176
1
62
7
420
16777215
176
1
90
2
176
1
90
2
176
1
62
7
176
1
62
7
176
1
90
1
176
1
90
1
176
1
40
40.0
176
1
90
11
176
1
62
7
176
1
40
1.0
176
1
90
1
176
1
90
6
176
1
90
2
176
1
62
7
176
1
90
6
176
1
90
0
176
1
90
0
176
1
290
0
176
1
90
1
176
1
40
0.0
176
1
90
0
176
1
290
0
176
1
290
1
176
1
290
1
176
1
290
0
176
1
290
0
176
1
290
0
176
1
290
0
176
1
290
0
176
1
290
0
176
1
90
50
176
1
40
0.0
176
1
40
1.0
176
1
90
0
176
1
62
18
176
1
90
50
176
1
90
3
176
1
62
5
420
255
176
1
290
0
176
1
90
50
176
1
90
50
176
1
90
50
176
1
290
0
176
1
90
50
176
1
62
256
176
0
40
1.0
176
0
90
2
176
1
1
strokes_ogs.tif
176
1
290
0
176
1
40
1.0
176
1
40
1.0
176
1
1001
ACAD
1000
AcDbSavedByObjectVersion
1070
0
0
VISUALSTYLE
5
247
102
{ACAD_REACTORS
330
23A
102
}
330
23A
100
AcDbVisualStyle
2
Thicken
70
13
177
3
291
1
70
58
90
2
176
1
90
2
176
1
90
0
176
1
90
0
176
1
40
0.6
176
1
40
30.0
176
1
62
7
420
16777215
176
1
90
1
176
1
90
4
176
1
62
7
176
1
62
257
176
1
90
1
176
1
90
1
176
1
40
1.0
176
1
90
12
176
1
62
7
176
1
40
1.0
176
1
90
1
176
1
90
6
176
1
90
2
176
1
62
7
176
1
90
5
176
1
90
0
176
1
90
0
176
1
290
0
176
1
90
1
176
1
40
0.0
176
1
90
0
176
1
290
0
176
1
290
1
176
1
290
1
176
1
290
0
176
1
290
0
176
1
290
0
176
1
290
0
176
1
290
0
176
1
290
0
176
1
90
50
176
1
40
0.0
176
1
40
1.0
176
1
90
0
176
1
62
18
176
1
90
50
176
1
90
3
176
1
62
5
420
255
176
1
290
0
176
1
90
50
176
1
90
50
176
1
90
50
176
1
290
0
176
1
90
50
176
1
62
256
176
0
40
1.0
176
0
90
2
176
1
1
strokes_ogs.tif
176
1
290
0
176
1
40
1.0
176
1
40
1.0
176
1
1001
ACAD
1000
AcDbSavedByObjectVersion
1070
0
0
VISUALSTYLE
5
241
102
{ACAD_REACTORS
330
23A
102
}
330
23A
100
AcDbVisualStyle
2
Wireframe
70
5
177
3
291
0
70
58
90
0
176
1
90
2
176
1
90
0
176
1
90
0
176
1
40
0.6
176
1
40
30.0
176
1
62
7
420
16777215
176
1
90
1
176
1
90
4
176
1
62
7
176
1
62
257
176
1
90
1
176
1
90
1
176
1
40
1.0
176
1
90
0
176
1
62
257
176
1
40
1.0
176
1
90
1
176
1
90
6
176
1
90
2
176
1
62
7
176
1
90
3
176
1
90
0
176
1
90
0
176
1
290
0
176
1
90
1
176
1
40
0.0
176
1
90
0
176
1
290
0
176
1
290
1
176
1
290
1
176
1
290
0
176
1
290
0
176
1
290
0
176
1
290
0
176
1
290
0
176
1
290
0
176
1
90
50
176
1
40
0.0
176
1
40
1.0
176
1
90
0
176
1
62
18
176
1
90
50
176
1
90
3
176
1
62
5
420
255
176
1
290
0
176
1
90
50
176
1
90
50
176
1
90
50
176
1
290
0
176
1
90
50
176
1
62
256
176
0
40
1.0
176
0
90
2
176
1
1
strokes_ogs.tif
176
1
290
0
176
1
40
1.0
176
1
40
1.0
176
1
1001
ACAD
1000
AcDbSavedByObjectVersion
1070
0
0
VISUALSTYLE
5
24D
102
{ACAD_REACTORS
330
23A
102
}
330
23A
100
AcDbVisualStyle
2
X-Ray
70
25
177
3
291
0
70
58
90
2
176
1
90
2
176
1
90
1
176
1
90
1
176
1
40
0.5
176
1
40
30.0
176
1
62
7
420
16777215
176
1
90
1
176
1
90
0
176
1
62
7
176
1
62
257
176
1
90
1
176
1
90
1
176
1
40
1.0
176
1
90
8
176
1
62
7
176
1
40
1.0
176
1
90
1
176
1
90
6
176
1
90
2
176
1
62
7
176
1
90
3
176
1
90
0
176
1
90
0
176
1
290
0
176
1
90
13
176
1
40
0.0
176
1
90
0
176
1
290
0
176
1
290
1
176
1
290
1
176
1
290
0
176
1
290
0
176
1
290
0
176
1
290
0
176
1
290
0
176
1
290
0
176
1
90
50
176
1
40
0.0
176
1
40
1.0
176
1
90
0
176
1
62
18
176
1
90
50
176
1
90
3
176
1
62
5
420
255
176
1
290
0
176
1
90
50
176
1
90
50
176
1
90
50
176
1
290
0
176
1
90
50
176
1
62
256
176
0
40
1.0
176
0
90
2
176
1
1
strokes_ogs.tif
176
1
290
0
176
1
40
1.0
176
1
40
1.0
176
1
1001
ACAD
1000
AcDbSavedByObjectVersion
1070
0
0
DICTIONARYVAR
5
2A3
102
{ACAD_REACTORS
330
29D
102
}
330
29D
100
DictionaryVariables
280
0
1
1:1
0
DICTIONARYVAR
5
29F
102
{ACAD_REACTORS
330
29D
102
}
330
29D
100
DictionaryVariables
280
0
1
STANDARD
0
DICTIONARYVAR
5
29E
102
{ACAD_REACTORS
330
29D
102
}
330
29D
100
DictionaryVariables
280
0
1
STANDARD
0
DICTIONARYVAR
5
2A0
102
{ACAD_REACTORS
330
29D
102
}
330
29D
100
DictionaryVariables
280
0
1
Imperial24
0
DICTIONARYVAR
5
2A1
102
{ACAD_REACTORS
330
29D
102
}
330
29D
100
DictionaryVariables
280
0
1
Imperial24
0
DICTIONARYVAR
5
2A5
102
{ACAD_REACTORS
330
29D
102
}
330
29D
100
DictionaryVariables
280
0
1
1
0
DICTIONARYVAR
5
2A6
102
{ACAD_REACTORS
330
29D
102
}
330
29D
100
DictionaryVariables
280
0
1
15
0
DICTIONARYVAR
5
2A4
102
{ACAD_REACTORS
330
29D
102
}
330
29D
100
DictionaryVariables
280
0
1
0
0
DICTIONARYVAR
5
2A2
102
{ACAD_REACTORS
330
29D
102
}
330
29D
100
DictionaryVariables
280
0
1
0
0
DICTIONARY
5
22B
330
22A
100
AcDbDictionary
280
1
281
1
3
BUMPTILE
360
22D
3
DIFFUSETILE
360
22C
3
OPACITYTILE
360
230
3
REFLECTIONTILE
360
22F
3
REFRACTIONTILE
360
231
3
SPECULARTILE
360
22E
0
DICTIONARY
5
223
330
222
100
AcDbDictionary
280
1
281
1
3
BUMPTILE
360
225
3
DIFFUSETILE
360
224
3
OPACITYTILE
360
228
3
REFLECTIONTILE
360
227
3
REFRACTIONTILE
360
229
3
SPECULARTILE
360
226
0
DICTIONARY
5
233
330
232
100
AcDbDictionary
280
1
281
1
3
BUMPTILE
360
235
3
DIFFUSETILE
360
234
3
OPACITYTILE
360
238
3
REFLECTIONTILE
360
237
3
REFRACTIONTILE
360
239
3
SPECULARTILE
360
236
0
DICTIONARY
5
2A7
330
275
100
AcDbDictionary
280
1
281
1
3
ACAD_ROUNDTRIP_2008_TABLESTYLE_CELLSTYLEMAP
360
1056
0
XRECORD
5
22D
102
{ACAD_REACTORS
330
22B
102
}
330
22B
100
AcDbXrecord
280
1
270
1
271
1
0
XRECORD
5
22C
102
{ACAD_REACTORS
330
22B
102
}
330
22B
100
AcDbXrecord
280
1
270
1
271
1
0
XRECORD
5
230
102
{ACAD_REACTORS
330
22B
102
}
330
22B
100
AcDbXrecord
280
1
270
1
271
1
0
XRECORD
5
22F
102
{ACAD_REACTORS
330
22B
102
}
330
22B
100
AcDbXrecord
280
1
270
1
271
1
0
XRECORD
5
231
102
{ACAD_REACTORS
330
22B
102
}
330
22B
100
AcDbXrecord
280
1
270
1
271
1
0
XRECORD
5
22E
102
{ACAD_REACTORS
330
22B
102
}
330
22B
100
AcDbXrecord
280
1
270
1
271
1
0
XRECORD
5
225
102
{ACAD_REACTORS
330
223
102
}
330
223
100
AcDbXrecord
280
1
270
1
271
1
0
XRECORD
5
224
102
{ACAD_REACTORS
330
223
102
}
330
223
100
AcDbXrecord
280
1
270
1
271
1
0
XRECORD
5
228
102
{ACAD_REACTORS
330
223
102
}
330
223
100
AcDbXrecord
280
1
270
1
271
1
0
XRECORD
5
227
102
{ACAD_REACTORS
330
223
102
}
330
223
100
AcDbXrecord
280
1
270
1
271
1
0
XRECORD
5
229
102
{ACAD_REACTORS
330
223
102
}
330
223
100
AcDbXrecord
280
1
270
1
271
1
0
XRECORD
5
226
102
{ACAD_REACTORS
330
223
102
}
330
223
100
AcDbXrecord
280
1
270
1
271
1
0
XRECORD
5
235
102
{ACAD_REACTORS
330
233
102
}
330
233
100
AcDbXrecord
280
1
270
1
271
1
0
XRECORD
5
234
102
{ACAD_REACTORS
330
233
102
}
330
233
100
AcDbXrecord
280
1
270
1
271
1
0
XRECORD
5
238
102
{ACAD_REACTORS
330
233
102
}
330
233
100
AcDbXrecord
280
1
270
1
271
1
0
XRECORD
5
237
102
{ACAD_REACTORS
330
233
102
}
330
233
100
AcDbXrecord
280
1
270
1
271
1
0
XRECORD
5
239
102
{ACAD_REACTORS
330
233
102
}
330
233
100
AcDbXrecord
280
1
270
1
271
1
0
XRECORD
5
236
102
{ACAD_REACTORS
330
233
102
}
330
233
100
AcDbXrecord
280
1
270
1
271
1
0
CELLSTYLEMAP
5
1056
102
{ACAD_REACTORS
330
2A7
102
}
330
2A7
100
AcDbCellStyleMap
90
3
300
CELLSTYLE
1
TABLEFORMAT_BEGIN
90
5
170
1
91
0
92
32768
62
257
93
1
300
CONTENTFORMAT
1
CONTENTFORMAT_BEGIN
90
0
91
0
92
512
93
0
300

40
0.0
140
1.0
94
5
62
0
340
266
144
0.25
309
CONTENTFORMAT_END
171
1
301
MARGIN
1
CELLMARGIN_BEGIN
40
0.06
40
0.06
40
0.06
40
0.06
40
0.18
40
0.18
309
CELLMARGIN_END
94
6
95
1
302
GRIDFORMAT
1
GRIDFORMAT_BEGIN
90
0
91
1
62
0
92
-2
340
0
93
0
40
0.045
309
GRIDFORMAT_END
95
2
302
GRIDFORMAT
1
GRIDFORMAT_BEGIN
90
0
91
1
62
0
92
-2
340
0
93
0
40
0.045
309
GRIDFORMAT_END
95
4
302
GRIDFORMAT
1
GRIDFORMAT_BEGIN
90
0
91
1
62
0
92
-2
340
0
93
0
40
0.045
309
GRIDFORMAT_END
95
8
302
GRIDFORMAT
1
GRIDFORMAT_BEGIN
90
0
91
1
62
0
92
-2
340
0
93
0
40
0.045
309
GRIDFORMAT_END
95
16
302
GRIDFORMAT
1
GRIDFORMAT_BEGIN
90
0
91
1
62
0
92
-2
340
0
93
0
40
0.045
309
GRIDFORMAT_END
95
32
302
GRIDFORMAT
1
GRIDFORMAT_BEGIN
90
0
91
1
62
0
92
-2
340
0
93
0
40
0.045
309
GRIDFORMAT_END
309
TABLEFORMAT_END
1
CELLSTYLE_BEGIN
90
1
91
1
300
_TITLE
309
CELLSTYLE_END
300
CELLSTYLE
1
TABLEFORMAT_BEGIN
90
5
170
1
91
0
92
0
62
257
93
1
300
CONTENTFORMAT
1
CONTENTFORMAT_BEGIN
90
0
91
0
92
512
93
0
300

40
0.0
140
1.0
94
5
62
0
340
266
144
0.18
309
CONTENTFORMAT_END
171
1
301
MARGIN
1
CELLMARGIN_BEGIN
40
0.06
40
0.06
40
0.06
40
0.06
40
0.18
40
0.18
309
CELLMARGIN_END
94
6
95
1
302
GRIDFORMAT
1
GRIDFORMAT_BEGIN
90
0
91
1
62
0
92
-2
340
0
93
0
40
0.045
309
GRIDFORMAT_END
95
2
302
GRIDFORMAT
1
GRIDFORMAT_BEGIN
90
0
91
1
62
0
92
-2
340
0
93
0
40
0.045
309
GRIDFORMAT_END
95
4
302
GRIDFORMAT
1
GRIDFORMAT_BEGIN
90
0
91
1
62
0
92
-2
340
0
93
0
40
0.045
309
GRIDFORMAT_END
95
8
302
GRIDFORMAT
1
GRIDFORMAT_BEGIN
90
0
91
1
62
0
92
-2
340
0
93
0
40
0.045
309
GRIDFORMAT_END
95
16
302
GRIDFORMAT
1
GRIDFORMAT_BEGIN
90
0
91
1
62
0
92
-2
340
0
93
0
40
0.045
309
GRIDFORMAT_END
95
32
302
GRIDFORMAT
1
GRIDFORMAT_BEGIN
90
0
91
1
62
0
92
-2
340
0
93
0
40
0.045
309
GRIDFORMAT_END
309
TABLEFORMAT_END
1
CELLSTYLE_BEGIN
90
2
91
1
300
_HEADER
309
CELLSTYLE_END
300
CELLSTYLE
1
TABLEFORMAT_BEGIN
90
5
170
1
91
0
92
0
62
257
93
1
300
CONTENTFORMAT
1
CONTENTFORMAT_BEGIN
90
0
91
0
92
512
93
0
300

40
0.0
140
1.0
94
2
62
0
340
266
144
0.18
309
CONTENTFORMAT_END
171
1
301
MARGIN
1
CELLMARGIN_BEGIN
40
0.06
40
0.06
40
0.06
40
0.06
40
0.18
40
0.18
309
CELLMARGIN_END
94
6
95
1
302
GRIDFORMAT
1
GRIDFORMAT_BEGIN
90
0
91
1
62
0
92
-2
340
0
93
0
40
0.045
309
GRIDFORMAT_END
95
2
302
GRIDFORMAT
1
GRIDFORMAT_BEGIN
90
0
91
1
62
0
92
-2
340
0
93
0
40
0.045
309
GRIDFORMAT_END
95
4
302
GRIDFORMAT
1
GRIDFORMAT_BEGIN
90
0
91
1
62
0
92
-2
340
0
93
0
40
0.045
309
GRIDFORMAT_END
95
8
302
GRIDFORMAT
1
GRIDFORMAT_BEGIN
90
0
91
1
62
0
92
-2
340
0
93
0
40
0.045
309
GRIDFORMAT_END
95
16
302
GRIDFORMAT
1
GRIDFORMAT_BEGIN
90
0
91
1
62
0
92
-2
340
0
93
0
40
0.045
309
GRIDFORMAT_END
95
32
302
GRIDFORMAT
1
GRIDFORMAT_BEGIN
90
0
91
1
62
0
92
-2
340
0
93
0
40
0.045
309
GRIDFORMAT_END
309
TABLEFORMAT_END
1
CELLSTYLE_BEGIN
90
3
91
2
300
_DATA
309
CELLSTYLE_END
0
ENDSEC
0
SECTION
2
ACDSDATA
70
2
71
2
0
ACDSSCHEMA
90
0
1
AcDb_Thumbnail_Schema
2
AcDbDs::ID
280
10
91
8
2
Thumbnail_Data
280
15
91
0
101
ACDSRECORD
95
0
90
1
2
AcDbDs::TreatedAsObjectData
280
1
291
1
101
ACDSRECORD
95
0
90
2
2
AcDbDs::Legacy
280
1
291
1
101
ACDSRECORD
1
AcDbDs::ID
90
3
2
AcDs:Indexable
280
1
291
1
101
ACDSRECORD
1
AcDbDs::ID
90
4
2
AcDbDs::HandleAttribute
280
7
282
1
0
ACDSSCHEMA
90
1
1
AcDbDs::TreatedAsObjectDataSchema
2
AcDbDs::TreatedAsObjectData
280
1
91
0
0
ACDSSCHEMA
90
2
1
AcDbDs::LegacySchema
2
AcDbDs::Legacy
280
1
91
0
0
ACDSSCHEMA
90
3
1
AcDbDs::IndexedPropertySchema
2
AcDs:Indexable
280
1
91
0
0
ACDSSCHEMA
90
4
1
AcDbDs::HandleAttributeSchema
2
AcDbDs::HandleAttribute
280
7
91
1
284
1
0
ACDSRECORD
90
0
2
AcDbDs::ID
280
10
320
284
2
Thumbnail_Data
280
15
94
1130
310
89504E470D0A1A0A0000000D4948445200000100000000BB0803000000BDD6B05600000300504C54452128300000000000000000000000000000000000000000000000000000000000000000330000660000990000CC0000FF0033000033330033660033990033CC0033FF0066000066330066660066990066CC0066FF0099
310
000099330099660099990099CC0099FF00CC0000CC3300CC6600CC9900CCCC00CCFF00FF0000FF3300FF6600FF9900FFCC00FFFF3300003300333300663300993300CC3300FF3333003333333333663333993333CC3333FF3366003366333366663366993366CC3366FF3399003399333399663399993399CC3399FF33CC00
310
33CC3333CC6633CC9933CCCC33CCFF33FF0033FF3333FF6633FF9933FFCC33FFFF6600006600336600666600996600CC6600FF6633006633336633666633996633CC6633FF6666006666336666666666996666CC6666FF6699006699336699666699996699CC6699FF66CC0066CC3366CC6666CC9966CCCC66CCFF66FF0066
310
FF3366FF6666FF9966FFCC66FFFF9900009900339900669900999900CC9900FF9933009933339933669933999933CC9933FF9966009966339966669966999966CC9966FF9999009999339999669999999999CC9999FF99CC0099CC3399CC6699CC9999CCCC99CCFF99FF0099FF3399FF6699FF9999FFCC99FFFFCC0000CC00
310
33CC0066CC0099CC00CCCC00FFCC3300CC3333CC3366CC3399CC33CCCC33FFCC6600CC6633CC6666CC6699CC66CCCC66FFCC9900CC9933CC9966CC9999CC99CCCC99FFCCCC00CCCC33CCCC66CCCC99CCCCCCCCCCFFCCFF00CCFF33CCFF66CCFF99CCFFCCCCFFFFFF0000FF0033FF0066FF0099FF00CCFF00FFFF3300FF3333
310
FF3366FF3399FF33CCFF33FFFF6600FF6633FF6666FF6699FF66CCFF66FFFF9900FF9933FF9966FF9999FF99CCFF99FFFFCC00FFCC33FFCC66FFCC99FFCCCCFFCCFFFFFF00FFFF33FFFF66FFFF99FFFFCCFFFFFF0000000D0D0D1A1A1A2828283535354343435050505D5D5D6B6B6B787878868686939393A1A1A1AEAEAEBB
310
BBBBC9C9C9D6D6D6E4E4E4F1F1F1FFFFFF000000000000000000000000000000000000000000000000000000000000544354A80000004549444154789CEDC13101000000C2A0F54F6D094FA000000000000000000000000000000000000000000000000000000000000000000000000000000000000000000000E062BBBB00
310
01006808E50000000049454E44AE4260824BBACA0DB465ABDB4063B2B20534072BDA4047AC9A0DF4A42AD9407A015D99E20BA8D8407A019D89143066171752C0D0E513E84D54AE01050C5E7F7B0A18BA7C020A18BA7C02F105C4FF0C2920FE4024FE484C01F1C7E2F11723AEC65C8EBA1E372071982F7D48A87EFCC5989C41
310
49A3B22F9BB861E9DF3E73F299D3F25FC9D901000000000000000000000000000000000000000000E0344F3123803F1ED9B2780000000049454E44AE426082FADAD667F149BFC5000000000000000000000000000000000000000070A90F51C3A687E5D1137C0000000049454E44AE426082
0
ENDSEC
0
EOF
